<svg xmlns="http://www.w3.org/2000/svg" xmlns:xlink="http://www.w3.org/1999/xlink" width="227" height="196" viewBox="0 0 227 196">
  <defs>
    <linearGradient id="linear-gradient" x1="1" x2="0" y2="1" gradientUnits="objectBoundingBox">
      <stop offset="0" stop-color="#9bc622"/>
      <stop offset="1" stop-color="#01bdd6"/>
    </linearGradient>
    <clipPath id="clip-path">
      <path id="Rectangle_4010" data-name="Rectangle 4010" d="M10,0H227a0,0,0,0,1,0,0V196a0,0,0,0,1,0,0H10A10,10,0,0,1,0,186V10A10,10,0,0,1,10,0Z" transform="translate(0 4)" fill="url(#linear-gradient)"/>
    </clipPath>
  </defs>
  <g id="Press_releases" data-name="Press releases" transform="translate(-64 -470)">
    <g id="Group_5" data-name="Group 5" transform="translate(64 466)" clip-path="url(#clip-path)">
      <circle id="Ellipse_289" data-name="Ellipse 289" cx="20.5" cy="20.5" r="20.5" transform="translate(-26 54)" fill="rgba(255,255,255,0.32)"/>
      <circle id="Ellipse_290" data-name="Ellipse 290" cx="20.5" cy="20.5" r="20.5" transform="translate(205 50)" fill="rgba(255,255,255,0.32)"/>
      <circle id="Ellipse_291" data-name="Ellipse 291" cx="20.5" cy="20.5" r="20.5" transform="translate(53 166)" fill="rgba(255,255,255,0.32)"/>
      <circle id="Ellipse_292" data-name="Ellipse 292" cx="11.5" cy="11.5" r="11.5" transform="translate(189 8)" fill="rgba(255,255,255,0.32)"/>
    </g>
  </g>
</svg>
