<svg xmlns="http://www.w3.org/2000/svg" width="27" height="27" viewBox="0 0 27 27">
  <g id="calendar_icon" data-name="calendar icon" transform="translate(-82 -2951)">
    <circle id="Ellipse_148" data-name="Ellipse 148" cx="13.5" cy="13.5" r="13.5" transform="translate(82 2951)" fill="#fff"/>
    <path id="Path_47457" data-name="Path 47457" d="M7.651,3.75a.616.616,0,0,1,.616.616v.208c.307,0,.634,0,.982,0H11.8c.348,0,.675,0,.982,0V4.366a.616.616,0,0,1,1.232,0v.249c.186.013.362.03.527.052a3.053,3.053,0,0,1,1.856.806,3.053,3.053,0,0,1,.806,1.856,22.533,22.533,0,0,1,.1,2.741v2.539c0,.743,0,1.342-.044,1.825a3.145,3.145,0,0,1-.369,1.328,3.079,3.079,0,0,1-1.127,1.127,3.144,3.144,0,0,1-1.328.369c-.483.044-1.082.044-1.825.044H9.249a22.533,22.533,0,0,1-2.741-.1A3.053,3.053,0,0,1,4.652,16.4a3.053,3.053,0,0,1-.806-1.856,22.52,22.52,0,0,1-.1-2.741V10.07a22.519,22.519,0,0,1,.1-2.741,3.053,3.053,0,0,1,.806-1.856,3.053,3.053,0,0,1,1.856-.806c.165-.022.341-.039.527-.052V4.366A.616.616,0,0,1,7.651,3.75Zm5.133,2.056v.2a.616.616,0,0,0,1.232,0V5.85c.128.01.249.023.363.038a1.852,1.852,0,0,1,1.149.457,1.852,1.852,0,0,1,.457,1.149c.015.114.028.235.038.363h-11c.01-.128.023-.249.038-.363a1.852,1.852,0,0,1,.457-1.149,1.852,1.852,0,0,1,1.149-.457c.114-.015.235-.028.363-.038v.159a.616.616,0,0,0,1.232,0v-.2c.309,0,.65,0,1.027,0h2.464C12.135,5.8,12.476,5.8,12.785,5.806Zm-7.8,3.282c0,.309,0,.65,0,1.027v1.643a22.064,22.064,0,0,0,.085,2.622,1.852,1.852,0,0,0,.457,1.149,1.852,1.852,0,0,0,1.149.457,22.076,22.076,0,0,0,2.622.085h3.285c.779,0,1.322,0,1.743-.039a1.951,1.951,0,0,0,.824-.209,1.849,1.849,0,0,0,.676-.676,1.951,1.951,0,0,0,.209-.824c.038-.421.039-.964.039-1.743V10.115c0-.377,0-.718,0-1.027Z" transform="translate(84.974 2953.974)" fill="#01bdd6" fill-rule="evenodd"/>
  </g>
</svg>
