<?xml version="1.0" encoding="utf-8"?>
<!-- Generator: Adobe Illustrator 19.0.0, SVG Export Plug-In . SVG Version: 6.00 Build 0)  -->
<svg version="1.1" id="Layer_1" xmlns="http://www.w3.org/2000/svg" xmlns:xlink="http://www.w3.org/1999/xlink" x="0px" y="0px"
	 viewBox="-88.7 111.2 19.8 18.4" style="enable-background:new -88.7 111.2 19.8 18.4;" xml:space="preserve">
<style type="text/css">
	.st0{fill:#0A4B54;}
</style>
<g id="calendar_view-icon" transform="translate(-1216.213 -365.387)">
	<path id="calendar-view-icon" class="st0" d="M1145.1,478h-2.1v-0.7c0-0.4-0.3-0.7-0.7-0.7c-0.4,0-0.7,0.3-0.7,0.7v0.7h-8.5v-0.7
		c0-0.4-0.3-0.7-0.7-0.7c-0.4,0-0.7,0.3-0.7,0.7v0.7h-2.1c-1.2,0-2.1,0.9-2.1,2.1v12.7c0,1.2,0.9,2.1,2.1,2.1h15.5
		c1.2,0,2.1-0.9,2.1-2.1v-12.7C1147.3,478.9,1146.3,478,1145.1,478z M1129.6,479.4h2.1v0.7c0,0.4,0.3,0.7,0.7,0.7
		c0.4,0,0.7-0.3,0.7-0.7v-0.7h8.5v0.7c0,0.4,0.3,0.7,0.7,0.7c0.4,0,0.7-0.3,0.7-0.7v-0.7h2.1c0.4,0,0.7,0.3,0.7,0.7v2.1h-17v-2.1
		C1128.9,479.7,1129.2,479.4,1129.6,479.4z M1145.1,493.5h-15.5c-0.4,0-0.7-0.3-0.7-0.7v-9.2h17v9.2
		C1145.8,493.2,1145.5,493.5,1145.1,493.5z"/>
</g>
</svg>
