<svg id="download-svgrepo-com_1_" data-name="download-svgrepo-com (1)" xmlns="http://www.w3.org/2000/svg" width="14.313" height="14.313" viewBox="0 0 14.313 14.313">
  <path id="Path_47455" data-name="Path 47455" d="M15.313,21.651a.651.651,0,0,1-.651.651H1.651a.651.651,0,1,1,0-1.3H14.662A.651.651,0,0,1,15.313,21.651Z" transform="translate(-1 -7.989)" fill="#fff" fill-rule="evenodd"/>
  <path id="Path_47456" data-name="Path 47456" d="M10.468,12.507a1.3,1.3,0,0,1-1.7,0L5.628,9.79A1.3,1.3,0,0,1,6.48,7.506H7.664V2.3A1.3,1.3,0,0,1,8.965,1h1.3a1.3,1.3,0,0,1,1.3,1.3v5.2h1.184A1.3,1.3,0,0,1,13.6,9.79ZM9.19,11.155a.651.651,0,0,0,.852,0l2.709-2.348H11.242a.976.976,0,0,1-.976-.976V2.3h-1.3v5.53a.976.976,0,0,1-.976.976H6.48Z" transform="translate(-2.459 -1)" fill="#fff" fill-rule="evenodd"/>
</svg>
