<svg xmlns="http://www.w3.org/2000/svg" width="20.375" height="15.043" viewBox="0 0 20.375 15.043">
  <path id="email_icon" data-name="email icon" d="M21.612,30.8H6.005a2.387,2.387,0,0,1-2.384-2.384V18.143a2.387,2.387,0,0,1,2.384-2.384H21.612A2.387,2.387,0,0,1,24,18.143V28.418A2.387,2.387,0,0,1,21.612,30.8ZM6.1,29.429H21.516l-5.331-5.148-.835.807h0a2.219,2.219,0,0,1-3.08,0l-.837-.809Zm11.072-6.1,5.437,5.251h0a1,1,0,0,0,.013-.16c0-.106.006-10.253,0-10.356ZM5,18.062c-.009.087,0,10.266,0,10.356a1,1,0,0,0,.013.16l5.437-5.251Zm1.013-.93L13.222,24.1a.847.847,0,0,0,1.176,0l7.209-6.967Z" transform="translate(-3.621 -15.759)" fill="#fff"/>
</svg>
