<svg id="Icon_awesome-linkedin-in" data-name="Icon awesome-linkedin-in" xmlns="http://www.w3.org/2000/svg" width="18.093" height="18.093" viewBox="0 0 18.093 18.093">
  <path id="Icon_awesome-linkedin-in-2" data-name="Icon awesome-linkedin-in" d="M4.05,18.094H.3V6.014H4.05ZM2.172,4.366A2.183,2.183,0,1,1,4.345,2.173,2.191,2.191,0,0,1,2.172,4.366ZM18.089,18.094H14.346v-5.88c0-1.4-.028-3.2-1.95-3.2-1.95,0-2.249,1.523-2.249,3.1v5.981H6.4V6.014H10V7.662h.052A3.941,3.941,0,0,1,13.6,5.711c3.8,0,4.494,2.5,4.494,5.747v6.636Z" transform="translate(0 -0.001)" fill="#fff"/>
</svg>
