<svg id="list-view-icon" xmlns="http://www.w3.org/2000/svg" width="19.775" height="17.139" viewBox="0 0 19.775 17.139">
  <path id="Path_47452" data-name="Path 47452" d="M5.955,7.318A1.318,1.318,0,0,0,4.637,6H3.318A1.318,1.318,0,0,0,2,7.318V8.637A1.318,1.318,0,0,0,3.318,9.955H4.637A1.318,1.318,0,0,0,5.955,8.637Zm-1.318,0V8.637H3.318V7.318Z" transform="translate(-2 -6)" fill="#0a4b54" fill-rule="evenodd"/>
  <path id="Path_47453" data-name="Path 47453" d="M18.659,10a.659.659,0,1,0,0,1.318H31.843a.659.659,0,1,0,0-1.318Z" transform="translate(-12.727 -8.682)" fill="#0a4b54"/>
  <path id="Path_47454" data-name="Path 47454" d="M18,30.659A.659.659,0,0,1,18.659,30H31.843a.659.659,0,1,1,0,1.318H18.659A.659.659,0,0,1,18,30.659Z" transform="translate(-12.727 -22.09)" fill="#0a4b54"/>
  <path id="Path_47455" data-name="Path 47455" d="M5.955,27.318A1.318,1.318,0,0,0,4.637,26H3.318A1.318,1.318,0,0,0,2,27.318v1.318a1.318,1.318,0,0,0,1.318,1.318H4.637a1.318,1.318,0,0,0,1.318-1.318Zm-1.318,0v1.318H3.318V27.318Z" transform="translate(-2 -19.408)" fill="#0a4b54" fill-rule="evenodd"/>
  <path id="Path_47456" data-name="Path 47456" d="M18,50.659A.659.659,0,0,1,18.659,50H31.843a.659.659,0,1,1,0,1.318H18.659A.659.659,0,0,1,18,50.659Z" transform="translate(-12.727 -35.498)" fill="#0a4b54"/>
  <path id="Path_47457" data-name="Path 47457" d="M5.955,47.318A1.318,1.318,0,0,0,4.637,46H3.318A1.318,1.318,0,0,0,2,47.318v1.318a1.318,1.318,0,0,0,1.318,1.318H4.637a1.318,1.318,0,0,0,1.318-1.318Zm-1.318,0v1.318H3.318V47.318Z" transform="translate(-2 -32.817)" fill="#0a4b54" fill-rule="evenodd"/>
</svg>
