<svg id="location-map-icon" xmlns="http://www.w3.org/2000/svg" width="16.431" height="19.717" viewBox="0 0 16.431 19.717">
  <path id="Path_47500" data-name="Path 47500" d="M26.965,3.125a7.915,7.915,0,0,0-8.216,8.216,11.3,11.3,0,0,0,2.788,7.119,19.583,19.583,0,0,0,5.028,4.279.825.825,0,0,0,.8,0,19.586,19.586,0,0,0,5.028-4.279A11.292,11.292,0,0,0,35.18,11.34a7.915,7.915,0,0,0-8.215-8.216Zm0,4.929a3.286,3.286,0,1,0,3.286,3.286A3.288,3.288,0,0,0,26.965,8.054Z" transform="translate(-18.749 -3.125)" fill="#414141" fill-rule="evenodd"/>
</svg>
