<svg xmlns="http://www.w3.org/2000/svg" xmlns:xlink="http://www.w3.org/1999/xlink" width="508" height="508" viewBox="0 0 508 508">
  <defs>
    <clipPath id="clip-path">
      <circle id="Ellipse_216" data-name="Ellipse 216" cx="254" cy="254" r="254" transform="translate(0)" fill="#fff" stroke="#707070" stroke-width="1"/>
    </clipPath>
  </defs>
  <g id="Group_16003" data-name="Group 16003" transform="translate(-757 -601)">
    <circle id="Ellipse_217" data-name="Ellipse 217" cx="254" cy="254" r="254" transform="translate(757 601)" fill="rgba(197,222,146,0.23)"/>
    <g id="map" transform="translate(757 601)" clip-path="url(#clip-path)">
      <g id="World_map_-_low_resolution" transform="translate(-487.307 -115.878)">
        <path id="kalimantan" d="M423.317,168.346l-3.3,12.39-17.886,6.038-5.353-6.281-2.6.714,4.853,18.728,7.266.814,9.692,3.669v3.668l4.439-.814,6.466-8.95V191l3.64-7.323,4.04.814-4.853-10.178-.742-6.552-5.667.585Z" transform="translate(690.808 294.256)" fill="#9bc622"/>
        <path id="papua_new_guinea" data-name="papua new guinea" d="M441.892,180.343l-.528,34.886,5.025-.271L453,207.236l5.553.271,3.569,3.2,1.185,9.849,11.362,6,2.912-1.071v-3.6l-9.121-7.594-4.5-10.392,3.569-1.727-2.641-5.724-5.281-.128-1.328-6.124-14-9.45-2.384-.4Z" transform="translate(773.694 316.36)" fill="#9bc622"/>
        <path id="mexico" d="M71.192,117.082l6.895,21.711-3.212,1.8.357,4.311L81.3,149.57v8.636l7.494,7.194L85.58,144.188,81.3,130.157l1.071-9.707,3.569.357,1.427,3.24-1.427,8.265,18.557,36.314v12.947l14.988,17.615,16.415,7.551,6.78-3.954,9.635,7.908,5.71-5.753-2.5-6.481,8.208-2.512,2.5,1.442,2.5-2.512h3.925l7.137-12.59-3.569-3.24-13.917,3.24-3.212,9.35-8.208,1.442-9.635-3.954-4.282-13.661,3.24-17.229-6.623-4.125-3.155-16.544-2.641-1.128-4.825,4.9-5.538-2.955-2.17-11.034-21.94-2.3-11.334-8.522-10.791.557Z" transform="translate(123.396 204.247)" fill="#9bc622"/>
        <path id="estonia" d="M276.468,74.569l-7.994-.285-5.067,3.1-.071,2.3,3.283,3.1L276.825,84.5l-.357-9.935Z" transform="translate(460.943 130.039)" fill="#01bdd6"/>
        <path id="algeria" d="M284.469,119.04l-5.824-1.956-24.238,4.553-5.281,4.011,3.226,16.658-9.635.385-5.8,9.321-13.8,3.312.043,6.78,45.464,34.758,7.751.657,25.851-20.2-2.584-3.255-4.853-.657-2.912-4.882v-20.2l-1.941-1.956.328-5.21-5.167-5.21-.642-5.538,2.255-1.627-.971-5.867-1.27-3.883Z" transform="translate(390.292 205.23)" fill="#9bc622"/>
        <path id="morocco" d="M271.665,120.274H255.178l-3.226,7.166-7.437,3.583-6.138,16.615L226.415,154.8l-16.8,27.678,16.487-.328.642-8.136h4.2V162.94h14.545l.328-14.331,13.9-3.255,5.824-9.45,9.05-.328-2.926-15.3Z" transform="translate(366.568 210.833)" fill="#9bc622"/>
        <path id="mauretania" d="M209.656,159.445l3.112,4.068-.642,17.586,4.525-3.255,3.226-.657,4.525,1.627,5.167,7.166,4.853-3.255,23.6-.328-5.824-39.411,6.252-.029L246.8,134.037l.014,5.8-14.745.014-.071,11.063-4.239-.014-.542,8.165-17.557.385Z" transform="translate(366.641 235.011)" fill="#9bc622"/>
        <path id="senegal" d="M217.016,150.772l-5.624,4.082-1.285,2.284-.4,2.284,2.07,1.485,6.909-.1,4.439-1.2.5,2.184-.4,2.883,4.24,2.084.885,1,5.624.2.2-2.484-5.139-6.167-5.724-7.751-3.554-1.485-2.741.7Z" transform="translate(366.732 263.183)" fill="#9bc622"/>
        <path id="gambia" d="M210.8,155.443l-.186,1.584,9.878-.143.5-1.47-.214-1.485-2.841,1.156-7.137.357Z" transform="translate(368.333 269.96)" fill="#9bc622"/>
        <path id="casamance" d="M210.634,155.453l1.77,4.3.985-2.655,12,1.256-5.2-2.669-9.564-.228Z" transform="translate(368.36 272.634)" fill="#9bc622"/>
        <path id="bissau" d="M211.571,159.795l2,3.954,5.61-4.825.057-1.485-6.609-.956-1.056,3.312Z" transform="translate(370.007 274.444)" fill="#9bc622"/>
        <path id="guinee" d="M212.514,164.271l4.339,6.68,5.653-4.91,5.8-.257,4.825,6.409,4.1,2.7,1.542-3,1.37-.771-.1-6.595-2.726-7.822-8.365.928-10.349-.828-.057,2.655-6.024,4.81Z" transform="translate(371.662 274.835)" fill="#9bc622"/>
        <path id="sierra_leone" data-name="sierra leone" d="M214.331,165.212l8.065,7.794,5.753-6.98-3.6-5.638-4.953.5-5.267,4.325Z" transform="translate(374.855 281.303)" fill="#9bc622"/>
        <path id="liberia" d="M217.562,169.824,233.236,180.3l-.371-7.936-4.739-5.581-4.625-4.1-5.938,7.137Z" transform="translate(380.531 285.341)" fill="#9bc622"/>
        <path id="ivoire" d="M227.3,186.455l6.109-4.325L241,180.8l7.751,1.67-3.954-5.981-1.156-3.654,1.156-10.806-6.923.328-3.14-3-6.595.171-3.14.5.328,7.308-1.656.671-1.984,3.654,5.11,5.981.5,8.807Z" transform="translate(387.781 279.502)" fill="#9bc622"/>
        <path id="mali" d="M217.195,180.365l4.4-3.012,24.438-.143L240.376,137.9l6.452-.186,31.218,23.824,4.2.6-1.584,13.247-19.627,1.784-15.145,11.305-2.755,7.737-10.52.443-2.684-7.722-8.065.571.314-2.527-4.982-6.609Z" transform="translate(379.886 241.47)" fill="#9bc622"/>
        <path id="burkina" d="M244.193,152.641l5.2-.414,8.522,12.048L250,170.241l-5.724-1.47-7.694.1-1.242,4.511-6.452.314-1.77-2.412,2.284-7.337,14.788-11.305Z" transform="translate(397.323 266.967)" fill="#9bc622"/>
        <path id="niger" d="M243.677,186.42l3.64-.086,3.283-4.925,5.51-.985,5.867,3.583,12.519.357,9.678-3.94,3.64-3.126.271-4.111,6.752-6.809,1.784-15.031-4.439-9.307-11.362-2.769-26.293,20.5-3.726-.357-1.6,14.231-13.418,1.342,7.894,11.434Z" transform="translate(412.541 244.208)" fill="#9bc622"/>
        <path id="ghana" d="M230.077,173.855l1.6,3.754,4.168,6.538,2.312-.086,6.309-3.583-.443-20.4-4.882-1.427-6.837.186-2.227,15.017Z" transform="translate(402.517 278.255)" fill="#9bc622"/>
        <path id="togo" d="M235.929,179.75l3.825-2.241-.086-14.774-2.484-4.025-1.6,1.342.343,19.7Z" transform="translate(412.196 278.355)" fill="#9bc622"/>
        <path id="benin" d="M239.156,180.658h3.026l.171-8.593,3.826-5.553-.171-9.664-3.469-.086-5.952,4.653,2.484,4.739.086,14.5Z" transform="translate(413.951 274.935)" fill="#9bc622"/>
        <path id="nigeria" d="M239,184.416l5.6.271,6.752,7.523,3.283.9,2.569-1.256,3.911-.542,1.327-5.453,5.324-3.5,5.767-.271,10.563-19.427-.171-4.382-4.882-3.754-9.764,4.3-13.061-.186-6.224-3.94-4.439.985-2.312,4.025-.171,11.362-3.726,5.281L239,184.416Z" transform="translate(418.19 271.006)" fill="#9bc622"/>
        <path id="tunisia" d="M246.088,119.739l7.894-3.183,2.6,1.684.1,2.056-1.213,1.584.186,2.812,1.213.657V130.4l-1.4,2.341.186,1.5,5.3,1.87-4.268,6.638-1.67-.1-.285,5.339-1.856.285-1.584-1.4.371-5.424-5.2-5.053L245.8,132l2.512-1.97-2.227-10.292Z" transform="translate(430.143 204.302)" fill="#9bc622"/>
        <path id="libya" d="M248.614,136.707l2.227-.371.657-5.139h1.113l4.554-7.48,11.234,3.269,3.069,4.768,11.048,5.053,5.753-2.427-.557-2.427-2.512-2.427.285-1.684,4.082-3.454h8.079l3.069,4.111,6.495.942.842,52.658-4.825-.186-29.148-15.159-3.155,1.784-11.976-3-3.255-4.3-4.739-.657-2.412-4.3.072-19.584Z" transform="translate(434.955 216.882)" fill="#9bc622"/>
        <path id="egypt" d="M270.253,126.747l3.811.1,7.423,2.056,3.526.1,4.368-3.654h2.041l3.711,2.056h4.7l.842-.057,2.969,8.536.842,2.755.785,4.125-1.4,1.028-2.412-1.213-2.784-9.078-2.512-.186-.185,3.083,1.67,5.339,13.375,16.558.286,7.109-3.9,4.5-36.6-.414-.557-42.737Z" transform="translate(473.096 219.748)" fill="#9bc622"/>
        <path id="chad" d="M257.448,176.964l.186-4.211,6.766-6.58,1.813-16.159-4.511-8.622,3.155-1.613L295.4,155.695l-.186,15.616-5.382,4.582v8.051l3.526,6.823h-6.224l-10.306,10.192-.271,3.083-7.608-.1-.1,1.4-4.339-.571-2.969-5.61-2.227-1.1.286-1.713,2.8-2.141V184.187l-3.868-.6-4.668-3.469,3.583-3.155Z" transform="translate(444.306 245.099)" fill="#9bc622"/>
        <path id="south_sudan" d="M310.451,168.46l-4.2-7.057-.441-5.132-1.009.193-.273,1.58-5.507,8.044-4.394-2.1-4.382,3.671-9.067-.521-4.011-3.206-5.758,2.946-.217,1.963-1.756,1.058L287.021,188l9.58.544,1.4,2.127,13.706.243.111-3.069,1.171-2.127,4.571-.585-5.7-8.265h-4.2L306.593,171l3.367-1.483Z" transform="translate(471.659 274.072)" fill="#9bc622"/>
        <path id="sudan" d="M318.325,140.12l-5.266,5.311L276.23,145.1l.4,9.378-3.51-.1-.257,16.886-5.324,4.583-.214,7.05,3.841,7.581,4.21,2.484-.064.591,5.738-2.939,4.376,3.5,8.049.462,4.651-3.9,4.12,1.963,4.639-6.777.391-2.25,3.534-.672.55,6.382,3.536,5.938,8.57-18.431V165.63l6.225-7.337Z" transform="translate(467.947 245.699)" fill="#9bc622"/>
        <path id="cameroon" d="M247.413,188.705l4.6,4.225-.328,6.538,25.208-.585,2.055-2.312-7.223-7.78-1.071-2.812,4.6-8.607-3.126-5.71-2.626-1.413v-2.9l3.04-1.984.171-9.021-2.412-.271-.043,4.739-10.592,19.77-6.48.328-4.439,3.055-1.327,4.739Z" transform="translate(432.972 273.725)" fill="#9bc622"/>
        <path id="eritrea" d="M288.49,162.155l-.357-8.408,5.653-6.595,1.527,1.171,2.784,9.307,13.361,9.949-2.427,2.983-9.778-8.408H288.49Z" transform="translate(504.506 258.052)" fill="#9bc622"/>
        <path id="djibouti" d="M296.429,158.438l-.814,4.8,5.653-.086.086-7.051-2.07-1.27-2.855,3.611Z" transform="translate(517.65 271.533)" fill="#9bc622"/>
        <path id="ethiopia" d="M286.552,176.164l10.392-23.124,10.32.057,9.15,7.951-.642,6.552h7.094l.728,3.94,11.477,6.866,7.08.357-13.461,14.46-18.485,5.7h-4.582l-8.165-6.966-3.226-1.356-6.252-9.207-4.125.057-.486-4.225,3.183-1.056Z" transform="translate(496.137 268.395)" fill="#9bc622"/>
        <path id="somaliland" d="M298.116,158.64l5.824,3.968,1.727-.086,14.46-4.967,1.642,5.3-1.156,4.468-3.126,2.484-7.808-.5L298.5,162.437l-.386-3.8Z" transform="translate(522.043 276.327)" fill="#9bc622"/>
        <path id="soqotra" d="M310.481,156.058l3.041,3.4,4.111-2.484,1.484-.5-1.884-1.827-3.612,1.071-3.14.343Z" transform="translate(543.765 271.215)" fill="#9bc622"/>
        <path id="somalia" d="M327.25,158.964l6.238-2.4,2.213,1.327-.243,5.538-5.753,16.387-31.132,33.345-3.611-2.484-.243-14.074,4.682-5.381,9.935-3.069,14.574-15.388,3.811-3.4,1.071-4.967-1.542-5.439Z" transform="translate(516.076 274.59)" fill="#9bc622"/>
        <path id="centrafrique" d="M257.233,183.71l6.652,7.194,2.626-3.4,4.182.171.9-3.312L275.7,181.8l8.536,5.881,4.925-4.882,19.113.842-17.729-18.3,2.384-1.485.328-3.226-4.025-1.9h-5.91l-9.521,9.435-.328,3.883-7.551-.243-.243,1.656-4.925-.5-4.439,8.436.914,2.312Z" transform="translate(448.617 278.392)" fill="#9bc622"/>
        <path id="sao_tome" data-name="sao tome" d="M243.747,175.1l1.642-.828,1.228,1-1.228,1.9-1.485-.585-.157-1.485Z" transform="translate(426.532 305.699)" fill="#9bc622"/>
        <path id="principe" d="M244.943,172.949l2.469-.414.828,1.57-1.228,1.327-1.228-.171-.842-2.312Z" transform="translate(428.633 302.643)" fill="#9bc622"/>
        <path id="bioko" d="M247.324,169.8l-.657,2.812,1.97,1.071,1.884-1.413-.657-2.9-2.541.428Z" transform="translate(431.662 297.094)" fill="#9bc622"/>
        <path id="gabon" d="M260.229,172.335l-.171,3.554-8.051-.171-4.925,9.521L258.658,197.9l2.869-2.4-.086-2.484-1.97-.914v-1.741l4.439-2.812,3.94,2.983,4.354.086-.086-14.974-6.894-.328-.086-3.14-4.91.157Z" transform="translate(432.39 302.015)" fill="#9bc622"/>
        <path id="equatorial_guinea" data-name="equatorial guinea" d="M249.109,172.266l-.086,1.984,6.481.328-.086-2.241-6.309-.071Z" transform="translate(435.801 302.17)" fill="#9bc622"/>
        <path id="congo" d="M259.2,176.462l-.086,2.07,6.823.171.243,17.714-6.238-.171-3.611-2.812-2.8,1.57-.128.785,1.442.7.414,3.64-3.854,3.312.828,1.741,4.268-3.312h2.055l.657,1.984,2.712,1.156,8.707-7.366-.171-5.381,1.813-4.382,5.581-4.14,1.5-14-3.968.014-4.6,6.295-11.591.414Z" transform="translate(439.994 297.731)" fill="#9bc622"/>
        <path id="cabinda" d="M251.934,184.83l2.484,3.226,3.212-3.04-.942-3.155-.8-.057-3.954,3.026Z" transform="translate(440.913 318.925)" fill="#9bc622"/>
        <path id="drc" d="M253.4,213.193l14.717-.257,2.983,4.239-.114,3.126,1.1,1h7.309l2.1-4.125h2.983l1.213,1.228,4.1-.114L291,232.678l7.08.228v1.113l19.028,8.579.885,1.67h3.982l-.442-6.024-7.194-3.454.442-4.568,3.1-7.251,7.08-.228-6.081-20.184.114-8.579,9.621-15.045.114-2.113-1.442-.785.057-4.082-1.756-.157-1.77-2.255-29.048-1.313-5.324,5.182-8.722-5.738-3.069,1.884L275.424,188.3l-5.51,4.254-1.656,3.768.3,5.581-9.935,8.122-2.641-1.2.357,1.556-2.941,2.812Z" transform="translate(443.487 294.101)" fill="#9bc622"/>
        <path id="rwanda" d="M280,176l4.011,3.7-.171,3.954-6.224.128V179.41L280,176Z" transform="translate(486.031 308.728)" fill="#9bc622"/>
        <path id="burundi" d="M277.811,179.348l6.1-.128-1.585,5.339L280.78,185.9H278.9l-1.342-3.611.257-2.94Z" transform="translate(485.922 314.386)" fill="#9bc622"/>
        <path id="uganda" d="M278.73,186.722l4.325,4.054,2.712-1.727,7.337-1.2,1.256.128.471-2.784,4.14-8.707-3.483-7.251-11.291.071-.071,2.983,1.513,1.456-.228,2.983-6.681,9.992Z" transform="translate(487.986 296.848)" fill="#9bc622"/>
        <path id="kenya" d="M286.082,172.473l3.8,7.408-4.553,9.55-.6,2.9,22.739,14.06,7.051-11.077-3.569-2.9-.071-14.588,4.468-4.882-7.123,2.37-5.381.071-8.422-7.109-2.655-1.142-4.925.457-.871,1.456.114,3.426Z" transform="translate(498.52 293.155)" fill="#9bc622"/>
        <path id="tanzania" d="M297.217,220.464l24.937-3.055-5.61-10.848-.3-10.392,1.813-4.967-23.724-14.9-7.437,1.228-2.584,1.913-.228,4.354-1.67,6.038-1.741,2.07-2.5.228,4.782,16.572,7.808,3.668,5.381.157,1.071,7.937Z" transform="translate(487.013 309.256)" fill="#9bc622"/>
        <path id="zambia" d="M266.432,218.826l4.525,6.281,7.009.428,2.484,1.37,7.337.086,6.323-8.864,17.672-7.908,1.542-6.966-2.056-9.978-9.221-5.253-6.152.428-3.069,6.795.086,3.1,7.251,3.526.428,7.665-6.238.343-1.542-2.584L275.482,199.9l-.514,5.681-8.193.257-.342,12.99Z" transform="translate(466.383 329.85)" fill="#9bc622"/>
        <path id="angola" d="M255.2,184.858l4.868,18.171-.114,5.738-7.123,7.651-1.071,12.433,27.407.243,8.907,3.226,7.351-.956L291.141,226l.014-15.331,8.422-.357v-5.981l-6.837-.285-1.37-14.16-2.883.043-1.556-1.4-1.7.086-2.255,4.368H274.3l-2.013-2.027.6-2.869-2.369-3.469-15.316.243Z" transform="translate(440.604 323.865)" fill="#9bc622"/>
        <path id="malawi" d="M283.581,208.031l4.439,4.639-.086,5.938.856,2.5,5.9-6.366L294,206.647l-3.155-2.412-2.812-14.2-4.867-.171,2.212,10.235-1.8,7.936Z" transform="translate(495.782 333.079)" fill="#9bc622"/>
        <path id="mozambique" d="M282.717,253.264l3.84,3.183,9.05-5.51,1.456-8.179v-13.5l14.517-11.876,2.484.086,8.793-8.436-1.37-17.386-23.31,2.941.685,5.253,4.011,3.1.942,9.464-7.851,7.665-1.884-4.3.343-5.681-4.525-4.91-11.105,5.167,10.335,5.253.343,15.316-6.837,10.149.086,12.2Z" transform="translate(488.096 336.208)" fill="#9bc622"/>
        <path id="zimbabwe" d="M271.83,211.127l12.8,14.46,9.821,2.5,6.58-10.32-.514-13.675-10.677-5.51-4.011,1.813-5.981,9.121-8.279-.086.257,1.7Z" transform="translate(475.415 348.397)" fill="#9bc622"/>
        <path id="namibia" d="M266.626,249.026l4.782.343,2.812,2.841,6.666.086,1.627-18.928v-12.39l4.268-.856,1.627-12.99,10.848-.343,3.84-3.183-6.495-.257-8.793,1.2-9.478-3.44H251.7l.685,7.565,8.879,13.075-1.542,6.709.086,3.526,6.823,17.044Z" transform="translate(440.495 352.836)" fill="#9bc622"/>
        <path id="botswana" d="M263.3,231.745l3.069.942-.428,8.779,3.155.428,7.251-6.538,8.707.942,2.313-5.852,11.02-10.063-13.232-15.231-.171-2.5-1.456-.428-4.011,3.7-10.42.257-1.456,12.99-4.1.942-.243,11.634Z" transform="translate(460.888 354.801)" fill="#9bc622"/>
        <path id="swaziland" d="M283.326,214.368l-3.583.6-1.542,4.211,2.741,2.5h3.326l2.812-4.04-3.754-3.269Z" transform="translate(487.059 376.132)" fill="#9bc622"/>
        <path id="lesotho" d="M273.9,222.4l4.354-3.354,2.055.086,2.484,3.1-.257,3.1-4.182,1.542v1.2l-4.611-.257-1.113-3.354,1.27-2.056Z" transform="translate(477.271 384.355)" fill="#9bc622"/>
        <path id="south_africa" data-name="south africa" d="M310.443,209l-11.277,10.42-2.684,6.438-8.936-1.113-7.437,6.609-4.939-.485.4-9.136-1.756-.614L272.587,239.8l-8.764-.086-2.641-3.112-3.868-.043,3.526,10.12,6.295,5.952-4.5,5.239,2.912,6.566,6.737,2.569,5.367-4.568,15.373.086,1.1-1.37,6.823-1.2,23.082-22.982-.086-7.237-2.469,3.2h-3.7l-4.5-3.768,2.284-5.681,3.925-.8-.357-11.676L310.443,209Zm-5.41,26.408,2.155-.086,3.5,3.8-.1,4.4-4.1,2.07-.257,1.456-6.252.071-1.956-4.71,1.784-3.454,5.224-3.54Z" transform="translate(450.364 366.699)" fill="#9bc622"/>
        <path id="greenland" d="M167.517,45.947l-1.941,3.1,3.5,3.5-1.556,3.5,5.053,6.595,6.209-1.941,8.151-.771,9.321,10.092L202.461,86.7l-5.039,10.477,6.98-1.171,3.883,2.327.385,5.053-8.536.385,4.653,4.653,5.824,1.17-12.8,17.072-1.556,10.477,2.712,8.536-1.941,5.053,3.5,10.863,6.595,7.38,1.941-.385,4.268-1.171.385,6.209,2.712,3.883,5.039-.385,3.883-14.36,11.648-14.36,17.472-6.98,10.863-13.589,5.039,2.327h10.477l8.536-8.536,10.477-4.268,1.17-6.595-6.595-5.824L288.606,103l-3.112-8.151,7.38-4.268,11.648,6.209,3.883-4.268-6.209-3.5L315.4,71.17,313.072,63.4l-6.209-.385,2.327-6.98,7.765-3.5,15.916-13.975-4.653-5.039L310.36,35.084l-9.321,9.321,5.438-12.033-6.209-1.556-3.5,6.209-5.039-4.268-13.975,1.556L281.64,28.1l22.9-.771-5.824-7.765-24.837-4.653-10.092,1.556.385,5.053-10.477-3.5.385-3.5-7.38,1.556-1.556,3.883,7.765,2.712L244.755,28.5l-5.824-6.595-8.151-2.327-1.171,6.209H221.46L218.348,19.2l-12.8-1.941-6.98,3.5-.385,4.653-8.921-1.17-5.438,2.327L184.2,32v2.712l-10.092,1.941-4.653-3.1L166.346,38.6,171,43.649l9.707-1.17.771,3.112-7.38,3.5-6.58-3.14Z" transform="translate(289.204 25.068)" fill="#9bc622"/>
        <path id="disko" d="M180.276,47.891l2.327,3.5-1.171,4.268h-2.327l-3.112-3.5.771-2.712,3.512-1.556Z" transform="translate(307.506 83.675)" fill="#9bc622"/>
        <path id="milne" d="M214.23,44.37l6.595,1.941-.385,5.439-6.98-3.5L211.9,46.311l2.327-1.941Z" transform="translate(370.589 77.49)" fill="#9bc622"/>
        <path id="east_antarctica" data-name="east antarctica" d="M201.174,369.81l5.467-7.294L227.9,351.582l3.64-7.894,9.107-1.827,8.507-10.934,8.508-.614,1.827-8.508,7.294-5.467,6.081,1.827,17.615-5.467,4.254,4.254,7.894.614,7.294-3.64,43.737-.614,15.787,4.254,20.041-4.254,6.68.614,1.827-6.081h6.68l9.107,9.721,17.015-10.934,18.828-5.467,6.68,4.254.614-8.507,9.721-1.213,10.32,4.853V305.4l26.122,10.934,7.294-.614,3.04,3.64-8.508,9.721v6.68l7.894,4.254,1.827-4.254,35.843-13.974,26.122-2.427,5.467,3.04,20.655,3.04,4.853,1.827,6.68-3.64,9.721-.614,9.107,6.68.614,7.294,20.655-4.254,3.041,1.213,1.213,6.68,18.828,6.081,6.081-4.254.614,5.467,6.68.614,9.107,7.294,8.508-3.64,7.294.614h5.467l3.64-.614.614,9.721,12.147,7.294-536.4.6Z" transform="translate(351.741 519.009)" fill="#9bc622"/>
        <path id="antarctic_peninsula" data-name="antarctic peninsula" d="M134.632,381.026l19.442-5.467,1.213-5.467,20.655-4.853,12.147,3.04,26.721-10.934-.614-11.534L206.3,333.664l1.827-3.04-3.04-7.894v-8.508h4.853l-3.04-6.081,21.868-18.828-.614,8.507-4.254,1.213-4.254,7.294,4.254,1.827-4.254,6.081-4.853-1.213-2.427,5.467.614,7.294,7.294-.614,4.853,6.68,1.827,8.508,9.721,12.147.614,15.188-3.64,1.827,3.04,7.894-1.827,3.04-100.234.571Z" transform="translate(234.844 507.793)" fill="#9bc622"/>
        <path id="thurston" d="M136.531,319.389l7.294-1.213,3.04,2.427-1.213,3.041-.614,3.64-4.254,1.827-3.04-3.64H125.6v-2.427l5.467-1.213,5.467-2.441Z" transform="translate(218.971 558.496)" fill="#9bc622"/>
        <path id="alexander" d="M165.135,304.293l-6.081,1.213,3.64,6.68,4.254,1.827-1.827,3.64v2.427l-11.548,3.04,1.213,3.64,4.853,1.827,5.467-4.254,4.853,1.213-3.04,4.853,1.827,1.213,5.467-2.427,4.254-7.894-13.332-17Z" transform="translate(268.119 534.108)" fill="#9bc622"/>
        <path id="smyley" d="M156.231,314.209l-4.853,4.254,4.254,1.213,5.467,1.213,5.467-3.64-5.467-1.213-4.868-1.827Z" transform="translate(264.262 551.528)" fill="#9bc622"/>
        <path id="robert" d="M168.237,288.138l-3.554.714-.785,3.64,6.795-1-2.455-3.354Z" transform="translate(286.257 505.728)" fill="#9bc622"/>
        <path id="king_george" data-name="king george" d="M170.273,286.1l-4.268.814.814,3.3,5.2-.186-1.742-3.925Z" transform="translate(289.959 502.153)" fill="#9bc622"/>
        <path id="james_ross" data-name="james ross" d="M170.013,288.5l.029,5.082,2.926.129,2.37-3.768-5.324-1.442Z" transform="translate(297 506.365)" fill="#9bc622"/>
        <path id="elephant" d="M172.991,283.359l-3.083,1.213-.785,2.912,2.669.971,4.482-3.083-3.283-2.013Z" transform="translate(295.435 497.332)" fill="#9bc622"/>
        <path id="australia" d="M398.315,264.232l-.5,36.228-5.567,4.082-.5,3.569,7.594,5.1,18.742-3.569h9.621l3.54-5.11,21.269-4.082,15.188,4.6-1.013,6.124,2.027,6.124,11.648-2.041.5,3.055-7.594,5.61,2.527,2.041,5.567-2.041-1.513,16.844,10.634,8.165,6.081-2.041,3.04,3.055,17.729-2.555,16.715-27.05,6.081-1.527,12.147-22.453,3.04-19.384-7.594-9.692,3.041-2.041-6.081-18.885-6.581-4.6,1.014-25.508-6.081-4.6-1.513-14.289h-3.04L518.348,231.03l-5.567.514L500.12,218.782l7.094-18.885-13.161-2.555-14.688,4.082-4.054,11.733-6.581,1.527-.5-8.165L441.4,222.851l.5,6.124-4.054,5.61H427.706l-21.783,9.178-7.608,20.469Z" transform="translate(686.533 346.223)" fill="#9bc622"/>
        <path id="tasmania" d="M429.175,256.961l-2.527,10.206.5,7.137,7.594-.514,8.607-13.261-14.174-3.569Z" transform="translate(747.842 450.959)" fill="#9bc622"/>
        <path id="new_zealand_north_island" data-name="new zealand north island" d="M477.925,249.557l1.513,16.844-2.027,7.651-7.594,5.61.5,6.638v7.137l2.027,2.555,20.769-17.857v-4.082h-5.067l-7.094-23.981-3.026-.514Z" transform="translate(823.678 437.951)" fill="#9bc622"/>
        <path id="new_zealand_south_island" data-name="new zealand south island" d="M493.392,262.885l4.054,7.651L486.3,281.256l-1.013,5.61-7.594,1.014-12.661,11.733L453.381,294l-1.014-4.082,21.269-9.178,19.756-17.857Z" transform="translate(793.024 461.365)" fill="#9bc622"/>
        <path id="new_caledonia" data-name="new caledonia" d="M469.773,217.718l-.5,2.555,6.58,9.178,3.54,1.527.5-3.569-10.12-9.692Z" transform="translate(822.723 382.018)" fill="#9bc622"/>
        <path id="sumatra" d="M374.352,164.436l-.4,3.255,9.692,16.287h2.826l20.2,33.787,8.079.814,4.04-11.8-6.466-4.068-1.213-6.509-36.756-31.76Z" transform="translate(655.268 288.416)" fill="#9bc622"/>
        <path id="east_malaysia" data-name="east malaysia" d="M395.669,190.632l4.311,4.982,16.53-5.724,3.269-12.619,7.366-.528,6.737-4.882-8.736-6.366-2-3.5-4.311,7.951,1.584,4.568-2.626,3.811-4.953-1.27-12,8.807.314,5.1-5.481-.328Z" transform="translate(693.419 284.132)" fill="#9bc622"/>
        <path id="brunei" d="M406.382,165.306l-4.111,4.982,3.369,1.056,1.9-2.655-1.156-3.383Z" transform="translate(705.016 289.944)" fill="#9bc622"/>
        <path id="sulawesi" d="M408.816,196.723l3.226,3.954-2.1,5.938v1.128h4.768L416.4,192.9l1.542.428,2.8,13.561,2.669.714,2.526-5.8L423.4,193.04l-2.1-3.811,6.595-4.81-1.542-2.127-6.309,4.1h-1.684l-3.083-4.525.985-1.984,5.2-2.541,7.851,2.4,2.384-.143,5.9-5.51-2.384-2.4-5.467,4.24H426.23l-5.324-2.541-3.783.143-4.211,6.78-2.669,11.733-1.428,4.682Z" transform="translate(716.514 301.151)" fill="#9bc622"/>
        <path id="maluku" d="M423.285,171.132l-2.669,6.495,4.211,5.51h1.4l1.827-3.669.985-1.27-1.827-1.984-2.669-.985-1.256-4.1Z" transform="translate(737.245 300.178)" fill="#9bc622"/>
        <path id="seram" d="M429.327,178.873l-5.753,1.27-1.684,1.841,1.4,2.4,3.783-1.413,2.384-1.413,3.512,2.826,1.542-1.27-2.8-3.4-2.384-.842Z" transform="translate(739.482 313.777)" fill="#9bc622"/>
        <path id="java" d="M392.49,185.537l-3.926,2.684.842,2.255L401.9,193.3l6.309,1.128,2.669,2.826,7.151.571,3.369,2.826,3.083-.714,2.812-2.541-5.2-2.4-4.482-3.811-11.648-2.826-13.475-2.826Z" transform="translate(680.938 325.484)" fill="#9bc622"/>
        <path id="bali" d="M406.762,189.995l-3.083,1.7,1.827,1.984,4.482-1.7-3.226-1.984Z" transform="translate(707.491 333.316)" fill="#9bc622"/>
        <path id="lombok" d="M406.729,189.634l.557,2.684,3.226.842,1.256-1.556-1.4-2.127-3.64.157Z" transform="translate(712.848 332.406)" fill="#9bc622"/>
        <path id="sumba" d="M412.032,192.1l-3.925.571,3.512,2.969h2.8l-2.384-3.54Z" transform="translate(715.268 337.009)" fill="#9bc622"/>
        <path id="flores" d="M410.471,191.123l-.842,1.7,6.309.985,4.91-2.826-2.8-.842-4.482,1.27-1.684-1.413-1.413,1.128Z" transform="translate(717.942 333.316)" fill="#9bc622"/>
        <path id="timor" d="M422.064,190.766l-7.294,6.081.7,1.556,3.083-.571,3.64-3.4,7.152-.985-1.4-2.4-5.881-.286Z" transform="translate(726.975 334.671)" fill="#9bc622"/>
        <path id="new_ireland" data-name="new ireland" d="M456.71,180.711l-1.256,1.784,6.866,6.081.942,3.569,1.87-.214.214-3.669-2.084-1.884-6.552-5.667Z" transform="translate(798.445 317.006)" fill="#9bc622"/>
        <path id="new_britain" data-name="new britain" d="M465.18,183.833l-1.356.314L463,187.816l-2.6,1.684-7.808,1.37.314,2.94,8.222-.414,5.21-3.255-.314-5.667-.842-.642Z" transform="translate(793.415 322.491)" fill="#9bc622"/>
        <path id="bougainville" d="M460.517,186.426l1.77,4.925,3.126,3.04.942-.842-.314-3.255L462.5,186l-1.984.428Z" transform="translate(807.341 326.293)" fill="#9bc622"/>
        <path id="choiseul" d="M463.65,188.814l.214,3.255,1.984,1.884,1.87-1.156-1.67-3.469-2.4-.514Z" transform="translate(812.845 331.242)" fill="#9bc622"/>
        <path id="new_georgia" data-name="new georgia" d="M465.621,191.745l-1.67,1.784,1.77,3.255,2.084.628-.1-2.2-2.084-3.469Z" transform="translate(813.372 336.39)" fill="#9bc622"/>
        <path id="santa_isabel" data-name="santa isabel" d="M466.032,191.062l1.456,3.569,2.812,3.354,1.556-2.512-2.084-3.569-3.74-.842Z" transform="translate(817.029 335.19)" fill="#9bc622"/>
        <path id="malaita" d="M468.678,193l.828,4.411,1.984,2.726,1.67-3.454L468.678,193Z" transform="translate(821.677 338.601)" fill="#9bc622"/>
        <path id="santa_ana" data-name="santa ana" d="M469.97,196.581l-.728,1.256,2.4,3.155,1.67.1-1.042-4.1-2.3-.414Z" transform="translate(822.669 344.886)" fill="#9bc622"/>
        <path id="rennell" d="M469.172,198.86l-2.5,1.156,2.184,3.04,1.87-1.056-1.556-3.14Z" transform="translate(818.157 348.889)" fill="#9bc622"/>
        <path id="espiritu_santo" data-name="espiritu santo" d="M477.951,205.679l-1.77,2.37.742,2.669.885.6,1.613-2.084-1.47-3.554Z" transform="translate(834.858 360.868)" fill="#9bc622"/>
        <path id="malakula" d="M477.144,208.505l.143,1.927,1.913.6,1.327-.742-1.327-2.084-2.056.3Z" transform="translate(836.55 365.308)" fill="#9bc622"/>
        <path id="efate" d="M478.723,214.559l-.885,1.342,1.327,1.485,2.213-.742-2.655-2.084Z" transform="translate(837.769 376.469)" fill="#9bc622"/>
        <path id="fiji" d="M492.41,213.482l-1.77,2.37-.143,2.669,2.055,2.084-.143-7.123Z" transform="translate(860.009 374.577)" fill="#9bc622"/>
        <path id="palawan" d="M414.3,154.06l-1.228,2.341-.685,2.883-6.823,8.664.414,1.784,2.869-.414,8.864-9.906L414.3,154.06Z" transform="translate(710.802 270.187)" fill="#9bc622"/>
        <path id="negros" d="M412.831,152.864l-.143,7.151,2.6,2.612.956,5.082,2.6.557,1.228-3.169-2.041-1.513-.542-8.936-4.653-1.784Z" transform="translate(723.318 268.086)" fill="#9bc622"/>
        <path id="cebu" d="M415.508,153.863l-.143,6.324,1.5,2.469,2.6-3.026-.685-5.5-3.269-.271Z" transform="translate(728.021 269.841)" fill="#9bc622"/>
        <path id="samar" d="M416.008,152.3l2.6,3.44,1.228,3.3h2.327l-.414-5.638-2.6-1.784-3.14.685Z" transform="translate(729.149 265.894)" fill="#9bc622"/>
        <path id="path7462" d="M425.755,156.556l.542,4.125-4.782,3.854-3.954.414-4.225,4.539.143,2.07,3.954-1.242,2.726-1.784,2.327,5.91,4.1,2.883,1.642-.557,1.5-1.784-3.269-3.3,1.913-1.513,2.184,1.784,1.5-2.469-1.5-3.026-.271-6.738-4.525-3.169Z" transform="translate(724.455 274.571)" fill="#9bc622"/>
        <path id="luzon" d="M412.384,141.343l-3.683,2.612-.414,8.251,5.738,11.134,1.913,1.513,2.455-1.656,4.225.685.814,3.711,3.14.271,1.5-2.055-1.913-2.612-2.327-2.2-4.91-.542-2.6-4.268,3-4.539.271-3.983-2.041-5.082-5.167-1.242Z" transform="translate(715.586 247.846)" fill="#9bc622"/>
        <path id="mindoro" d="M410.467,150.27l1.085,3.854,1.913,1.242,1.37-1.784-2.184-3.026-2.184-.285Z" transform="translate(719.416 263.528)" fill="#9bc622"/>
        <path id="hainan" d="M397.176,139.893l-3.412.956-2.455,3.026,2.041,3.983,3,.271,3.412-3.026.814-3.983-3.4-1.228Z" transform="translate(685.759 245.299)" fill="#9bc622"/>
        <path id="taiwan" d="M411.137,128.574l-5.053,3.854-.271,7.423,4.368,5.082,1.085-.956-.129-15.4Z" transform="translate(711.238 225.415)" fill="#9bc622"/>
        <path id="kyushu" d="M417.392,112.061l-2.327,2.341.956,3.3,2.041.143,1.37,7.151,1.642,1.784,2.869-2.612,1.228-4.682-3.554-5.082-4.225-2.341Z" transform="translate(727.493 196.406)" fill="#9bc622"/>
        <path id="shikoku" d="M423.077,110.368l-3.954,3.711-.143,4.268.956,1.242,5.324-4.539-.414-4.539-1.77-.143Z" transform="translate(734.37 193.432)" fill="#9bc622"/>
        <path id="honshu" d="M422.922,128.65l-6.966,7.979,1.228,1.927,3.412.414L427,134.017l4.511-.828,4.1,4.81,3.14-1.1,1.228-4.682,5.867-.143,5.738-6.88-3-11.419-1.37-6.052,3-2.469-6.823-10.306-1.77.143-3.683,4.125v3.44l1.642,1.927.542,9.078-4.225,5.224-2.455-1.513-1.913,4.268-.414,3.983,1.5,2.341-.956,1.784-3.14-2.612h-2.184l-1.913,1.1-1.5.414Z" transform="translate(729.058 166.343)" fill="#9bc622"/>
        <path id="hokkaido" d="M425.091,84.629l-2.184,1.927,1.1,4.125,1.913,1.927-.143,6.324-2.455.956-1.913,4.268,5.6,7.694,3.683-1.242.685-1.927-3.954-3.569,2.455-3.169,2.6.414,2.041,2.2.143-4.539,5.6-4.539,3.14-.828-2.6-4.4-1.228-1.927-2.041,1.37-1.77,2.2-3.825-.828-3.954-2.612-2.883-3.826Z" transform="translate(738.637 148.214)" fill="#9bc622"/>
        <path id="iturup" d="M432.654,83.08l-3.825,5.367.271,2.612,1.913-.828,4.5-5.638-2.855-1.513Z" transform="translate(751.672 145.494)" fill="#9bc622"/>
        <path id="urup" d="M432.922,81.111l-1.37,3.711.143,2.469,2.327-1.513,2.184-4.4V79.741l-3.283,1.37Z" transform="translate(756.456 139.627)" fill="#9bc622"/>
        <path id="paramushir" d="M436.1,68.365l-1.77,2.2L434.47,74l1.642-.143,2.726-4.81-2.741-.685Z" transform="translate(761.332 119.642)" fill="#9bc622"/>
        <path id="onekotan" d="M433.784,71.491v6.052l1.913.685,1.37-2.2V71.363l-3.283.128Z" transform="translate(760.377 124.909)" fill="#9bc622"/>
        <path id="sakhalin" d="M413.614,63.477l-.128,8.807,11.048,17.058,3.954,14.845,6.966,13.2,2.726.956,2.327-1.927,1.085-3.169-9.963-10.863.271-5.638,2.184-.956.542-3.3L415.113,64.861l-1.5-1.385Z" transform="translate(724.719 111.055)" fill="#9bc622"/>
        <path id="bering_island" data-name="bering island" d="M443.195,53.55l-2.726.271,1.641,2.341,3.412,2.341.956-1.1-3.283-3.854Z" transform="translate(772.12 93.618)" fill="#9bc622"/>
        <path id="medny" d="M443.384,54.151l.414,2.341,4.225,1.242.414-1.656-5.053-1.927Z" transform="translate(777.241 94.673)" fill="#9bc622"/>
        <path id="attu" d="M451.8,57.408l1.784,3.2,2.969-.2.6-2.2-5.353-.8Z" transform="translate(792.023 100.394)" fill="#9bc622"/>
        <path id="amchitka" d="M462.656,59.6,465.04,64l1.784-2V59l-4.168.6Z" transform="translate(811.098 103.196)" fill="#9bc622"/>
        <path id="adak" d="M472.207,54.146l-3.369,4.4.785,2,4.168-2.6.4-2.6-1.984-1.2Z" transform="translate(821.959 94.664)" fill="#9bc622"/>
        <path id="umnak" d="M478.062,49.149l-2.969,3.6,3.169,1.2-.2-4.8Z" transform="translate(832.947 85.886)" fill="#9bc622"/>
        <path id="unalaska" d="M478.947,46.974l-1.984,3.2.2,3.2,2.769-1.2-.985-5.2Z" transform="translate(836.231 82.065)" fill="#9bc622"/>
        <path id="st._lawrence_island" data-name="st. lawrence island" d="M458.985,19.878l-3.369,2.2-.8,2.8,1.584,1.8,3.569-1.2,3.569,1.2,1.984.6-.2-6.595-6.338-.8Z" transform="translate(797.326 34.464)" fill="#9bc622"/>
        <path id="st._lawrence_island_west" data-name="st. lawrence island west" d="M35.816,27.624l4.939,9.235,3.169-.714v-3.2l-8.108-5.324Z" transform="translate(61.249 48.072)" fill="#9bc622"/>
        <path id="alaska" d="M470.247,24.71l-6.024,10.806,11.534,7.294,12.918-10.834,7.851,13.09-8.193,1.684-3.24,8.393,18.143,24.58,10.92,1.813,15.745,3.1,1.941-5.71,5.5,2.113,1.042,23.909L528.2,121.889l4.91,1.071,12.818-27.007,3.9-20.212-7.908-3.7-1.27-27.121,6.1,1.185-.057,16.316,6.652,5.81,3.883-14.174-3.112-8.422,9.393,4.5L564.486.186l-108.142.2L450.12,5.168l.842,9.664,19.17,2.626L484.849,14.1l-5.281,9.878-9.321.728Z" transform="translate(789.076 -0.129)" fill="#9bc622"/>
        <path id="chukotka" d="M.606,78.146l20,2.241,3.34,6.909,15.93-9.335,26.664-3.726,1.856-13.8,13.332-4.853,8.707-8.208V58.562L99.327,70.7l18.514-11.748L108.948,48.87,97.842,18.836,84.5,3.52l-9.45-.742-.371,8.208L66.9,14.911l-2.412-4.853L69.108.166.791.351l-.186,77.8Z" transform="translate(-0.606 -0.166)" fill="#9bc622"/>
        <path id="wrangel-w" d="M44.18,1.719,38.628,6.758l1.67,3.726,2.969-2.056,1.67,1.87,5.538-2.041L50.29,5.088,44.18,1.719Z" transform="translate(66.189 2.563)" fill="#9bc622"/>
        <path id="unalaska_west" data-name="unalaska west" d="M25.868,57.092l-.243,4.3,3.083-.714V58.762l-2.841-1.67Z" transform="translate(43.348 99.84)" fill="#9bc622"/>
        <path id="umnak_west" data-name="umnak west" d="M27.924,57.786,21.758,60.9l.956,3.34,2.37-1.913,4.739-2.155-1.9-2.384Z" transform="translate(36.553 101.059)" fill="#9bc622"/>
        <path id="another_aleutian_west" data-name="another aleutian west" d="M17.875,59.866l-4.268-.956-.714,1.913.471,3.583,4.511-4.539Z" transform="translate(20.98 103.032)" fill="#9bc622"/>
        <path id="adak_west" data-name="adak west" d="M14.912,60.238l-4.04-1.67L9.445,61.194l2.612,2.626,2.855-3.583Z" transform="translate(14.922 102.432)" fill="#9bc622"/>
        <path id="amchitka_west" data-name="amchitka west" d="M8.773,59.46l-1.9-2.626-1.9.714V61.13l2.141,1.427,1.656-3.1Z" transform="translate(7.072 99.385)" fill="#9bc622"/>
        <path id="attu_west" data-name="attu west" d="M.761,51.629l2.37,1.67-.714,1.913H.761V51.629Z" transform="translate(-0.333 90.243)" fill="#9bc622"/>
        <path id="kerguelen" d="M322.6,258.7l-.214,6.124,8.479,1.97,1.955-5.039-3.04.871-3.911.871-1.085-4.6-2.184-.2Z" transform="translate(564.678 454.015)" fill="#9bc622"/>
        <path id="mauritius" d="M318.8,206.6l-2.17,2.841.428,3.069,4.568-3.726L318.8,206.6Z" transform="translate(554.563 362.479)" fill="#9bc622"/>
        <path id="reunion" d="M316.709,208.346l-3.255.214-.214,2.841,2.17.443,3.255-1.527-1.956-1.97Z" transform="translate(548.614 365.553)" fill="#9bc622"/>
        <path id="madagascar" d="M323.437,193.379,320.4,200.6l-5.21,9.193-9.121.657-3.911,4.6.657,14.017-5.653,6.566.657,11.163,4.782,5.467,5.653-.657,5.653-4.168-1.3-6.566,13.032-22.553-2.612-2.841,2.612-5.467,2.826.871.871-2.184-2.612-11.163-1.527-4.6-1.756.443Z" transform="translate(520.36 338.482)" fill="#9bc622"/>
        <path id="grande_comore" data-name="grande comore" d="M299.126,192.358l.657,2.184,2.826.443,1.085-2.841-4.568.214Z" transform="translate(523.817 337.091)" fill="#9bc622"/>
        <path id="mayotte" d="M300.622,194.229l1.085,2.412h1.741l.871-3.069-3.7.657Z" transform="translate(526.446 339.601)" fill="#9bc622"/>
        <path id="aldabra" d="M312.449,185.547l-.871,1.756,2.384,1.97,1.741-1.97-3.255-1.756Z" transform="translate(545.694 325.502)" fill="#9bc622"/>
        <path id="praslin" d="M317.976,180.783l-2.612,1.756,1.956,3.069h2.612l-1.956-4.825Z" transform="translate(552.343 317.133)" fill="#9bc622"/>
        <path id="mahe" d="M317.815,183.564l-1.741,1.97,1.3,1.97,2.384.442.214-4.168-2.155-.214Z" transform="translate(553.589 322.018)" fill="#9bc622"/>
        <path id="male" d="M339.881,166.088l.428,3.726,2.384.871.428-3.283-3.24-1.313Z" transform="translate(595.414 291.318)" fill="#9bc622"/>
        <path id="maldive" d="M341.121,168.947l-.214,4.6,1.741.871,1.527-3.069-3.055-2.4Z" transform="translate(597.216 296.339)" fill="#9bc622"/>
        <path id="gan" d="M342.118,172.2l-1.527,1.527,1.741,1.527,2.17-1.527-2.384-1.527Z" transform="translate(596.661 302.061)" fill="#9bc622"/>
        <path id="path151" d="M194.189,112.372l-1.941,1.956,3.483,1.956.385-2.726-1.927-1.185Z" transform="translate(336.059 196.952)" fill="#9bc622"/>
        <path id="terceira" d="M198.23,111.947,195.9,113.5l1.941,1.556,3.1-.785-2.712-2.327Z" transform="translate(342.481 196.206)" fill="#9bc622"/>
        <path id="pico" d="M198.043,113.931l-1.156,3.126,1.542,1.956,1.941-1.556-2.327-3.526Z" transform="translate(344.21 199.69)" fill="#9bc622"/>
        <path id="sao_miguel" data-name="sao miguel" d="M201.168,116.193l-.771,1.956,1.156,1.171,3.1-1.956-3.483-1.171Z" transform="translate(350.377 203.665)" fill="#01bdd6"/>
        <path id="madeira" d="M212.336,122.417l-1.542,1.956,1.542,1.956,2.327-1.171-2.327-2.741Z" transform="translate(368.642 214.599)" fill="#9bc622"/>
        <path id="lanzarote" d="M216.8,131.38l-2.5,1.442,1.156,1.171,1.342-2.612Z" transform="translate(374.801 230.345)" fill="#9bc622"/>
        <path id="gran_canaria" data-name="gran canaria" d="M214.032,131.479l-3.1.785,1.542,2.341H214.8l-.771-3.126Z" transform="translate(368.888 230.518)" fill="#9bc622"/>
        <path id="tenerife" d="M210.623,130.63l-1.941,1.956,2.712,2.341,1.542-3.511-2.312-.785Z" transform="translate(364.931 229.026)" fill="#9bc622"/>
        <path id="santo_antao" data-name="santo antao" d="M202.405,150.44,199.693,152l1.941,1.556,2.327-1.171-1.556-1.941Z" transform="translate(349.14 263.829)" fill="#9bc622"/>
        <path id="boa_vista" data-name="boa vista" d="M204.223,151.58l-1.77,1.57,1.256,2.327,3.026-1.356-2.512-2.541Z" transform="translate(353.988 265.83)" fill="#9bc622"/>
        <path id="santiago" d="M203.138,153.18l-2.27,1.356,2.441,3.269,1.927-1.013-2.1-3.611Z" transform="translate(351.205 268.641)" fill="#9bc622"/>
        <path id="kauai" d="M5.305,128.776l-.2,3.326,2.912,1.956L9.759,132.5l-4.454-3.726Z" transform="translate(7.299 225.77)" fill="#9bc622"/>
        <path id="oahu" d="M9.645,130.552l-2.712,1.956,2.327,2.926,2.712-2.341-2.327-2.541Z" transform="translate(10.51 228.89)" fill="#9bc622"/>
        <path id="kahului" d="M11.373,132.25l-2.327,3.126.771,1.956,3.3-1.556-1.741-3.526Z" transform="translate(14.221 231.873)" fill="#9bc622"/>
        <path id="hawaii" d="M12.157,134.446,10.8,142.254l1.356,2.926,4.454-1.37,2.327-3.911-4.853-4.5-1.927-.956Z" transform="translate(17.305 235.73)" fill="#9bc622"/>
        <path id="raiatea" d="M15.966,208.633l-2.712-.2-.2,2.541,2.127,1.37,2.527-1.556-1.741-2.155Z" transform="translate(21.262 365.708)" fill="#9bc622"/>
        <path id="tahiti" d="M19.96,209.5l-3.883,2.541,2.912,3.511,2.527-.585,1.356-1.756L19.96,209.5Z" transform="translate(26.574 367.582)" fill="#9bc622"/>
        <path id="guadeloupe" d="M144.587,146.728l-2.141.885.757,1.9,2.512-1.642-.5-.514-.628-.628Z" transform="translate(248.571 257.307)" fill="#9bc622"/>
        <path id="dominica" d="M145.3,147.51l-1.256,2.669,1.513,2.027,1.884-1.642L145.3,147.51Z" transform="translate(251.381 258.68)" fill="#9bc622"/>
        <path id="martinique" d="M147.019,150.176l-1.513,1.4,1.128,2.284,2.141-.628-1.756-3.055Z" transform="translate(253.947 263.365)" fill="#9bc622"/>
        <path id="st._lucia" data-name="st. lucia" d="M146.654,152.248l-1.013,2.155,1.642,1.77,2.141-1.142-2.769-2.784Z" transform="translate(254.183 267.003)" fill="#9bc622"/>
        <path id="st._vincent" data-name="st. vincent" d="M147.174,154.226l-1.756,1.27,1.385,2.541,2.27-1.27-1.9-2.541Z" transform="translate(253.792 270.478)" fill="#9bc622"/>
        <path id="grenada" d="M146.324,156.017l-1.642,1.642.628,1.013h2.013l.628-1.656-1.627-1Z" transform="translate(252.5 273.625)" fill="#9bc622"/>
        <path id="trinidad" d="M148.153,157.814l-1.513,1.4L145,159.47V161.5l3.026,2.783,1.256-2.027.757-2.284-.257-1.9-1.627-.257Z" transform="translate(253.055 276.782)" fill="#9bc622"/>
        <path id="puerto_rico" data-name="puerto rico" d="M144.678,146.341l-3.768-1.27-3.026,1.9,1.513,1.77,5.153.757.128-3.155Z" transform="translate(240.557 254.396)" fill="#9bc622"/>
        <path id="haiti-dominican_border" data-name="haiti-dominican border" d="M133.274,142.591l-2.384,2.441,2.726,1.113.4,3.412-6.038.528.614,3.283,1.756.128,1.013-1.513,7.052.228,1.27,2.441,1.627-1.913,4.753-1.285,4.182.885.485-2.527-7.537-4.925-4.882-1.827-5.039-.471Z" transform="translate(223.155 250.039)" fill="#9bc622"/>
        <path id="domincan_republic" data-name="domincan republic" d="M144.087,149.131l-7.551-4.939-3.569-1.213-1.2,8.565,1.256,2.412,1.642-1.9,4.782-1.27,4.154.885.485-2.541Z" transform="translate(229.814 250.721)" fill="#9bc622"/>
        <path id="haiti" d="M133.26,142.591l4.91.514-.585,6.024L137.1,152.3l-5.724-.314-1.014,1.527-1.756-.128-.628-3.3,6.038-.5-.371-3.426-2.769-1.142,2.384-2.427Z" transform="translate(223.155 250.039)" fill="#9bc622"/>
        <path id="falklands_west" data-name="falklands west" d="M164.231,263.4l-3.754-.414-3.74,2.512,2.712,2.94,4.782-5.039Z" transform="translate(273.677 461.538)" fill="#9bc622"/>
        <path id="falklands_east" data-name="falklands east" d="M163.859,262.45l-1.242,3.983-3.54,3.14.214,1.042,6.038-2.312,2.5-3.14-3.968-2.712Z" transform="translate(277.788 460.601)" fill="#9bc622"/>
        <path id="iceland" d="M216.661,61.752l-2.8-1.584-3.768,2.384-3.24,3,.086,1.67,4.2.528-.257,3-1.485,1.5.357.971,4.2.271v4.853l6.038,1.056,3.583,2.027,4.025.171,6.909-3.44,5.339-7.052.086-4.768-3.24-2.741-2.712-2.3-1.228.885-1.841,2.384-2.1-.271-2.1-2.3L224,62.252l-3.94,3.269-2.37,2.555-1.313-1.142-.086-2.826,1.313-.885-.942-1.47Z" transform="translate(361.72 105.243)" fill="#9bc622"/>
        <path id="spitsbergen" d="M264.726,29.45l-2.355-2.37-5.224,2.541h-9.592l-1.513,5.6,5.381,4.753,2.355-.343,3.369-5.767L260,35.9l-2.027,4.068-1.013,5.938,2.355,3.726,5.053-8.479,6.566-7.979-2.526-2.2-3.683-1.527Z" transform="translate(430.561 47.117)" fill="#9bc622"/>
        <path id="nordaustlandet" d="M256.538,24.348l-4.211,3.9,2.527,3.9h4.539l1.856,2.541,5.553,2.883,6.395-3.726,4.382-3.726-1.513-3.055-4.382-2.541-3.2,2.883L266.3,24.691l-1.684.171-2.184,4.753-3.2-3.226-.343-2.2-2.355.157Z" transform="translate(441.604 42.041)" fill="#9bc622"/>
        <path id="edgeoya" d="M261.3,30.586l-3.369,3.055-2.855,2.2,1.342,2.37,2.7.842L263.5,37.01l2.027-2.541-1.856-3.055-2.37-.828Z" transform="translate(446.434 53.275)" fill="#9bc622"/>
        <path id="prince_george" data-name="prince george" d="M289.453,20.085l2.455.985-1.727,2.969V28.25L286.5,30.477h-3.925l-2.212-2.726.243-2.969,1.727-2.227h3.44l3.683-2.469Z" transform="translate(490.852 34.828)" fill="#9bc622"/>
        <path id="salisbury" d="M287.045,19.888v2.969l2.455,1.984,3.44-.243,2.955-2.726V19.888h-2.7l-2.212.742-1.727-1.984-2.212,1.242Z" transform="translate(502.595 32.299)" fill="#9bc622"/>
        <path id="wilczek" d="M292.13,19.981l1.727,3.711,3.44.243,2.455-.985-1.228-3.469-3.2-.742-3.2,1.242Z" transform="translate(511.528 32.463)" fill="#9bc622"/>
        <path id="bell" d="M300.494,17.711l-2.7-.5L295.34,19.7l1.228,2.227.742,3.469,3.2-2.469.742-2.726-.757-2.484Z" transform="translate(517.168 29.779)" fill="#9bc622"/>
        <path id="novaya_zemlya_north" data-name="novaya zemlya north" d="M321.767,26.915l-.742,3.469-5.653,4.953-12.048,2.726L293.49,54.407l-1.727,4.711L301.6,61.6l1.47-5.938,2.955-9.164,7.622-3.968,6.395-4.953,4.668-1.984h2.455v-6.68l-5.4-2Z" transform="translate(510.882 46.826)" fill="#9bc622"/>
        <path id="novaya_zemlya_south" data-name="novaya zemlya south" d="M293.812,40.031l6.638.742,2.213,7.68,5.653,5.938-1.97,3.968H302.9l-3.2-3.711-7.123-.243-2.955-3.968V47.71l4.425-1.242-.243-6.438Z" transform="translate(507.134 69.867)" fill="#9bc622"/>
        <path id="komsomolets" d="M338.326,10.662l-3.2-1.984h-3.683l-.742,2.227-3.925,2.227-2.955.985-.485,2.969,6.88.5,8.108-6.923Z" transform="translate(566.352 14.789)" fill="#9bc622"/>
        <path id="october" d="M339.212,9.667l-1.727,3.711-3.44-.243-5.41,3.968-1.47,4.953h3.44l1.97-3.226,4.668,3.469,4.425-1.984,3.2-2.726-1.227-4.211L341.91,10.41l-2.7-.742Z" transform="translate(573.074 16.526)" fill="#9bc622"/>
        <path id="bolshevik" d="M334.123,10.656l1.727,6.937,2.7,6.438,2.955-5.2,5.653-1.242V13.882l-3.683-2.726-9.35-.5Z" transform="translate(585.299 18.264)" fill="#9bc622"/>
        <path id="kotelny" d="M396,10.639l3.84,3.226,2.726-1.128.8-4.525-5.6-3.868-3.683,2.427-8.964.814v4.04l-9.45.157V18.39l11.048,8.222,2.883-2.1-.642-5.81,7.052-1.77-1.442-2.741-2.555-2.584L396,10.639Z" transform="translate(658.288 7.175)" fill="#9bc622"/>
        <path id="novaya_sibir" data-name="novaya sibir" d="M386.763,7.8l2.555,4.839,9.935-1.128,2.726-3.554-.642-3.069L398.61,3.759,396.055,5.7,388.69,7.314l-1.927.485Z" transform="translate(677.773 6.147)" fill="#9bc622"/>
        <path id="lyakhovsky" d="M392.342,12.888,387.375,11.6l-2.869,3.069-1.285,4.2,6.723-.642,5.125-2.584-2.727-2.755Z" transform="translate(671.551 19.928)" fill="#9bc622"/>
        <path id="wrangel" d="M440.47,2.766,436.3,1.481l-4.8,1.77-2.4,3.554,3.04,4.04,8.008-3.554,1.6-1.77L440.47,2.766Z" transform="translate(752.163 2.145)" fill="#9bc622"/>
        <path id="sri_lanka" data-name="sri lanka" d="M353.263,160.162l.357,3.883.357,2.826-2.1.357,1.056,6.352,3.155,1.77,4.9-2.826-1.4-6.695.357-2.47-4.553-4.225-2.127,1.028Z" transform="translate(616.491 279.101)" fill="#9bc622"/>
        <path id="cuba" d="M114.355,140.33v1.813l7.594.143,3.583-2.084.557,1.527,7.451,1.813,6.623,5.981-1.513,2.084.271,2.37,5.524,1.385,5.524-2.5,2.484-2.5-3.583-1.813L130.385,137.7,123.9,137l-9.55,3.326Z" transform="translate(199.223 240.224)" fill="#9bc622"/>
        <path id="bimini" d="M125.306,134.531l-1.8-.557-.143,3.469,2.213,2.227,1.513-2.227-1.784-2.912Z" transform="translate(215.051 234.902)" fill="#9bc622"/>
        <path id="andros" d="M126.952,136.144l-2.484,1.385,2.341,3.34,1.242-1.67-1.1-3.055Z" transform="translate(216.988 238.714)" fill="#9bc622"/>
        <path id="inagua" d="M129.947,137.141,127.321,137l.271,1.67,1.927,2.784,1.656-1.813-1.228-2.5Z" transform="translate(222 240.215)" fill="#9bc622"/>
        <path id="eleuthera" d="M131.08,140.192l-4.282-1.813-.828-4.311,1.656-.7,1.656,3.34,1.656,1.256.143,2.227Z" transform="translate(219.626 233.838)" fill="#9bc622"/>
        <path id="grand_bahama" data-name="grand bahama" d="M129.487,136.294l-2.213-.557-.414-2.783-2.341-.828,1.513-1.527,2.755.971,2.07,1.256-1.37,3.469Z" transform="translate(217.079 228.971)" fill="#9bc622"/>
        <path id="jamaica" d="M126.883,144.771l-4.967,1.256v1.385l2.9,1.67h3.04l1.927-2.227-2.9-2.084Z" transform="translate(212.504 253.868)" fill="#9bc622"/>
        <path id="irian_jaya" data-name="irian jaya" d="M437,175.709l-5.952.671-3.826,2.8,1.585,3.2,6.48,1.2v1.2l-4.1,3.326,1.984,6.923,1.984.128,1.713-6.795h3.169l1.328,6.652,15.459,12.79.4,9.992,5.281,5.724,2.384-.128.528-35.286-8.978-6.252-8.465,5.724-3.04,1.87-5.025-3.2-.129-10.12L437,175.709Z" transform="translate(748.852 308.219)" fill="#9bc622"/>
        <path id="alaska-westcopy" d="M82.569,40.227,70.593,43.067l2.469,13.489,13.032,3.554.7,2.841L67.424,68.99,56.5,87.089l3.868,19.17,6.338,4.254,4.939-4.611,1.413,2.841-6,7.094L43.814,126.486l-14.8,3.554-.357,5.324,34.173-9.935,14.089-3.911,13.032-15.973,14.446-9.578L97,108.387l8.108,1.071,13.746-6.038,2.469,9.935,9.507,2.127,9.864,9.578.7,7.094-1.413,1.77,1.756,6.737h2.469l.357-11.362h2.812l.7,28.035,7.052-6.038-4.939-29.105h-7.394L134.684,111.9,174.5,44.452,135.041,13.577,91.005,22.1,89.249,35.588l9.507,5.681L95.23,50.5,82.569,40.227Z" transform="translate(48.669 23.394)" fill="#9bc622"/>
        <path id="galapagos" d="M102.565,175.108l-.885,3.925-1.642,1.656,1.128,2.027,2.9-1.142,1.385-2.412-.885-2.541-2-1.513Z" transform="translate(174.071 307.164)" fill="#9bc622"/>
        <path id="banks" d="M112.549,19l.314,5.738-11.391,11.8,2.855,9.564,8.222-2.227,4.753-7.023,12.019-4.468,9.806-.642-7.594-8.293-3.8,2.869-2.855-.956L123.3,21.857l-3.483-3.511L112.549,19Z" transform="translate(176.591 31.772)" fill="#9bc622"/>
        <path id="prince_patrick" data-name="prince patrick" d="M112.5,15.082,109.97,19.55l12.347,4.468,4.425-6.695,1.9,4.468h3.169l6.009-6.695-7.28-1.913-2.855-2.227-3.8,3.826-11.391.3Z" transform="translate(191.518 18.791)" fill="#9bc622"/>
        <path id="eglinton" d="M124.944,15.694l-9.806,4.14v3.183L127.8,27.8l-2.855,3.183,1.9,4.14,7.908-3.511H141.4l3.169,5.1,5.381-5.424-1.27-5.11-4.425,1.6-.628-6.381,2.213-3.826h-2.213l-3.483,2.227-1.584,1.27.956,4.468-2.527,1.913-3.8-.314-.956-5.738-7.294-5.7Z" transform="translate(200.596 27.114)" fill="#9bc622"/>
        <path id="mackenzie_king" data-name="mackenzie king" d="M124.011,12.106l-.956,3.183,6.01,2.869,4.425-2.555-.314-1.913-9.164-1.584Z" transform="translate(214.505 20.81)" fill="#9bc622"/>
        <path id="king_christian" data-name="king christian" d="M127.94,10.138l-4.425,1.6.314,2.227,9.806-.642-.314-2.227-5.381-.956Z" transform="translate(215.314 17.354)" fill="#9bc622"/>
        <path id="ellef_ringnes" data-name="ellef ringnes" d="M134.225,12.324l-.628,2.227-1.584,2.227v3.183L138.022,19l6.324,5.424h2.213V19l-6.324-7.023-6.01.343Z" transform="translate(230.241 20.592)" fill="#9bc622"/>
        <path id="amund_ringnes" data-name="amund ringnes" d="M138.671,14.83,141.2,17.7l-2.213,3.826,1.584,4.14,6.966-3.826V18.97l-4.111-4.782-4.753.642Z" transform="translate(241.939 24.467)" fill="#9bc622"/>
        <path id="axel_heiberg" data-name="axel heiberg" d="M142,16.653l.314,5.1h8.55l2.213,1.913-.314,2.227-7.594.956,5.381,7.337,7.28,1.27,10.12-4.468L153.391,8.973l-4.425,2.869.314,3.826-5.067-1.913L142,16.653Z" transform="translate(247.788 15.307)" fill="#9bc622"/>
        <path id="victoria" d="M128.159,24.833,116.14,28.017l-6.966,6.067.628,6.695L122.463,44.6l-2.855,6.381-9.178-5.738L107.9,50.028l6.01,4.14-.314,6.695,9.178,2.555,11.077-.642,1.9-3.511,8.222,9.25,5.7-1.913.956-6.381,4.111,2.869.628-6.381L150.3,53.525l.314-20.084-4.425-3.511-4.739,6.381L128.159,24.833Z" transform="translate(187.889 43.169)" fill="#9bc622"/>
        <path id="prince_of_wales" data-name="prince of wales" d="M133.287,33.38l-4.111-1.913-2.213,2.869,4.425,7.023.314,6.695,9.492-5.738V34.022l3.483-3.511L141.2,27.956h-5.7l-2.212,5.424Z" transform="translate(221.372 48.654)" fill="#9bc622"/>
        <path id="prescott" d="M140.844,28.883l-6.652,5.424L135.776,41h4.111l1.9-3.511,2.855,2.869,2.855-.314,7.594-6.381-14.246-4.782Z" transform="translate(234.071 50.283)" fill="#9bc622"/>
        <path id="cornwallis" d="M137.382,25.061,135.8,28.244l6.966,2.555,1.9-2.869-7.28-2.869Z" transform="translate(236.891 43.57)" fill="#9bc622"/>
        <path id="bathurst" d="M141.939,20.665l-6.966.956-4.111,3.826,7.594.314L136.244,31.5l1.584,2.555,2.212-.314,5.381-8.607-3.483-4.468Z" transform="translate(228.222 35.847)" fill="#9bc622"/>
        <path id="devon" d="M141.665,19.857l-3.8,1.27.628,5.1,6.324,4.14.314,3.183-1.9,1.913.956,6.381L168.558,49.8l6.652,2.227,6.652-5.738-7.908-6.381-7.28,1.913-10.12-.956-3.8-3.826-.956-10.52-6.324-3.183-3.811-3.483Z" transform="translate(240.529 34.428)" fill="#9bc622"/>
        <path id="baffin" d="M158.973,32.3l-6.966-.642-8.222,3.183-4.425,6.052,1.27,16.587,13.6.642L167.209,64.5l9.178,10.52,6.966-.314-1.9,9.878-6.323,10.52-6.966,3.183-5.067-.956-2.527-2.227-3.8,5.1,1.584,5.1,5.381.314,6.652-3.183,5.7,14.674,14.246,9.25,9.806-12.433-8.222-13.389,4.753-5.424,6.652,11.163,12.019-10.52-2.212-4.782-8.222,2.555-5.7-15.63,5.381-8.921L193.83,57.495l-6.009,4.14-5.7-12.433-12.019,1.6-3.169-14.988-9.806,6.695-.956,8.293h-5.381l.628-7.337L158.973,32.3Z" transform="translate(243.149 55.158)" fill="#9bc622"/>
        <path id="bylot" d="M153.252,33.973l-2.527,2.555,2.212,3.511,10.449,1.27-6.652-7.023-3.483-.314Z" transform="translate(263.116 59.224)" fill="#9bc622"/>
        <path id="ellesmere" d="M152.41,42.247v2.869l-6.966,1.6,1.9,3.183,7.908,3.183,8.864.956,6.324,4.468,6.324-3.511-4.425-4.468h5.7l3.483-3.826,8.55-1.27V43.518l-4.753-3.183.628-3.511,13.289,2.227L218.856,31.4l-7.28-2.227,1.9-2.555h15.188l2.527-2.555-30.7-10.848-7.28-2.555L185.3,16.4,176.433,9.06l-4.753-.314-.956,6.067-6.009-5.424-6.966,2.227,1.27,3.511,10.449,2.227-.628,5.1,5.7,3.511,13.932-3.511.314,4.782L177.39,32.655l-6.966-5.424-6.323.642,6.323,8.936-3.169,1.6-4.753-4.14-3.483,2.227,3.169,6.052h5.381l-1.27,5.738-4.425-.642-5.7-6.067-3.768.671Z" transform="translate(253.837 14.907)" fill="#9bc622"/>
        <path id="southhampton" d="M141.823,52.738l-6.038,7.594-.371,8.365,5.282-3.04H147.1l4.525,4.182,4.154-3.426-13.96-13.675Z" transform="translate(236.218 92.19)" fill="#9bc622"/>
        <path id="newfoundland" d="M174.025,88.569l-15.088,14.446,1.513,3.426,18.471,6.837,2.641-4.554-1.513-7.594-6.038.757-3.4-3.8,5.653-5.7-2.241-3.825Z" transform="translate(277.542 155.136)" fill="#9bc622"/>
        <path id="canada" d="M106.813,25.2l2.841,4.3,1.427,5.738,7.109,1.784,4.982-5.367L127.44,33.8l12.09,1.071,8.536-3.583,1.427,11.819h4.982V38.1l4.982.357L171.9,53.145l8.179,5.01-4.268,6.809,1.784,1.784,15.973,3.226.357,7.166,4.268.714,1.071-10.749,6.752-1.784L211,72.844l10.663,5.01L227,78.924l3.554-4.3.357-6.809,6.395-3.94,2.127,5.738-5.7,10.035.714,5.01,3.2-5.01,6.395-5.738.357-7.523-3.554-5.738L241.92,56l8.536-4.3,3.911,2.869.714,25.08,6.038-5.367,3.554,2.155-4.982,8.593,6.395,1.427,9.25-14.331,7.822,8.236-3.2,14.688-7.822,4.3-7.465-3.583-13.5,2.869,1.427,4.653-3.554,5.738-11.02,2.512-12.447,9.678-11.02,14.688-1.427,4.653,7.465,2.869,2.841,7.166,10.306,10.392,16.358,7.166-3.554,16.473-.357,4.653,4.268,2.869,5.7-7.523.714-14.331,8.893-.357,4.268-8.236.714-12.533,11.377-22.211,14.217,5.01L303.8,142.36l-3.2,10.392,5.7,3.226,13.86-9.321,3.911,25.437,12.8,15.4.357,7.879-14.217,3.583-6.752,7.166L302.043,202.9l-7.109-.357-12.447,9.678,7.465-1.784,9.25-1.784,1.784,2.155-2.484,7.879.357,7.166,4.268,2.869,4.268-1.071,2.141-3.226h2.841l-4.625,8.593-8.893.357-3.911,5.738h-4.982l-1.427-4.3,7.109-7.166-8.536,2.869-.385-12.176-2.455-1.427-7.466,3.226-.714,6.1H259.02L244.446,236.27l-19.556,6.452-2.127-2.869,9.849-14.7-5.6-5.381-3.554-6.823-7.237-5.524-7.765-.642-13.917-9.749L93.61,180.443l-1.67-6.837-9.25-8.593v-7.166l1.427-6.452-.714-3.583-3.554-3.583-.714-5.738,9.25-6.452-5.7-30.8-7.822-.357-7.109-9.321L106.813,25.2Z" transform="translate(117.365 43.806)" fill="#9bc622"/>
        <path id="usa" d="M94.711,81.988l-1.427,5.738L88.3,84.5H85.818L84.39,90.6,66.961,129.65l4.625,34.03,5.7,2.869,1.071,9.321H90.086l11.377,8.593,22.4,2.155,2.484,11.462,3.554,2.512,4.982-5.01,3.911,1.784,3.554,16.473,6.038,3.94,4.982-9.321,15.288-11.105,9.949,4.653,8.536.714.357-5.367,17.772.357,3.554,3.94.714,8.95-2.127,5.01,2.484,8.593h5.339l5.339-8.236-2.127-3.94-2.127-8.593,3.2-9.678,14.574-12.533L245.1,178l-1.427-10.392,15.288-16.487,15.288-2.512-2.484-8.579,14.931-8.593V119.972l-1.427-.714-5.339,1.784-.714,7.023-17.743.214-13.9,9.235-21.825,7.137-3.483-4.268,9.906-14.988-4.9-4.668-3.326-6.338-6.894-5.538-7.494-.628L195.4,98.56,94.711,81.988Z" transform="translate(115.964 143.575)" fill="#9bc622"/>
        <path id="haida_gwaii" data-name="haida gwaii" d="M70.843,66.49l-2.427,4.653.842,3.3,1.584.985-.371,1.342-1.7.485.485,4.9,1.827,1.841,1.456-1.584-1.827-4.768,1.085-3.8,2.669-3.554-1.941-3.3-1.684-.5Z" transform="translate(118.52 116.349)" fill="#9bc622"/>
        <path id="vancouver" d="M73.6,76.608l-2.184.856,4.011,4.653.971,5.51,4.011,4.282,3.4-.614V85.672L79.679,83.1,73.6,76.608Z" transform="translate(123.787 134.124)" fill="#9bc622"/>
        <path id="guatemala" d="M100.908,160.026l8.465,6.2,8.536-10.606-1.456-2.2-2.912-.1v-6.209l-2.184-1.327-6.609,1.97,2.527,5.824-6.366,6.452Z" transform="translate(175.6 255.642)" fill="#9bc622"/>
        <path id="honduras" d="M110.234,149.848l13.189-.5L127.334,154l-2.441-.557-4.7.2-6.138,5.767-2.626,5.838-1.727-.914-.014-6.395-3.8-2.541,4.339-5.553Z" transform="translate(184.359 261.909)" fill="#9bc622"/>
        <path id="el_salvador" data-name="el salvador" d="M104.414,155.991l6.709,3.34-.1-5.3-3.44-2.1-3.169,4.054Z" transform="translate(181.758 266.457)" fill="#9bc622"/>
        <path id="nicaragua" d="M120.65,151.253l3.126.628.1,6.409-3.64,10.392-9.806-.971-2.184-5.01,2.912-6.081,5.524-5.139,3.968-.228Z" transform="translate(188.489 265.257)" fill="#9bc622"/>
        <path id="costa_rica" data-name="costa rica" d="M118.6,158.39l1.984,3.883,1.613,2.141-2.17,6.438-4.14-2.912-6.766-6.2v-4.1l9.478.742Z" transform="translate(190.026 276.491)" fill="#9bc622"/>
        <path id="panama" d="M115.549,161.989l-2.084,6.509,6.88,1.784,4.268.842.728-5.039,4.582-2.312,4.068,2.1,1.6,2.555,1.941-.228,1.527-4.639-5.082-2.1-3.854-2.1-3.854,2.626-4.582,2.312L117,162.417l-1.456-.428Z" transform="translate(197.658 279.502)" fill="#9bc622"/>
        <path id="colombia" d="M152.211,155.416l-2.94-.3-19.442,16.03-2.056,5.638-2.655.3,1.185,12.461-6.78,16.63,7.366,6.238,9.435.6,6.481,9.507,9.421.3-.3,7.123h3.526l3.826-13.061-3.54-4.454.885-8.308,7.366-.6-.885-19.3-16.5-5.339-3.825-10.392,9.435-13.075Z" transform="translate(208.301 272.043)" fill="#9bc622"/>
        <path id="venezuela" d="M131.67,162.679l.628,3.7,4.639,1.47,1.056-6.809,4.9-5.067,4.9,5.738,11.262,3.069,9.535-2,6.495,8.008,4.9,3.069-5.367,8.179,1.8,6.2-3.069,3.8-3.183,2.669-6.895-3.469-1.584,1.6v4.939l5.039,2.4L163,204.175l-3.711,4.011-4.9-.4-4.925-5.41-1.042-20.355-16.815-5.738-3.055-8.95,3.112-4.653Z" transform="translate(224.174 273.544)" fill="#9bc622"/>
        <path id="guyana" d="M150.809,162.655l10.306,9.335-4.1,4.739-.328,2.812,5.381,5.553-.128,5.339L152.579,194l-5.61-7.58,1.2-9.107-2.4-6.78,5.039-7.879Z" transform="translate(254.41 285.287)" fill="#9bc622"/>
        <path id="suriname" d="M154.392,166.367l2.912,2.669,4.511-2.8,4.111.128-.528,1.6-1.727,3.6-.271,8.95-8.208,3.34.4-5.738-5.3-4.939.271-2.541,3.826-4.268Z" transform="translate(262.361 291.582)" fill="#9bc622"/>
        <path id="guyane" d="M157.87,166.627l8.35,5.21-4.368,8.679-1.584,2-4.639-2.669.128-9.35,2.113-3.868Z" transform="translate(271.73 292.264)" fill="#9bc622"/>
        <path id="ecuador" d="M124.673,173.9l-6.752,4.2-.485,6.224-1.356,2.041,4.254,4.082-1.841,2.013.428,5.139,7.608,1.813,11.519-13.632-.029-4.753-5.524-.357-7.822-6.766Z" transform="translate(202.252 305.044)" fill="#9bc622"/>
        <path id="peru" d="M118.284,188.794l-2.769,2.8.186,4.468,24.181,44.079,25.109,16.187,3.883-6.509L169.8,235.5l-2.027-8.921-6.837-11.534-4.068,1.3-1.841,2.041-8.122-9.307,2.027-10.977,9.421-6.138-.742-5.767-9.592-.371-4.982-8.365-2.769-.928.186,5.025-12.362,14.688-9.235-2.227-.571-5.224Z" transform="translate(201.26 309.665)" fill="#9bc622"/>
        <path id="bolivia" d="M133.959,196.295l11.748-5.124,3.883.371,2.584,10.791,17.9,5.952,2.955,9.121,7.38.928,3.14,7.808-2.213,7.066-12,.928-4.425,11.348-9.421-.186-2.955-.557-5.439,5.282-2.684-.257-9.236-21.4,2.555-3.825.9-15.131-2.284-9.007-2.384-4.111Z" transform="translate(233.662 335.381)" fill="#9bc622"/>
        <path id="paraguay" d="M160.6,206.865l3.14,3.426-.371,7.251,9.05-.557,6.837,8.75-.557,7.808-4.425,6.695-9.05.371-.371-3.726,2.584-6.138-8.864-5.581h-7.38l-5.538-5.952,4.025-11.505,10.92-.842Z" transform="translate(254.201 362.952)" fill="#9bc622"/>
        <path id="uruguay" d="M157.39,223.652l-2.926,3.126,1.213,16.815,9.193,2.669,11.691-11.719-19.17-10.891Z" transform="translate(269.683 392.442)" fill="#9bc622"/>
        <path id="argentina" d="M196.667,226.066l2.769,2.6-10.52,15.63-3.7,4.1,1.285,17.857,8.122,9.864-6.823,11.9-5.167,2.227h-5.91l1.656,9.293-9.235,3.169,2.212,7.808-5.538,17.672,6.837,5.581-3.7,9.107-6.281,9.864,3.326,6.88-8.122,1.3-6.652-8.179-1.113-25.48-10.335-43.28,3.126-15.131L136.258,249.5l4.425-25.109,4.068-4.839-1-3.668,5.224-4.768,11.648.8,6.509,6.952,7.523.128,7.708,4.711-2.27,5.31.542,5.367,10.92-.514,5.11-7.808Z" transform="translate(237.7 370.429)" fill="#9bc622"/>
        <path id="tierra_del_fuego_chile" data-name="tierra del fuego chile" d="M151.477,266.2l-6.1,13.389L155.9,280.7l.186-8.921-4.611-5.581Z" transform="translate(253.728 467.187)" fill="#9bc622"/>
        <path id="tierra_del_fuego_argentina" data-name="tierra del fuego argentina" d="M149.6,268.627l.371,8.179,6.281-.557,5.353-3.54-9.05-1.856-2.955-2.227Z" transform="translate(261.142 471.453)" fill="#9bc622"/>
        <path id="chile" d="M169.928,371.347l-4.582,5.068-.557,5.952-8.864-5.025L146.5,363.767l-2.769-4.839,3.883-5.025-.371-6.323-4.425-1.856-3.511-2.6.742-3.54,4.611-1.3.928-20.455-7.194-4.1-4.7-106.472,1.213-2.113,9.193,21.2,2.94.057.956,3.383-3.911,4.739-4.5,25.508,6.395,19.641-2.955,14.874,10.42,43.737,1.1,25.58,7.465,8.636,7.908-1.156Z" transform="translate(233.207 359.941)" fill="#9bc622"/>
        <path id="chiloe" d="M136.981,246.026l-1.841,2.784.928,4.839,1.841.186.928-6.138-1.856-1.67Z" transform="translate(235.736 431.747)" fill="#9bc622"/>
        <path id="brazil" d="M224.84,330.706l8.921-17.158.328-14.417L250.734,288.4h9.321l7.323-12.4,1.328-23.81-3-6.366,17.643-16.1.671-17.772L260.055,200.21l-28.948-9.05-13.646-1.342,3.669-7.708-1-11.733-2.983-.985-4.411,8.764-2.312,2.9-5.938-2.626-19.97,7.037-6.652-8.379,1.071-8.75-6.281,6.395-6.937-3.74-.7.985.014,3.04,5.981,3.212-8.979,9.464-5.667-.057-5.738-5.838-6.495.2-.8,6.937,3.726,4.525-4.4,14.089-5.139.4-8.179,5.167-2,10.149,7.094,7.594,1.3-1.47,4.982-1.342,4.254,7.166,12.176-5.224,4.725.271,3.255,11.519,17.372,5.51,3,9.193,7.394.885,3.526,8.779-2.384,7.808,3.112,4.082-.457,6.081,8.336-.785,7.637,9.649-.6,6.78,4.525,3.826-10.849,16.43,19.1,10.691Z" transform="translate(222.046 295.266)" fill="#9bc622"/>
        <path id="belize" d="M105.966,147.763l-.071,5.21h1.2l4.082-7.622h-2.769l-2.441,2.412Z" transform="translate(184.359 254.887)" fill="#9bc622"/>
        <path id="russia" d="M698.47,89.8l2.512,8.679,5.025,1.442,5.025-7.951-2.869-5.424,1.071-4.7h7.537l-1.8,3.611.714,13.018-10.763,26.75,1.071,5.781-.357,9.764,20.084,29.277,3.94,1.085.357-23.852,3.94-3.611-4.311-9.393,3.583-3.983-7.894-10.477-4.311.357L719.6,102.836l11.12-2.9.714-5.067,5.738-1.442,3.226,2.9,3.94-15.9,6.809-11.562,5.382-2.9,4.668.357V60.9l-7.537-1.442-10.406-8.679L748.273,45l-4.311-9.764,3.583-3.611,4.311,5.781,10.763,3.983,11.833,1.085,1.442-5.053-6.1-6.138,6.809-9.392-15.43-5.424-3.94,7.951L752.213,17.9,723.878,8.14l-26.907,4.7-3.94,2.17v2.17l5.738,2.9-.714,6.866L687.65,22.6,664.7,31.635l-3.94-8.308H644.97l-7.18,7.594L612.325,25.14l-23.31,4.7-2.869,7.223,3.583,1.085-.357,5.424-22.6,2.527,1.442,7.223L547.4,49.707l5.025-9.392-21.169-1.085,1.8,9.764-6.809,3.255-5.738-5.424L497.2,50.806l-8.964,8.308-.357,5.053-5.738.357-.714-5.781,18.3-15.9V31.992L487.9,28.738l-15.431,5.053-6.452-6.509h-2.869L459.561,34.5l2.869,3.255L441.975,48.964,424.4,62.339,413.64,77.156v6.138l11.477,4.7-5.738,4.339-12.19-4.339-5.025,4.339-7.537-8.679-1.442,3.255,8.251,26.022,2.155.728,5.738-2.9,2.869,2.17v4.7l-5.381-2.17-3.226,2.527,2.155,4.7-1.8,12.29-11.12,1.085-.714-3.983,6.452-3.983,1.442-10.848-7.18-9.392-2.512-16.258-11.477-1.813-1.071,5.781,2.155,2.9-4.668,3.983,1.8,10.848,6.809,2.9,1.442,7.951-6.823-4.339-17.572-3.255-2.155,5.781-13.989,5.053-2.155-3.611-18.3,10.12-.357,6.866-7.18,1.085,2.155-5.053v-5.053l-7.18-2.527-4.668,1.813,3.94,7.594,2.869,5.053v3.983l-5.381-1.085-1.071-1.085-5.381,5.781,2.869,5.053-12.19-.357,3.94,5.067-1.071,2.17h-6.452l-4.668-3.255-1.07-9.036-7.537-2.9v-3.611l15.787,3.255,8.607.728,3.583-5.424-3.226-5.781-22.953-9.036-7.922,1.97-2.712,2.327.842,5.353,3.369.585-.785,8.422L280.86,171.2l-7.508,11.9-.514,2.684,3.811,2.684-3.44,2.27-2.284.043.428,10.492,3.155,4.468.043,4.339,4.04.371,6.181,2.355,6.538,8.993.071,2.37-2.127,3.64,4.882-.271,4.753,1.37L305.313,238l15.816,1.442-.685,10.82-5.453,4.668,1.128,1.827-5.381,5.781-1.427,5.424,3.226,4.7,10.406,3.611,4.311-2.527,27.621,10.477,1.071-2.9-5.738-5.424v-6.866l-3.583-1.085.714-5.781,5.738-6.866-10.292-7.708.714-10.72,11.006-7.237,12.918.728,2.156,3.983,13.275.728,9.692-5.424-5.025-5.424,1.071-10.121,25.109-12.29,19.313,8.707,6.452-5.781,19.013,18.071,14.346-1.442,5.025,5.053,13.632,1.442,8.964-12.29,11.476,5.067,6.1,1.085,6.1-5.424-5.381-3.611,4.668-7.223,13.275,4.339,2.869,5.781,5.738.357,3.583-2.527,9.692-.357,1.071,2.527,11.12.728,7.537-7.951,15.431,1.813,4.668-1.813,1.427-8.679-4.668-10.477,4.668-3.983h14.7l13.989,16.63,17.929,10.12h5.381l.714-4.339,6.452-3.982.714,23.5-5.738.357v5.781l3.226,3.983-.6,5.167,2.384.985,1.442-3.611,2.156.728,1.427,1.442,6.452-1.442,6.452-18.8.714-23.5-8.251-18.8L658.944,166.8l-5.024.728v3.983l-12.19-4.7,4.668-10.12,3.94-26.75,16.5-5.053,7.894-5.053h8.607l-2.156,2.9,2.156,3.611,7.537-7.951,4.311.357-.714-4.7-6.823-1.442,4.668-16.986L698.47,89.8Z" transform="translate(467.456 13.843)" fill="#9bc622"/>
        <path id="china" d="M370.172,114.8l-4.939,12.419-6.809-.357-7.18,15.716,6.1,7.765-12.561,17.343-6.452-1.085-4.311,5.424,1.071,3.255,5.025.357,2.512,5.781,5.025,1.085,15.431,19.884v10.12l7.537,4.7,8.251-1.442,10.406,6.138,12.561,3.611,6.1-.728,6.823-.728,14.346-9.393,4.668.728,1.784,4.239,3.954,1.185,5.381,7.951-3.583,7.951,2.155,5.424,6.1,2.17,1.071,6.509,7.18.728,1.071-3.255,10.406-5.424,6.452.357,7.537,8.308,5.025-2.17,3.226.357,1.442,3.983,2.512.357,3.583-5.053,14.346-5.424,12.918-15.545,4.311-14.817-.357-9.764-5.382-1.085,3.226-3.611-.714-5.781-13.632-13.732v-6.866l3.94-5.053,3.94-1.813.357-3.983H511.959l-1.8,5.424-4.668-1.085-5.738-6.138,3.583-9.392,5.025-5.424,4.668.357-.714,8.308,2.512,2.17,6.1-6.138,2.156-.357-.714-4.7L528.1,137.7l4.311.357,2.512-7.951,2.94-1.556.3-4.953-2.855-3-.243-7.822,5.5-.357-.357-20.17-3.854,2.312-1.442,5.167-6.438-.014L509.818,89.225,496.343,72.981l-13.675-.143-3.483,3.026L483.61,86l-1.542,9.507-5.51,2.284-3.1-.243-.228,9.407,3.226.728,5.738-2.527,7.537,3.611v3.611l-5.382.357-4.311,9.393-3.94.357-13.989,18.428-14.7,6.509-10.049.728-6.809-4.7-9.692,5.067-10.406-3.255-2.512-6.866-17.572-1.085-9.321-15.174h-3.94l-3.169-7.037Z" transform="translate(585.108 127.502)" fill="#9bc622"/>
        <path id="mongolia" d="M348.891,101.885l8.308-11.02,9.978,4.611,6.78,1.813,8.308-7.622-5.638-4.154,3.711-5.239,11.077,3.911,3.84,6.295,6.937.186,3.626-2.7,7.466-.3,1.627,2.769,12.4.628,7.851-8.008L446.028,84.2,445.4,95.1l4.753,1.085,5.838-2.655,6.181,3.055-.143,1.542-4.482.128-4.668,9.792-3.626.357-14.1,18.428-14.4,6.352-9.007.7-7.48-4.825-9.564,5.11-9.421-2.926-2.669-6.837-17.843-1.256-9.136-15.488-4.439-.285-2.3-5.5Z" transform="translate(611.242 140.564)" fill="#9bc622"/>
        <path id="north_korea" data-name="north korea" d="M403.381,113.091l2.627,1.1.8,9.193,5.21.3,4.91-5.753-1.7-1.513.2-6.167,4.511-5.453-2.3-4.14,1.5-1.713.828-4.282-2.612-1.185-2.227,1.128-2.755,8.365-4.454-.385-5.153,6.081.614,4.425Z" transform="translate(705.89 163.76)" fill="#9bc622"/>
        <path id="south_korea" data-name="south korea" d="M411.138,102.627l8.822,7.194,1.5,6.966-.3,3.74-4.311,4.853-3.711.2-4.211-9.093-1.6-4.339,1.7-1.313-.4-1.813-2.1-.942,4.611-5.453Z" transform="translate(712.494 179.833)" fill="#9bc622"/>
        <path id="kazakhstan" d="M304.893,130.623l5.852-2.5,6.538-.228.457,9.992h-3.825l-2.926,4.768,3.826,6.352,5.638,3.183.514,3.64,2.07-.685,1.913-2.27,3.155.685,1.584,3.183h4.054v-4.083l-2.484-7.266-1.128-5.9,7.209-3.183,9.692,1.584,6.081,6.124,13.746-1.356,7.665,10.891,9.007.457,2.484-4.082,3.155-.685.457-4.539,4.725-.228,2.484,2.955,2.484-5.9,21.4,2.955,3.6-4.768-6.081-7.494,8.108-17.7,6.538.457,4.511-10.891-9.007-.914-5.182-5-14.274,1.656L390.539,82.076l-6.48,5.753L364.4,78.907l-24.109,11.8-.671,8.393,5.638,6.58-10.991,6.209-14.26-.314-2.983-4.382-11.177-.614-10.592,6.809-.228,9.307,9.863,7.922Z" transform="translate(516.622 138.163)" fill="#9bc622"/>
        <path id="turkmenistan" d="M311.832,111.446l-.885,3.754h-5.924v5.082l6.366,4.2-1.97,5.753v2.655l2.641.443,3.512-4.639,7.908-1.77,16.9,6.409.214,4.639,9.435.885,10.535-11.063-1.313-3.54-7.023-1.542-19.756-12.833-.885-4.639h-7.465l-3.3,6.2h-3.3l-5.7.014Z" transform="translate(534.178 184.417)" fill="#9bc622"/>
        <path id="uzbekistan" d="M356.425,136.788l4.4.228v-7.523l-4.168-2.427,7.023-8.85h2.855l2.855,3.326,7.465-2.869-10.32-3.54-.4-2.141-2.455.6-2.412,4.2-10.406-.343-7.637-10.806L329.8,107.968l-6.395-6.338-8.85-1.5-6.423,2.612,3.726,12.39.043,4.168,2.712.057,3.326-6.338,8.85.114L328.105,118l18.97,12.59,7.337,1.684,2.012,4.511Z" transform="translate(539.645 175.449)" fill="#9bc622"/>
        <path id="tajikistan" d="M326.31,114.329l5.867-7.28h2.212l.771,1.627-2.712,1.97v1.627l1.784,1.285,8.579.514,2.8-1.2,1.27.257.856,2.741,5.1.514,2.555,5.4-.771,1.627-1.014.086-1.014-2.056-2.212-.171-3.826.514-.257,3.6-3.826-.257.171-4.539-2.8-2.741-4.254,3.512.086,2.312-3.74,1.285h-2.212l.171-7.965-3.583-2.655Z" transform="translate(571.573 187.601)" fill="#9bc622"/>
        <path id="kirgizstan" d="M331.12,105.088l-.442,3.611.357,2.227,12.419,4.168-10.906,4.4-1.242-1.028-2.355,1.513.114.828,1.256.571,7.651.2,3.883-1.171,4.982-6.281,6.238,1.085,7.523-10.42-20.127-2.741-2.784,6.752-3.512-3.768-3.055.057Z" transform="translate(576.212 178.814)" fill="#9bc622"/>
        <path id="afghanistan" d="M317.989,128.327l2.27,17.786,5.653,1.242.528,3.2-4.054,3.383,7.551,6.1,14.674-5.281,1.171-6.252,9.235-5.767,3.54-13.361,2.641-2.841-2.741-4.768,8.936-5.524-1.142-1.6-4.125.257-.371,3.8-5.538-.057-.1-5.067-1.784-2.127-3,2.726.086,2.5-4.525,1.713-8.35-.528L327.7,129.212l-9.707-.885Z" transform="translate(556.955 195.315)" fill="#9bc622"/>
        <path id="pakistan" d="M323.891,158.775l3.711,5.51-.357,2.841-4.939,1.956-.357,4.625H327.6l1.941-1.6h10.763l9.706,8.536,1.242-4.1h7.237l.171-5.153-7.408-7.109,1.584-3.911,7.594-.528,10.235-21.34-5.653-4.439L362.9,126.6l13.76-1.242L368.541,113.8l-4.325-1.171-1.77,2.141-1.327.1L353,120.02l2.655,4.454-3,3.2-3.711,13.689-9.178,5.867-1.242,6.409-14.631,5.139Z" transform="translate(563.914 197.398)" fill="#9bc622"/>
        <path id="india" d="M373.5,240.195l6.538-3.2,3.883-14.046-.171-17.243L405.989,181.7V176l4.582-1.784-.171-6.58-4.939-9.607,2.826-5.153,6.181,5.7,7.937.357v3.2l-2.469,2.669.528,1.427,4.24.171.885,4.8h1.242l3.183-5.7,1.584-14.931,5.3-3.74.171-5.153-2.113-4.1-3.354-.171-13.132,8.679.828,5.581-9.221-.029-3.255-3.983-1.77.228.6,5.538-19.941-1.427-12.361-5.51-.657-6.78-8.236-5.11-.1-10.52-5.653-6.466-12.99,1.242,1.413,5.653,6.366,5.153-11.006,22.525-7.365.557-1.213,2.712,7.251,6.709-.357,6.78-7.408-.114-.8,3.369,6.152-.271.171,2.669L334.5,176.9l2.826,5.339,5.467,1.784,3.354-2.484,1.584-4.439,1.941-.885,2.3,2.312-.7,5.7-1.585,2.669.357,4.625L373.5,240.195Z" transform="translate(582.607 206.149)" fill="#9bc622"/>
        <path id="nepal" d="M347.539,126.5l.657,6.1,11.534,5.224,18.485,1.37-.7-4.468-12.347-3.4-10.477-6.238-7.151,1.413Z" transform="translate(608.868 219.284)" fill="#9bc622"/>
        <path id="bhutan" d="M360.075,129.128l2.212,3.026,7.48.057-.757-4.14-8.936,1.056Z" transform="translate(630.89 224.532)" fill="#9bc622"/>
        <path id="bangladesh" d="M361.355,131.059l-1.87,3.383,4.853,9.221.143,7.194.885,1.927,5.7.1,3.226-3.1,2.341,1.413.471,4.382,1.87-1.17.114-5.6-1.57-.186-.985-4.753-3.968-.143-.985-2.641,2.427-3.24.043-1.6h-7.052l-5.638-5.2Z" transform="translate(629.853 229.781)" fill="#9bc622"/>
        <path id="burma" d="M398.15,211.134,394.2,204.8l2.869-4.025-2.712-4.982L391.8,195.3l-.485-8.365-3.825-7.408-1.113,1.77-2.555,4.339-3.2.485-1.6-2.1-.8-5.638-2.4-4.511-9.764-9.207,2.4-1.584.443-6.666,3.569-6,1.542-14.917,5.167-3.526.171-5.439,3.1,1.028,4.882,7.066L383.7,142.4l2.441,6.1,6.038,2.37,1.1,6.638,8.108,1.256-2.241,3.868-10.22,4.025-1.113,6.595,7.508,9.649.314,5.153-1.756,1.77.157,1.613,5.6,8.208.157,8.522-1.641,2.969Z" transform="translate(641.406 221.849)" fill="#9bc622"/>
        <path id="thailand" d="M384.347,140.048,388.972,146v7.237l1.6.8,7.351-3.54,1.442.485,8.779,10.135-.314,6.923-2.869-.485-2.555-1.613-1.913.157-3.354,5.624.642,3.055,2.712,1.442-.157,3.383-1.913.971-6.552-4.511v-4.025l-2.712-.157-1.113,1.77-.571,18.014,4.239,7.737,7.508,7.237-.314,2.1-4-.157-3.669-5.467H387.4l-4.8-3.868-1.442-4.025,2.07-3.383.714-3.055,2.255-4-.1-9.193-5.51-7.965-.228-.971,1.784-1.8-.414-6.324-7.337-9.293.856-5.353,9.093-3.84Z" transform="translate(656.051 245.572)" fill="#9bc622"/>
        <path id="malaysia" d="M379.394,163.384l2.869,6.438.642,8.365,3.84,5.952,9.264,5.624,3.511.328-.642-5.8-3.04-7.394-4.454-9.464-.371,1.656-5.367-.243-3.854-5.538-2.4.071Z" transform="translate(664.829 286.442)" fill="#9bc622"/>
        <path id="cambodia" d="M384.054,164.315l5.838,6.238,10.863-8.051.956-12.7-5.61,3.868-2.912-1.627-3.954-.528-2.212-1.556-1.071.057-2.9,4.753.471,2.2,2.941,1.642-.357,4.468-2.056,1.242Z" transform="translate(671.26 262.701)" fill="#9bc622"/>
        <path id="laos" d="M384.853,136.144,381.4,137.9l-2.869,8.365,4.8,6.109-.8,6.752.8.328,7.979-3.868,10.706,11.962-.257,7.537,2.327,1.256,5.753-4.668-.471-3.7-16.6-15.773.157-2.412,2.07-1.442-1.442-4.025L386.68,143.2l-1.827-7.052Z" transform="translate(663.31 238.714)" fill="#9bc622"/>
        <path id="vietnam" d="M393.849,197.558l1.7,2.669.314,3.055,4.468.485,5.424-7.237,5.11-1.442,2.712-7.394-1.27-11.9-5.267-7.237-5.553-4.439-7.066-12.133,5.067-8.479-7.251-8.322-5.81-.257-5.224,2.812,1.556,6.723,6.966,1.228,1.87,5.182-2.455,1.6.157,1.285,16.344,15.987.642,4.7-.985,14.845-11.448,8.279Z" transform="translate(668.003 236.567)" fill="#9bc622"/>
        <path id="georgia" d="M287.615,107.069l4.668,6.1,5.824,2.684,3.583-.014,6.152-1.67,1.542-2.412-18.2-6.809-3.569,2.127Z" transform="translate(503.596 183.899)" fill="#9bc622"/>
        <path id="armenia" d="M298.847,108.68l6.852,8.936-2.013,2.355-4.853-.842-6.024-5.4.328-3.54,5.71-1.513Z" transform="translate(512.719 190.467)" fill="#9bc622"/>
        <path id="azerbaijan" d="M296.793,107.557l-1.442,2.455,6.723,8.822,2.341-.757,3.854,4.04,1.67-7.08,4.182.671-.171-2.027-6.88-6.024-1.313,3.54-8.964-3.64Z" transform="translate(517.186 188.493)" fill="#9bc622"/>
        <path id="iran" d="M296.072,114.646l-1.742,1.813.171,2.869,2.17,3.04,7.694,8.422-1.171,3.369h-1.342l-.671,3.369,4.354,5.567,4.011.343,8.036,11.12,4.511.343,3.512,2.527.171,5.053,13.889,8.094h5.182l3.183-2.7,4.011-.171,2.341,5.4,15,2.084.443-5.51,4.967-1.8.228-1.97-3.954-5.4-8.807-7.08,4.625-4.211-.328-1.856-5.8-.9-2.455-19.556-.286-4.5L342.307,116.4l-6.966,1.57-3.9,4.782-3.454-.228-1,.842-7.694-.5-9.707-7.08-3.611-3.954-1.656.4-2.983,3.412-5.267-1Z" transform="translate(515.394 196.006)" fill="#9bc622"/>
        <path id="turkey" d="M325.214,109.182l-3.183,3.369-11.7-.343L303.3,108l-6.852-.171-7.865,5.567-7.366.343-.671,4.211h-8.365l-3.34,3.04v1.684l2.013,1.684v1.856l-.842,2.2.842,1.856,2.684-1.342,2.684,2.869-.671,2.027-1,1.356,1.5,1.684,7.366,1.513,5.182-2.2v-3.2l2.512.5,6.024,3.54L303.66,136l2.841-2.7,1.841.671v3.04h2.512l2.17-4.211,19.07-2.027,8.322-1.013-2.2-2.883-.043-3.9,1.67-2-6.081-4.882.328-4.211h-3.34l-5.538-2.712Z" transform="translate(470.622 188.966)" fill="#9bc622"/>
        <path id="yemen" d="M296.174,157.112l2.056,6.109v5.967l4.939,4.482,34.8-14.174.328-3.9-5.581-10.021-14,4.468-8.036,7.908-9.321-5.51-5.182,4.668Z" transform="translate(518.632 255.287)" fill="#9bc622"/>
        <path id="oman" d="M309.839,162.665l10.549-6.081,1.87-8.921-2.312-1.328.956-9.564,2.013-1.17,2.155,3.383,12.833,6.709v3.726L322.357,172.3l-7.151.243-5.367-9.878Z" transform="translate(542.637 237.758)" fill="#9bc622"/>
        <path id="emirates" d="M307.576,143.043l1.242,4.967,14.074,1.242.985-10.192,2.712-1.485.742-3.726-4.439,1.242-4.939,7.465-10.377.485Z" transform="translate(538.662 234.684)" fill="#9bc622"/>
        <path id="qatar" d="M307.334,134.911l-.742,5.724,2.2,1.67,2-.186.742-7.209-1.727-1.242-2.469,1.242Z" transform="translate(536.934 234.366)" fill="#9bc622"/>
        <path id="kuwait" d="M305.491,129.093l-3.212-1.742-2.227,2.241.243,4.482,5.182,1.984.014-6.966Z" transform="translate(525.445 223.268)" fill="#9bc622"/>
        <path id="saudi" d="M336.531,141.86l10.006,13.946,3.226,2.569,1.442,6.252,15.4,1.213,1.741.914-1.727,7.708L356.5,180.43l-14.8,4.482L333.8,192.62l-9.378-5.467-5.681,4.967L310.838,179.2l-5.424-2.484-1.97-2.983v-6.466L283.7,143.4l-.742-4.225h5.681l6.909-5.967.243-2.983-1.97-1.984,3.954-3.226,8.393.5,14.317,11.933,8.451-.385.542,2.084,7.052,2.712Z" transform="translate(495.418 219.166)" fill="#9bc622"/>
        <path id="syria" d="M283.382,122.363l-.5,3.626,4.025,1.684-.171,10.049,4.025-.086,4.025-3.04,1.513-.257,9.136-7.266,1.841-10.549L289.02,118.38l-1.927,4.225-3.712-.243Z" transform="translate(495.282 204.248)" fill="#9bc622"/>
        <path id="iraq" d="M299.493,117.238l-2.227,11.005-9.221,7.68.585,3.626,9.007.614,14.346,11.676,8.022-.228.214-2.7,2.94-3.155,4.111,2.327.542-.514-7.951-10.577-3.768-.228-5.01-6.438,1-4.739,1.527-.2.528-2.1-6.823-7.18-7.822,1.128Z" transform="translate(504.351 203.52)" fill="#9bc622"/>
        <path id="jordan" d="M286.556,126.731l-3.512,12.247-.157,1.87h5.524l6.181-5.453.157-2.07-2.527-2.584,4.525-3.754-.657-3.483-1.242.285-3.769,2.7-4.525.243Z" transform="translate(495.291 216.509)" fill="#9bc622"/>
        <path id="lebanon" d="M283.512,120.357l.086,2.784-1.17,4.225,4.025.343.257-6-3.2-1.356Z" transform="translate(494.481 210.979)" fill="#9bc622"/>
        <path id="israel" d="M283.8,123.267l-2.255,7.18,2.926,8.607,3.354-12.576v-2.7l-4.025-.514Z" transform="translate(492.935 216.091)" fill="#9bc622"/>
        <path id="cyprus" d="M286.5,119.01l1.756,1.27-5.439,5.153-2.6-.086-1.927-1.356.257-2.527,3.94-.257,4.011-2.2Z" transform="translate(487.223 208.614)" fill="#9bc622"/>
        <path id="norway" d="M312.785,60.447l2.883-2.113-.257-2.37-1.827-1.056.257-2.9h1.57V50.426L308.6,48.585,298.4,49.641l-1.042,4.482L295,53.338l-1.57-2.641-4.982.257-.528,5.01-2.355,1.056-1.313-2.641-10.477,8.436,2.1,2.37-3.925,1.841L263.039,84.7l-3.14,2.113.257,1.584,3.14,1.584-.785,3.426-5.239-.271-1.57-1.841-3.4,3.954-2.1,1.584-.528,3.7-1.827,1.056-4.71,1.056-2.355,7.394,1.57,12.133,1.827,5.538,2.1,2.113,4.71-.257,6.809-6.595,2.612-4.482.785,6.595,4.454-7.908L265.908,95l3.626-2.284,1.085-12.233,10.991-15.83,5.239-1.841,2.355-2.9,7.851,1.841,3.926,2.37,1.313-6.595,6.552-3.954,3.94,6.866Z" transform="translate(421.328 84.894)" fill="#9bc622"/>
        <path id="britain" d="M238.858,78.357l-2.612,3.954,1.042,1.584h6.024v2.641l-1.57,2.113,1.042,5.538,3.4,6.595,2.612,6.067,4.182,1.584L254.8,111.6l-.257,2.9-2.612,1.584-.257,1.313,1.827,1.056-1.57,2.113-3.669,1.584-7.066-.785-11.006,5.01-3.668-1.841L237,118.468l-1.313-.785-5.5-.528,3.4-5.01.528-4.225,4.454-.528-.785-8.179-5.239-.257-1.57-1.841.257-6.067-3.14.257,3.14-10.549L237,76.53l1.856,1.827Z" transform="translate(396.277 133.987)" fill="#9bc622"/>
        <path id="ulster" d="M230.178,83.609l-4.71.528-.257,4.225,3.14,2.113,3.4-.785,1.313-2.37-2.884-3.711Z" transform="translate(393.967 146.422)" fill="#9bc622"/>
        <path id="ireland" d="M239.747,90.76l-1.3,8.565-11.519,4.225h-3.668l-2.612-1.841v-1.584l5.767-3.7-1.57-3.169.257-4.482,4.982.257,2.284-5.367-.3,4.768,3.868,3.069,3.811-.742Z" transform="translate(385.953 146.522)" fill="#9bc622"/>
        <path id="sweden" d="M274.3,54.151l2.8,2.584h5.239l2.883,5.538.785,9.492-7.066,5.01v5.01l-4.982,6.866-2.883.257L267.149,95.5l.257,6.338,6.809,5.01-.528,2.9-2.612,3.954-3.925,3.426.257,11.348-6.024,2.113-2.1,4.482H256.4l-1.57-7.908-6.552-10.049,5.381-9.007.371-22.254,3.711-2.041.9-12.733,10.577-15.145,5.082-1.784Z" transform="translate(434.491 94.673)" fill="#9bc622"/>
        <path id="finland" d="M270.118,77.434l2.955,1.3,1.827,3.426-1.827,2.37-9.164,10.021-1.57,5.282,2.1,7.651,7.066,5.282,9.421-4.482,7.594-1.056,7.066-11.348-5.239-12.4L285.363,71.6l.785-7.651-3.14-.528-.814-5.581-4.225-6.894-4.682,3.24L271.446,61.7l-4.967-2.983-6.909-1.684-1.542,1.8,2.655,2.4,4.839-.086,3.9,6.295.7,9.992Z" transform="translate(451.619 89.033)" fill="#9bc622"/>
        <path id="path302" d="M274.486,79.389,264.708,77.8l.214,5.467,9.064,5.538,3.711-1.085-.214-4.168-3-4.168Z" transform="translate(463.354 136.225)" fill="#9bc622"/>
        <path id="hiumaa" d="M264.627,76.493l-2.212-.071-1.285,1.3.928,1.37,2.212.143,1.142-1.656-.785-1.085Z" transform="translate(457.068 133.796)" fill="#9bc622"/>
        <path id="saaremaa" d="M266.141,78.7,264,78.482l-3.854,4.611v2.155l1.285.5,2.5.071,4.139-3.383.571-1.156-2.5-2.584Z" transform="translate(455.34 137.417)" fill="#9bc622"/>
        <path id="lithuania" d="M272.637,80.149l-3.069-.071L265.357,84.1h-3.569L262,89.141,259.861,93.1l7.708.071,2.212-.285,2.213,2.669,5.067-.214,4.853-6.181-.285-3.669-8.993-5.339Z" transform="translate(454.839 140.218)" fill="#9bc622"/>
        <path id="belarus" d="M264.418,93.745l2.141,3.526-.856,2.812.143,2.227.785,2.669,4.425-2.512,5.5.143,3.854,1.584h9.778l2.855-6.837,1.713-2.584V93.046l-6.138-8.636-5.424-2.155-4.425-.5-3.854,1.228.143,3.883L269.7,93.631l-5.281.114Z" transform="translate(462.844 143.166)" fill="#9bc622"/>
        <path id="poland" d="M285.162,101.633l1.213,2.227.286,2.37-1,2.3-2.284,4.4-1.927.871-2.5-1.085-1.5.071-3.64,1.37-4.139-1.228-6.709-4.753-6.566-3.526-2.641-4.025-.5-9.492,5.139-4.468,6.709-2.227,2.5-.285-1,2.013.642.785,11.291.214,2.427-.071,4,6.124-1,2.512.428,2.955.771,2.955Z" transform="translate(443.242 147.368)" fill="#9bc622"/>
        <path id="spain" d="M248.578,107.2H230.392l-3.669-1.656-1.77.128-2.141,4.454.757,4.582,6.952.642.885,2.926-3.026,17.058.128,3.055,4.925,2.669,5.681.385,11.362-2.8,5.553-6.994.128-7.123,9.849-8.907.5-3.94-8.964-.128-8.964-4.354Z" transform="translate(389.755 184.963)" fill="#01bdd6"/>
        <path id="portugal" d="M225.308,109.379l-.885,12.347L221.9,124.01l.257,1.4,1.77,2.926-1.142,3.569,1.9.642,4.425-.514-.257-3.569,2.9-16.544-.628-2.284-5.81-.257Z" transform="translate(388.145 191.695)" fill="#9bc622"/>
        <path id="majorca" d="M240.2,112.47l-2.27.771.5,2.041h3.283l1.385-1.527-2.9-1.285Z" transform="translate(416.316 197.125)" fill="#9bc622"/>
        <path id="sardinia" d="M249.689,110.487l-3.783,1.913.5,7.38,3.026.514,2.27-2.17V111.13l-2.013-.642Z" transform="translate(430.325 193.641)" fill="#9bc622"/>
        <path id="corsica" d="M249.356,107.163l-2.783,2.8-.257,2.541,2.27,1.4.885-.128.5-3.7-.614-2.912Z" transform="translate(431.043 187.801)" fill="#9bc622"/>
        <path id="france" d="M254.967,92.53l-3.155.771-6.309,6.866-1.9.128-2.527-1.784-1.642.385-1.256,3.94-9.221.257.257,2.041,6.309,4.2,7.323,5.853-.129,6.994-3.911,6.866,8.465,4.068,8.593.257,2.655-3.055,5.424.128,1.513,1.4,5.424-.385,2.784-3.569-3.54-4.2-.257-2.669.757-2.926-1.77-2.541-3.026.885-.385-2.284,6.695-7.38v-4.454l-4.425-2.541-2.27-.385L254.967,92.53Z" transform="translate(400.552 162.095)" fill="#9bc622"/>
        <path id="netherlands" d="M250.706,87.13l-6.466,3.183,1.37,1.242.143,3.183-1.37-.271-1.513-2.355-3.611,5.724,5.553,1.156,2.07,2.184,1.1.029.728-4.939,3.5-1.47-1.5-7.665Z" transform="translate(418.645 152.608)" fill="#9bc622"/>
        <path id="belgium" d="M239.6,91.4l-.914,2.284,9.821,6.481,2.826.671.1-3.069L248.966,95h-1.513l-2.07-2.355L239.6,91.4Z" transform="translate(417.644 160.112)" fill="#01bdd6"/>
        <path id="germany" d="M245.883,90.193l5.1-.828v-3.6l4.268-.7,2.341,2.355,2.469.271,3.854-1.67,3.44.971,3.026,2.626.414,9.835,3.026,4.025-3.983.557-6.609,4.154.557,1.385,5.91,5.538-.414,2.769-5.5,2.769-5.1.143-1.242,2.626h-2.612l-1.242-2.769-4.539-1.113-.143-4.568-3.854-2.626.414-3.326-2.612-3.6.685-4.711,3.569-1.67-1.228-8.85Z" transform="translate(424.967 148.987)" fill="#01bdd6"/>
        <path id="denmark" d="M250.781,78.446,244.857,85l-.214,4.268,2.7,7.037,4.225-.8-.528-5.753L253.95,86.5l-.057-2.555-2.056-5.324-1.056-.171Z" transform="translate(428.105 137.353)" fill="#9bc622"/>
        <path id="sjlland" d="M251.243,82.7l-1.328-.057-1.742,1.6.214,2.5,4.125.114.214-2.826L251.243,82.7Z" transform="translate(434.309 144.721)" fill="#9bc622"/>
        <path id="gotland" d="M260.036,77.757l-3.012,2.384,1.513,3.5,2.669-2.6-1.17-3.283Z" transform="translate(449.855 136.143)" fill="#9bc622"/>
        <path id="switzerland" d="M248.837,98.06l-6.224,6.623.128.671,2.555-.8,2.3,3.2,3.883-1.37,2.684,2.084,1.1-.628,3.312-5.2-.842-.8-3.269-.086-1.584-3.24-4.04-.457Z" transform="translate(424.54 171.81)" fill="#9bc622"/>
        <path id="czech" d="M256.637,102.129h6.324l3.383,2.412,6.266-5.21-6.081-4.339-6.024-2.912-4.125.742-5.6,3.6,5.853,5.71Z" transform="translate(438.894 161.304)" fill="#9bc622"/>
        <path id="slovakia" d="M256.744,100.361l.985.871.129,1.485,10.891-.243L276.8,99l-.129-3.526-1.542.685-2.212-1.185-1.356-.057-3.569,1.427-4.853-1.171-6.395,5.182Z" transform="translate(449.363 166.298)" fill="#9bc622"/>
        <path id="austria" d="M249.46,102.564l-.928,1.927.8,1.37,3.326-.685h2.826l3.069,2.6,6.523-1.185,4.8-2.855,1.228-1.927-.186-2.484L266.6,96.1l-5.781.057-.485,3.283-6.081,2.969-4.8.157Z" transform="translate(434.937 168.362)" fill="#9bc622"/>
        <path id="hungary" d="M258.265,100.785l-1.656,2.6.129,3.968,2.641,1.356,8.122.243,11.319-9.535.057-2.113-1.228-.614-8.179,3.711-11.205.385Z" transform="translate(449.127 169.399)" fill="#9bc622"/>
        <path id="slovenia" d="M262.828,99.412l-3.626,2.17-6.766,1.485,1.356,3.911,4.739.057,4.368-3.654-.071-3.968Z" transform="translate(441.795 174.184)" fill="#9bc622"/>
        <path id="croatia" d="M263.489,101.053l-5.039,4.154h-5.11l-.614,3.6,2.341.614,1.171-1.741,1.841,1.613,1.47,5.139,10.092,4.711,1-1.142-10.235-10.563,1.042-1.927,9.721-.371.985-3.1-6.338.186-2.327-1.171Z" transform="translate(442.305 177.068)" fill="#9bc622"/>
        <path id="bosnia" d="M256.542,103.129l-.528.871,9.578,9.878,3.511-5.167-.128-2.041-3.069-3.726-9.364.186Z" transform="translate(448.081 180.388)" fill="#9bc622"/>
        <path id="italy" d="M245.1,105.943l-.885,2.241.243,2.441,3.412,3.983,5.367-.186,11.848,13.76,7.394,2.141,4.368,4.125,1.042,9.407,2.341-1.37,2.027-5.124-.5-3.683,3.469-.314.5-2.084L275.95,126.6l-9.278-9.121-3.7-5.453-.9-5.182,4.725-1.128-1.213-3.412-2.9-2.441-2.5-.114-3.483.956-3.283,4.6-1.984,1.313-3.069-1.884-3.269,1.213Z" transform="translate(427.359 174.775)" fill="#9bc622"/>
        <path id="sicily" d="M260.805,116.188l-2.07-1.113-7.066,1.113.243,1.913,6.352,3.2.956,1.042,1.67.243-.086-6.395Z" transform="translate(440.449 201.701)" fill="#9bc622"/>
        <path id="malta" d="M256.591,119.336l-2.384.485.086,2.641,2.141.714.956-.8-.8-3.04Z" transform="translate(444.906 209.187)" fill="#9bc622"/>
        <path id="ukraine" d="M271.381,92.449l-4.14,2.327,1.028,4.4-3.826,8.065.029,3.554,1.8,1.142,11.534.571,3.226-2.669,3.454,1.156,4.953,6.609-3.626,6.509,4.311,1.256,5.638-6.495,3.226.585,3,2.084-2.641,3.483,3.569,5.567h3.8l1.956-3.711,4.025-.814.114-3.012-7.48-1.156.228-3.24H312.8l7.822-6.266,3.454-3.012.571-9.507-15.416-1.385-6.324-8.921-4.368-1.5-5.3.228-2.384,5.9-10.848.143-3.526-1.627-5.11-.257Z" transform="translate(462.89 154.254)" fill="#9bc622"/>
        <path id="moldova" d="M269.642,98.642l4.425,6.809L273.7,109.3l1.584.071,3.754-6.352-4.511-5.6-2.555-1.056-2.327,2.27Z" transform="translate(472.022 168.845)" fill="#9bc622"/>
        <path id="romania" d="M270.708,97.139l-.371,2.113-8.265,6.88,6.909,10.135,4.425,3.1h7.965l2.626-2.2,3.526-.457,2.626,1.584L294.8,113l-.9-2.655-4.725-1.213-3.226-.157.157-4.539L281.828,97.7l-11.12-.557Z" transform="translate(458.724 170.191)" fill="#9bc622"/>
        <path id="montenegro" d="M264.622,109.849l-.064-1.335-1.884-2.646-3.05,4.312.6,1.813,2.485.457Z" transform="translate(454.421 185.526)" fill="#9bc622"/>
        <path id="serbia" d="M265.166,100.732l-2.928,2.2h-1.427l-.971,3.025,3.454,4.013.228,3.183-.487.689,2.335,3.28.081,1.74,1.681,1.629,5.481-1.67-.458-7.8Z" transform="translate(454.803 176.503)" fill="#9bc622"/>
        <path id="bulgaria" d="M264.822,104.933l.228,7.109,2.4,5,9.007.157,4.054-2.869,3.982-1.584-.971-4.539.9-2.427-2.027-1.056-2.784.228-2.184,2.2-9.164.071-3.44-2.284Z" transform="translate(463.554 183.508)" fill="#9bc622"/>
        <path id="albania" d="M260.98,110.223v6.58l1.884,3.554,1.356-.157,2.327-4.239-1.356-1.9-.528-4.7-1.8-1.67-1.884,2.527Z" transform="translate(456.804 188.738)" fill="#9bc622"/>
        <path id="macedonia" d="M267.618,107.707l-4.81,1.584.228,4.082,1.128,1.442,5.71-2.655-2.255-4.454Z" transform="translate(460.015 188.756)" fill="#9bc622"/>
        <path id="greece" d="M262.472,119.431l-.157,1.9,6.609,3.326,3.155,1.213-1.656,1.742-3.683.371-.528,1.67,1.27,2.869,4.125,2.2,1.8.157.228-4.925,2.7-3.255-7.366-8.707.971-2.955,1.727-.071,2.627,2.113,1.656-.828.528-2.955,7.737.071.3-4.539-3.226,2.27-9.464-.228-6.152,3.183-3.2,5.381Z" transform="translate(459.151 190.721)" fill="#9bc622"/>
        <path id="thrace" d="M270.963,109.546l-.228,5.067,4.425-1.356,2.027-1.356-.6-2.2-2.1-1.67-3.526,1.513Z" transform="translate(473.942 189.33)" fill="#9bc622"/>
        <path id="crete" d="M268.14,119.4l2.327.071.971,1.442h3.383l2.255-.828.757.914-1.5,1.97-6.609.228-1.2-1.584-1.27-.757.885-1.456Z" transform="translate(467.829 209.296)" fill="#9bc622"/>
        <path id="path1" d="M302.966,161.125l2.129.233" transform="translate(530.564 282.599)" fill="#9bc622" fill-rule="evenodd"/>
        <path id="path-1" d="M817.475,244.9a1.889,1.889,0,0,1-.031-.387,1.72,1.72,0,0,1,.063-.4,2.288,2.288,0,0,1,.162-.422,3.633,3.633,0,0,1,.272-.458c.11-.16.237-.323.382-.495.165-.2.341-.388.536-.6l.06-.064a.214.214,0,0,0,.064-.152.339.339,0,0,0,0-.045.235.235,0,0,0-.016-.053c-.008-.022,0-.014,0,0a.108.108,0,0,1-.027.065.161.161,0,0,0,.019-.021l.062-.059.137-.125c.064-.058.132-.117.2-.177.047-.041.1-.082.146-.122.031-.023.057-.046.086-.067l.041-.029,1.089-.587a.326.326,0,0,0,.052-.033.3.3,0,0,0,.086-.094.289.289,0,0,0,.035-.092.631.631,0,0,0,.019-.092c0-.014,0-.012,0-.008a.067.067,0,0,1-.011.022.077.077,0,0,1-.019.022.2.2,0,0,1-.055.043c-.011.006,0,0,.019-.008s.092-.039.143-.063a.88.88,0,0,0,.129-.072.372.372,0,0,0,.1-.1c.012-.022.015-.029.015-.027a.837.837,0,0,1,.063-.1.854.854,0,0,1,.087-.1c.045-.047.1-.094.156-.146l.156-.136a.3.3,0,0,1,.035-.029c-.008.006,0,0,.015-.008l.07-.037c.041-.021.085-.041.133-.063.093-.042.186-.082.29-.127l.132-.058c.031-.014.078-.036.124-.061a.554.554,0,0,0,.087-.058.333.333,0,0,0,.045-.046.363.363,0,0,0,.061-.1.639.639,0,0,0,.031-.1.712.712,0,0,0,.016-.122c0-.055,0-.109,0-.162,0-.074-.008-.146-.016-.217-.012-.092-.023-.184-.034-.273-.008-.044-.012-.085-.019-.127,0-.022,0-.042-.008-.061a.21.21,0,0,1,0-.021,1.322,1.322,0,0,1,.038-.208c.023-.084.049-.168.08-.253.049-.135.107-.27.167-.408.031-.075.065-.151.1-.227a5.83,5.83,0,0,1,.288-.592c.129-.235.273-.469.421-.7.194-.307.4-.613.583-.924.131-.218.254-.437.362-.659a4.826,4.826,0,0,0,.25-.606c.027-.076.047-.151.067-.226a1.283,1.283,0,0,1,.066-.18c.043-.1.094-.192.145-.3.035-.071.068-.144.1-.219.015-.046.023-.088.031-.121a1.083,1.083,0,0,0,.015-.185c0-.077,0-.152,0-.224,0-.112-.011-.223-.019-.33-.011-.151-.031-.3-.049-.446q-.034-.261-.08-.512c-.027-.146-.056-.289-.089-.43-.023-.1-.051-.205-.08-.3-.023-.078-.048-.154-.076-.229a1.506,1.506,0,0,0-.085-.191.693.693,0,0,0-.082-.127.508.508,0,0,0-.1-.094.733.733,0,0,0-.064-.04.782.782,0,0,0-.666,0c-.184.1-.184.26,0,.359-.015-.008-.023-.014-.031-.019s-.015-.015-.008,0a.505.505,0,0,1,.04.064,1.587,1.587,0,0,1,.067.152c.023.066.047.134.069.207.027.093.053.189.076.289.031.135.06.273.086.416.031.163.056.329.079.5.019.142.035.286.047.433.008.1.015.21.019.316,0,.069,0,.138,0,.206a1.289,1.289,0,0,1-.011.152.237.237,0,0,1-.016.064c-.023.06-.051.122-.083.189-.044.091-.1.2-.15.309a1.689,1.689,0,0,0-.083.225c-.019.071-.039.14-.062.21a4.545,4.545,0,0,1-.234.566c-.1.21-.22.419-.348.632-.184.306-.379.6-.578.917-.149.235-.3.477-.433.722a6.368,6.368,0,0,0-.3.626c-.031.073-.062.146-.094.222-.059.137-.121.28-.174.425a2.79,2.79,0,0,0-.089.283,2.208,2.208,0,0,0-.045.246.364.364,0,0,0,0,.072c0,.027,0,.053.008.076,0,.045.012.089.019.132.011.089.027.177.034.264.008.067.011.132.016.2a1.309,1.309,0,0,1,0,.134.4.4,0,0,1-.011.084c0,.019-.008.033-.011.045s-.008.014,0,.01,0,0,.019-.019.043-.031.035-.027-.023.012-.056.027-.072.032-.113.05c-.1.041-.2.087-.3.133-.054.025-.111.051-.168.079-.039.019-.08.041-.121.065a.763.763,0,0,0-.126.086.359.359,0,0,0-.038.033l-.154.135c-.062.055-.128.114-.189.177a1.442,1.442,0,0,0-.127.149.992.992,0,0,0-.1.159c0,.01-.008.014,0,.01a.2.2,0,0,1,.053-.06c.011-.006.011-.008-.008,0s-.055.024-.113.049c-.023.01-.066.029-.11.053a.426.426,0,0,0-.1.078.364.364,0,0,0-.023.028.091.091,0,0,0-.019.037.366.366,0,0,0-.023.068c-.008.037-.011.064-.016.083s0,.017,0,.012a.144.144,0,0,1,.052-.054.2.2,0,0,1,.043-.027l-1.093.589c-.015.008-.034.019-.052.03-.035.022-.064.045-.085.06-.038.029-.073.057-.1.082-.056.045-.108.09-.158.132q-.11.094-.212.185c-.051.045-.1.089-.146.134-.027.024-.05.048-.075.073a.71.71,0,0,0-.053.057.214.214,0,0,0-.052.131.276.276,0,0,0,.019.1c0,.013,0,.019,0,.014a.045.045,0,0,1,0-.01.108.108,0,0,1,.035-.077l-.061.065c-.2.212-.378.412-.55.616-.152.181-.288.355-.407.528a3.972,3.972,0,0,0-.3.5,2.67,2.67,0,0,0-.183.478,2.08,2.08,0,0,0-.073.46,1.967,1.967,0,0,0,.035.451c.027.139.258.241.517.226s.447-.139.42-.279Z" transform="translate(13.906 201.276)" fill="#9bc622"/>
      </g>
    </g>
    <g id="location-map-icon" transform="translate(879.749 760.108)">
      <path id="Path_47500" data-name="Path 47500" d="M26.965,3.125a7.915,7.915,0,0,0-8.216,8.216,11.3,11.3,0,0,0,2.788,7.119,19.583,19.583,0,0,0,5.028,4.279.825.825,0,0,0,.8,0,19.586,19.586,0,0,0,5.028-4.279A11.292,11.292,0,0,0,35.18,11.34a7.915,7.915,0,0,0-8.215-8.216Zm0,4.929a3.286,3.286,0,1,0,3.286,3.286A3.288,3.288,0,0,0,26.965,8.054Z" transform="translate(-18.749 -3.125)" fill="#414141" fill-rule="evenodd"/>
    </g>
    <path id="Path_47502" data-name="Path 47502" d="M26.965,3.125a7.915,7.915,0,0,0-8.216,8.216,11.3,11.3,0,0,0,2.788,7.119,19.583,19.583,0,0,0,5.028,4.279.825.825,0,0,0,.8,0,19.586,19.586,0,0,0,5.028-4.279A11.292,11.292,0,0,0,35.18,11.34a7.915,7.915,0,0,0-8.215-8.216Zm0,4.929a3.286,3.286,0,1,0,3.286,3.286A3.288,3.288,0,0,0,26.965,8.054Z" transform="translate(888 763.267)" fill="#414141" fill-rule="evenodd"/>
    <path id="Path_47503" data-name="Path 47503" d="M26.965,3.125a7.915,7.915,0,0,0-8.216,8.216,11.3,11.3,0,0,0,2.788,7.119,19.583,19.583,0,0,0,5.028,4.279.825.825,0,0,0,.8,0,19.586,19.586,0,0,0,5.028-4.279A11.292,11.292,0,0,0,35.18,11.34a7.915,7.915,0,0,0-8.215-8.216Zm0,4.929a3.286,3.286,0,1,0,3.286,3.286A3.288,3.288,0,0,0,26.965,8.054Z" transform="translate(904.431 716.682)" fill="#414141" fill-rule="evenodd"/>
    <path id="Path_47504" data-name="Path 47504" d="M26.965,3.125a7.915,7.915,0,0,0-8.216,8.216,11.3,11.3,0,0,0,2.788,7.119,19.583,19.583,0,0,0,5.028,4.279.825.825,0,0,0,.8,0,19.586,19.586,0,0,0,5.028-4.279A11.292,11.292,0,0,0,35.18,11.34a7.915,7.915,0,0,0-8.215-8.216Zm0,4.929a3.286,3.286,0,1,0,3.286,3.286A3.288,3.288,0,0,0,26.965,8.054Z" transform="translate(929.431 708.682)" fill="#414141" fill-rule="evenodd"/>
    <path id="Path_47506" data-name="Path 47506" d="M26.965,3.125a7.915,7.915,0,0,0-8.216,8.216,11.3,11.3,0,0,0,2.788,7.119,19.583,19.583,0,0,0,5.028,4.279.825.825,0,0,0,.8,0,19.586,19.586,0,0,0,5.028-4.279A11.292,11.292,0,0,0,35.18,11.34a7.915,7.915,0,0,0-8.215-8.216Zm0,4.929a3.286,3.286,0,1,0,3.286,3.286A3.288,3.288,0,0,0,26.965,8.054Z" transform="translate(975.82 672.682)" fill="#414141" fill-rule="evenodd"/>
    <g id="Component_135_1" data-name="Component 135  1" transform="translate(813.749 786.108)">
      <path id="Path_47501" data-name="Path 47501" d="M26.965,3.125a7.915,7.915,0,0,0-8.216,8.216,11.3,11.3,0,0,0,2.788,7.119,19.583,19.583,0,0,0,5.028,4.279.825.825,0,0,0,.8,0,19.586,19.586,0,0,0,5.028-4.279A11.292,11.292,0,0,0,35.18,11.34a7.915,7.915,0,0,0-8.215-8.216Zm0,4.929a3.286,3.286,0,1,0,3.286,3.286A3.288,3.288,0,0,0,26.965,8.054Z" transform="translate(-18.749 -3.125)" fill="#414141" fill-rule="evenodd"/>
    </g>
  </g>
</svg>
