<svg xmlns="http://www.w3.org/2000/svg" width="34" height="34" viewBox="0 0 34 34">
  <g id="news-linkedin-icon" transform="translate(-271 -1214)">
    <rect id="Rectangle_3934" data-name="Rectangle 3934" width="34" height="34" rx="17" transform="translate(271 1214)" fill="#9bc622"/>
    <path id="Icon_awesome-linkedin-in" data-name="Icon awesome-linkedin-in" d="M3.149,14.067H.232V4.676H3.149ZM1.689,3.395a1.7,1.7,0,1,1,1.689-1.7A1.7,1.7,0,0,1,1.689,3.395ZM14.063,14.067h-2.91V9.5c0-1.09-.022-2.487-1.516-2.487-1.516,0-1.749,1.184-1.749,2.408v4.65H4.975V4.676h2.8V5.957h.041A3.064,3.064,0,0,1,10.572,4.44c2.951,0,3.494,1.944,3.494,4.468v5.159Z" transform="translate(280.967 1223.388)" fill="#fff"/>
  </g>
</svg>
