<svg xmlns="http://www.w3.org/2000/svg" width="34" height="34" viewBox="0 0 34 34">
  <g id="news-youtube-icon" transform="translate(-309 -1214)">
    <rect id="Rectangle_3935" data-name="Rectangle 3935" width="34" height="34" rx="17" transform="translate(309 1214)" fill="#9bc622"/>
    <path id="youtube-svgrepo-com" d="M7.864,14.072V8.944l4.508,2.564ZM17.891,7.329A2.178,2.178,0,0,0,16.381,5.8l-.016,0a49.59,49.59,0,0,0-6.116-.367q-.329,0-.656,0h.033c-.185,0-.4,0-.622,0a51.8,51.8,0,0,0-6.366.392l.25-.025a2.177,2.177,0,0,0-1.521,1.52l0,.015A22.064,22.064,0,0,0,1,11.363c0,.051,0,.1,0,.151v-.008c0,.043,0,.093,0,.144a22.847,22.847,0,0,0,.383,4.175l-.022-.14a2.178,2.178,0,0,0,1.51,1.532l.016,0a49.59,49.59,0,0,0,6.116.367q.328,0,.656,0H9.628c.185,0,.4,0,.622,0a51.8,51.8,0,0,0,6.366-.392l-.25.025a2.177,2.177,0,0,0,1.522-1.52l0-.015a22.115,22.115,0,0,0,.361-4.034c0-.051,0-.1,0-.151v.007c0-.043,0-.093,0-.144a22.847,22.847,0,0,0-.383-4.175l.022.14Z" transform="translate(316.371 1219.493)" fill="#fff"/>
  </g>
</svg>
