<svg xmlns="http://www.w3.org/2000/svg" xmlns:xlink="http://www.w3.org/1999/xlink" width="143" height="34" viewBox="0 0 143 34">
  <defs>
    <linearGradient id="linear-gradient" x1="1.072" y1="-0.103" x2="-0.091" y2="1.158" gradientUnits="objectBoundingBox">
      <stop offset="0" stop-color="#9bc622"/>
      <stop offset="1" stop-color="#01bdd6"/>
    </linearGradient>
  </defs>
  <g id="news-date-background" transform="translate(-786 -397)">
    <rect id="Rectangle_3932" data-name="Rectangle 3932" width="143" height="34" rx="10" transform="translate(786 397)" fill="url(#linear-gradient)"/>
    <g id="Group_15956" data-name="Group 15956" transform="translate(797.27 404.727)">
      <path id="Path_47494" data-name="Path 47494" d="M19.162,6.249a3.124,3.124,0,0,0-3.124-3.124H4.374A3.124,3.124,0,0,0,1.25,6.249v10a3.124,3.124,0,0,0,3.124,3.124H16.038a3.124,3.124,0,0,0,3.124-3.124Zm-1.25,0v10a1.874,1.874,0,0,1-1.875,1.875H4.374A1.874,1.874,0,0,1,2.5,16.247v-10A1.874,1.874,0,0,1,4.374,4.375H16.038A1.874,1.874,0,0,1,17.913,6.249Z" transform="translate(-1.25 -1.667)" fill="#fff" fill-rule="evenodd"/>
      <path id="Path_47495" data-name="Path 47495" d="M18.537,9.125H1.875a.625.625,0,0,0,0,1.25H18.537a.625.625,0,0,0,0-1.25Z" transform="translate(-1.25 -2.668)" fill="#fff" fill-rule="evenodd"/>
      <path id="Path_47496" data-name="Path 47496" d="M6.75,2V4.916a.625.625,0,0,0,1.25,0V2A.625.625,0,1,0,6.75,2Z" transform="translate(-2.168 -1.375)" fill="#fff" fill-rule="evenodd"/>
      <path id="Path_47497" data-name="Path 47497" d="M15.75,2V4.916a.625.625,0,0,0,1.25,0V2a.625.625,0,0,0-1.25,0Z" transform="translate(-3.67 -1.375)" fill="#fff" fill-rule="evenodd"/>
    </g>
  </g>
</svg>
