<svg xmlns="http://www.w3.org/2000/svg" xmlns:xlink="http://www.w3.org/1999/xlink" width="62" height="62" viewBox="0 0 62 62">
  <defs>
    <linearGradient id="linear-gradient" x1="1" y1="0.14" x2="0" y2="0.895" gradientUnits="objectBoundingBox">
      <stop offset="0" stop-color="#9bc622"/>
      <stop offset="1" stop-color="#01bdd6"/>
    </linearGradient>
  </defs>
  <g id="objective-icon-2" transform="translate(-82 -1873)">
    <circle id="Ellipse_273" data-name="Ellipse 273" cx="31" cy="31" r="31" transform="translate(82 1873)" fill="url(#linear-gradient)"/>
    <g id="Group_15997" data-name="Group 15997" transform="translate(92.671 1883.33)">
      <path id="Path_47516" data-name="Path 47516" d="M47.219,32.6A14.611,14.611,0,1,0,29.274,46.827l.033-1.3a13.341,13.341,0,1,1,6.6,0l.033,1.3A14.634,14.634,0,0,0,47.219,32.6Z" transform="translate(-12.279 -12.431)" fill="#fff"/>
      <path id="Path_47517" data-name="Path 47517" d="M39.387,17.241H38.211a17.882,17.882,0,0,0-.966-3.607l1.018-.588a1.269,1.269,0,0,0,.465-1.736L37.139,8.56A1.27,1.27,0,0,0,35.4,8.095l-1.022.589a17.92,17.92,0,0,0-2.638-2.637l.589-1.022a1.272,1.272,0,0,0-.465-1.735L29.119,1.7a1.272,1.272,0,0,0-1.735.465l-.588,1.018a17.842,17.842,0,0,0-3.607-.966V1.041A1.272,1.272,0,0,0,21.917-.229H18.741A1.272,1.272,0,0,0,17.47,1.041V2.218a17.842,17.842,0,0,0-3.607.966l-.588-1.018A1.272,1.272,0,0,0,11.539,1.7L8.789,3.29a1.272,1.272,0,0,0-.465,1.735l.589,1.022A17.92,17.92,0,0,0,6.276,8.684L5.254,8.095a1.27,1.27,0,0,0-1.735.465L1.931,11.31A1.269,1.269,0,0,0,2.4,13.045l1.018.588a17.883,17.883,0,0,0-.966,3.607H1.271A1.272,1.272,0,0,0,0,18.511v3.176a1.272,1.272,0,0,0,1.271,1.271H2.447a17.876,17.876,0,0,0,.966,3.607L2.4,27.154a1.27,1.27,0,0,0-.465,1.736l1.588,2.75a1.27,1.27,0,0,0,1.735.465l1.022-.589a17.92,17.92,0,0,0,2.638,2.637l-.589,1.022a1.272,1.272,0,0,0,.465,1.735L11.54,38.5a1.272,1.272,0,0,0,1.735-.465l.588-1.018a17.822,17.822,0,0,0,3.043.866l.033-1.289a16.545,16.545,0,0,1-3.1-.958.636.636,0,0,0-.8.268l-.864,1.5-2.75-1.589.865-1.5a.635.635,0,0,0-.166-.823,16.678,16.678,0,0,1-3.182-3.182.636.636,0,0,0-.823-.166L4.619,31l-1.588-2.75,1.5-.864a.635.635,0,0,0,.268-.8,16.6,16.6,0,0,1-1.165-4.35A.635.635,0,0,0,3,21.688H1.271V18.511H3a.635.635,0,0,0,.63-.556,16.587,16.587,0,0,1,1.165-4.35.635.635,0,0,0-.268-.8l-1.5-.864L4.619,9.2l1.5.864a.635.635,0,0,0,.823-.166,16.678,16.678,0,0,1,3.182-3.182.635.635,0,0,0,.166-.823l-.865-1.5L12.175,2.8l.864,1.5a.636.636,0,0,0,.8.268A16.59,16.59,0,0,1,18.185,3.4a.635.635,0,0,0,.556-.63V1.041h3.176V2.769a.635.635,0,0,0,.556.63,16.59,16.59,0,0,1,4.35,1.165.636.636,0,0,0,.8-.268l.864-1.5,2.75,1.589-.865,1.5a.635.635,0,0,0,.166.823,16.678,16.678,0,0,1,3.182,3.182.635.635,0,0,0,.823.166l1.5-.865,1.588,2.75-1.5.864a.635.635,0,0,0-.268.8,16.587,16.587,0,0,1,1.165,4.35.635.635,0,0,0,.63.556h1.728v3.176H37.659a.635.635,0,0,0-.63.556,16.6,16.6,0,0,1-1.165,4.35.635.635,0,0,0,.268.8l1.5.864L36.039,31l-1.5-.864a.636.636,0,0,0-.823.166,16.678,16.678,0,0,1-3.182,3.182.635.635,0,0,0-.166.823l.865,1.5L28.483,37.4l-.864-1.5a.635.635,0,0,0-.8-.268,16.544,16.544,0,0,1-3.1.958l.033,1.289a17.822,17.822,0,0,0,3.043-.866l.588,1.019a1.273,1.273,0,0,0,1.736.464l2.75-1.588a1.272,1.272,0,0,0,.465-1.735l-.589-1.022a17.921,17.921,0,0,0,2.638-2.637L35.4,32.1a1.27,1.27,0,0,0,1.735-.465l1.588-2.75a1.27,1.27,0,0,0-.465-1.736l-1.018-.588a17.877,17.877,0,0,0,.966-3.607h1.177a1.272,1.272,0,0,0,1.271-1.271V18.511a1.272,1.272,0,0,0-1.271-1.271Z" fill="#fff"/>
      <path id="Path_47518" data-name="Path 47518" d="M59.273,38.077a1.9,1.9,0,0,1,.563.6.349.349,0,0,0,.139,0,1.9,1.9,0,0,1,.563-.6c0-.01,0-.019,0-.029V32.7a1.906,1.906,0,1,0-1.271,0v5.352C59.27,38.058,59.273,38.067,59.273,38.077Zm.632-7.811a.635.635,0,1,1-.635.635.635.635,0,0,1,.635-.635Z" transform="translate(-39.576 -19.94)" fill="#fff"/>
      <path id="Path_47519" data-name="Path 47519" d="M76.327,49.541h2.238a1.906,1.906,0,1,0,0-1.271H76.071a.634.634,0,0,0-.44.177l-1.985,1.906a.629.629,0,0,0-.1.132,6.016,6.016,0,0,1,1.023.745Zm4.033-1.271a.635.635,0,1,1-.635.635A.635.635,0,0,1,80.359,48.27Z" transform="translate(-50.183 -32.227)" fill="#fff"/>
      <path id="Path_47520" data-name="Path 47520" d="M36.3,50.445l-1.985-1.906a.634.634,0,0,0-.44-.177h-2.31a1.9,1.9,0,1,0,.029,1.271h2.025l1.721,1.652a6.016,6.016,0,0,1,1.042-.743.638.638,0,0,0-.082-.1Zm-6.515-.773a.635.635,0,1,1,.635-.635A.635.635,0,0,1,29.784,49.672Z" transform="translate(-19.024 -32.318)" fill="#fff"/>
      <path id="Path_47521" data-name="Path 47521" d="M58.524,64.926A4.75,4.75,0,0,0,55.717,60.6a.635.635,0,0,0-.9.579v2.889l-1.067.606-1.067-.606V61.183a.635.635,0,0,0-.9-.579,4.732,4.732,0,0,0,.068,8.676l-.31,12.11a.635.635,0,0,0,.619.651h.016a.635.635,0,0,0,.635-.619l.322-12.563a.635.635,0,0,0-.444-.622,3.46,3.46,0,0,1-1.281-5.892v2.1a.635.635,0,0,0,.322.552l1.7.966a.635.635,0,0,0,.627,0l1.7-.966a.635.635,0,0,0,.322-.552v-2.1a3.46,3.46,0,0,1-1.281,5.892.635.635,0,0,0-.444.622l.322,12.564a.635.635,0,0,0,.635.619h.016a.635.635,0,0,0,.619-.651l-.31-12.11A4.723,4.723,0,0,0,58.524,64.926Z" transform="translate(-33.426 -41.472)" fill="#fff"/>
    </g>
  </g>
</svg>
