<svg xmlns="http://www.w3.org/2000/svg" xmlns:xlink="http://www.w3.org/1999/xlink" width="62" height="62" viewBox="0 0 62 62">
  <defs>
    <linearGradient id="linear-gradient" x1="1" y1="0.14" x2="0" y2="0.895" gradientUnits="objectBoundingBox">
      <stop offset="0" stop-color="#9bc622"/>
      <stop offset="1" stop-color="#01bdd6"/>
    </linearGradient>
  </defs>
  <g id="objective-icon-3" transform="translate(-82 -1997)">
    <circle id="Ellipse_274" data-name="Ellipse 274" cx="31" cy="31" r="31" transform="translate(82 1997)" fill="url(#linear-gradient)"/>
    <g id="Group_15995" data-name="Group 15995" transform="translate(91.7 2006.201)">
      <path id="Path_47507" data-name="Path 47507" d="M18.726,40.6a.643.643,0,0,1-.643-.6l-.159-2.32a15.745,15.745,0,0,1-1.9-.5l-1.3,1.923a.643.643,0,0,1-.856.2L9.423,36.723a.643.643,0,0,1-.257-.836L10.184,33.8A17.061,17.061,0,0,1,8.8,32.415L6.712,33.434a.643.643,0,0,1-.836-.257L3.3,28.726a.643.643,0,0,1,.2-.856l1.922-1.3a15.746,15.746,0,0,1-.5-1.9L2.6,24.516a.643.643,0,0,1-.6-.643V18.726a.643.643,0,0,1,.6-.643l2.32-.159a15.746,15.746,0,0,1,.5-1.9L3.5,14.73a.643.643,0,0,1-.2-.856L5.875,9.424a.643.643,0,0,1,.836-.257L8.8,10.185A17.061,17.061,0,0,1,10.184,8.8L9.165,6.714a.643.643,0,0,1,.257-.836L13.873,3.3a.643.643,0,0,1,.856.2l1.3,1.921a15.746,15.746,0,0,1,1.9-.5l.158-2.32a.643.643,0,0,1,.643-.6h5.146a.643.643,0,0,1,.643.6l.158,2.32a15.725,15.725,0,0,1,1.9.5l1.3-1.923a.643.643,0,0,1,.856-.2l1.113.643a.643.643,0,1,1-.643,1.114L28.6,4.717,27.359,6.555A.647.647,0,0,1,26.6,6.8a14.551,14.551,0,0,0-2.643-.7.643.643,0,0,1-.535-.591l-.152-2.218H19.327L19.176,5.5a.643.643,0,0,1-.535.591A14.494,14.494,0,0,0,16,6.8a.643.643,0,0,1-.757-.243L14,4.717,10.586,6.69l.973,1.994a.643.643,0,0,1-.164.772,15.8,15.8,0,0,0-1.933,1.936.643.643,0,0,1-.772.164L6.7,10.584,4.717,14l1.838,1.241A.643.643,0,0,1,6.8,16a14.494,14.494,0,0,0-.7,2.643.643.643,0,0,1-.591.535l-2.218.152v3.945l2.218.152a.643.643,0,0,1,.591.535A14.5,14.5,0,0,0,6.8,26.6a.643.643,0,0,1-.243.757L4.717,28.6,6.69,32.012l1.994-.973a.643.643,0,0,1,.772.164,15.8,15.8,0,0,0,1.936,1.933.643.643,0,0,1,.164.772L10.584,35.9,14,37.875l1.241-1.838A.643.643,0,0,1,16,35.8a14.5,14.5,0,0,0,2.643.7.643.643,0,0,1,.535.591l.193,2.818a.643.643,0,0,1-.6.693Z" transform="translate(0 0)" fill="#fff"/>
      <path id="Path_47508" data-name="Path 47508" d="M34.217,42.346H31.643a.643.643,0,1,1,0-1.287h1.972l.152-2.218a.643.643,0,0,1,.535-.591,14.551,14.551,0,0,0,2.643-.7.643.643,0,0,1,.758.243l1.24,1.838,3.413-1.973-.973-1.994a.643.643,0,0,1,.164-.772,15.89,15.89,0,0,0,1.932-1.936.643.643,0,0,1,.772-.164l1.994.973,1.972-3.413-1.837-1.241a.643.643,0,0,1-.243-.757,14.521,14.521,0,0,0,.7-2.643.643.643,0,0,1,.591-.535l2.225-.154V21.075l-2.218-.151a.643.643,0,0,1-.591-.535,14.522,14.522,0,0,0-.7-2.643.643.643,0,0,1,.243-.757l1.837-1.241-1.972-3.413-1.994.973a.643.643,0,0,1-.772-.164A15.89,15.89,0,0,0,41.55,11.21a.643.643,0,0,1-.164-.772l.973-1.994L41.765,8.1a.643.643,0,1,1,.643-1.114l1.113.643a.643.643,0,0,1,.257.836l-1.019,2.091a17.176,17.176,0,0,1,1.382,1.381l2.09-1.019a.643.643,0,0,1,.836.257l2.573,4.451a.643.643,0,0,1-.2.856l-1.923,1.3a15.866,15.866,0,0,1,.5,1.9l2.316.159a.643.643,0,0,1,.6.638V25.62a.643.643,0,0,1-.6.643l-2.316.159a15.87,15.87,0,0,1-.5,1.9l1.923,1.3a.643.643,0,0,1,.2.856l-2.573,4.451a.643.643,0,0,1-.836.257l-2.09-1.019a17.175,17.175,0,0,1-1.382,1.381l1.019,2.091a.643.643,0,0,1-.257.836l-4.452,2.573a.643.643,0,0,1-.855-.2l-1.3-1.922a15.725,15.725,0,0,1-1.9.5l-.157,2.32A.643.643,0,0,1,34.217,42.346Z" transform="translate(-10.344 -1.748)" fill="#fff"/>
      <path id="Path_47509" data-name="Path 47509" d="M25.223,37.446A12.236,12.236,0,0,1,13,25.223,12.082,12.082,0,0,1,15.679,17.6a.644.644,0,0,1,1,.805,10.814,10.814,0,0,0-2.4,6.819A10.936,10.936,0,1,0,25.223,14.287a10.814,10.814,0,0,0-6.819,2.4.643.643,0,1,1-.8-1A12.082,12.082,0,0,1,25.223,13a12.223,12.223,0,1,1,0,24.446Z" transform="translate(-3.924 -3.924)" fill="#fff"/>
      <path id="Path_47510" data-name="Path 47510" d="M36.508,31.77a.643.643,0,0,1-.455-.188l-1.859-1.859a.643.643,0,0,1-.1-.781,4.5,4.5,0,0,0-2.348-6.528l-.257,1.158a.643.643,0,0,1-1.123.272l-3.217-3.86a.643.643,0,0,1,.241-1l4.5-1.93a.643.643,0,0,1,.882.731l-.188.847a8.315,8.315,0,0,1,2.472,1.207.643.643,0,1,1-.745,1.049,7.012,7.012,0,0,0-2.623-1.158.643.643,0,0,1-.495-.772l.051-.231L28.69,19.816l1.826,2.2.122-.544a.643.643,0,0,1,.758-.49,5.79,5.79,0,0,1,4.044,8.17l.957.957a7.08,7.08,0,0,0-.414-7.552.643.643,0,1,1,1.048-.746,8.363,8.363,0,0,1,0,9.694.643.643,0,0,1-.47.268A.278.278,0,0,0,36.508,31.77Z" transform="translate(-8.917 -5.35)" fill="#fff"/>
      <path id="Path_47511" data-name="Path 47511" d="M25.434,38.808a.643.643,0,0,1-.628-.783l.188-.847a8.311,8.311,0,0,1-2.472-1.207.643.643,0,0,1,.746-1.049A7.008,7.008,0,0,0,25.89,36.08a.643.643,0,0,1,.495.772l-.051.232L28.89,35.99l-1.826-2.2-.121.544a.643.643,0,0,1-.758.491,5.79,5.79,0,0,1-4.045-8.17l-.956-.957a7.076,7.076,0,0,0,.414,7.552A.643.643,0,1,1,20.55,34a8.359,8.359,0,0,1,0-9.694.643.643,0,0,1,.978-.081l1.859,1.859a.643.643,0,0,1,.1.781,4.506,4.506,0,0,0,2.349,6.528l.257-1.158a.643.643,0,0,1,1.122-.272l3.217,3.86a.643.643,0,0,1-.241,1l-4.5,1.93a.636.636,0,0,1-.255.055Z" transform="translate(-6.064 -7.859)" fill="#fff"/>
    </g>
  </g>
</svg>
