<svg xmlns="http://www.w3.org/2000/svg" xmlns:xlink="http://www.w3.org/1999/xlink" width="62" height="62" viewBox="0 0 62 62">
  <defs>
    <linearGradient id="linear-gradient" x1="1" y1="0.14" x2="0" y2="0.895" gradientUnits="objectBoundingBox">
      <stop offset="0" stop-color="#9bc622"/>
      <stop offset="1" stop-color="#01bdd6"/>
    </linearGradient>
  </defs>
  <g id="objective-icon-1" transform="translate(-82 -1749)">
    <circle id="Ellipse_264" data-name="Ellipse 264" cx="31" cy="31" r="31" transform="translate(82 1749)" fill="url(#linear-gradient)"/>
    <path id="Path_47515" data-name="Path 47515" d="M24.168,7.76a.529.529,0,0,1-.526.574.529.529,0,0,1-.526-.574V6.93a.527.527,0,0,1,.526-.574.527.527,0,0,1,.526.574ZM19.1,8.837a.516.516,0,0,1,.054.4.528.528,0,0,1-.644.371.527.527,0,0,1-.32-.244l-.4-.719v0a.525.525,0,0,1,.588-.793.53.53,0,0,1,.318.269l.4.719ZM15.256,12.3a.526.526,0,0,1-.528.911l-.719-.4a.526.526,0,0,1,.528-.911Zm17.3.911a.526.526,0,0,1-.525-.911l.719-.4h0a.522.522,0,0,1,.4-.053.516.516,0,0,1,.317.244.521.521,0,0,1,.054.4.527.527,0,0,1-.245.321ZM29.088,9.362a.525.525,0,1,1-.91-.525l.4-.719v0a.525.525,0,0,1,.91.525l-.418.719Zm-3.461,12.83h1.228a1.228,1.228,0,1,0-1.228-1.228Zm-3.93,0V20.964a1.227,1.227,0,1,0-1.236,1.228Zm2.861,7.624V23.244H22.734v6.572Zm.6-16.533a.528.528,0,0,1,.326-1,6,6,0,0,1,4.1,5.114.526.526,0,0,1-1.046.1,4.945,4.945,0,0,0-3.377-4.215ZM21.114,30.87v1.1a.333.333,0,0,0,.329.334h4.4a.338.338,0,0,0,.334-.334v-1.1ZM27.92,11.825l-.512-.321v0a7.516,7.516,0,0,0-7.55,0,7.659,7.659,0,0,0-2.781,10.42l1.918,3.326v0a.043.043,0,0,1,0,.028,8.969,8.969,0,0,1,1.388,4.542h1.3V23.245h-1.22a2.281,2.281,0,1,1,2.28-2.28v1.228h1.824V20.965a2.282,2.282,0,1,1,2.282,2.28h-1.22v6.572h1.291a9.363,9.363,0,0,1,1.343-4.529L30.2,21.933a7.662,7.662,0,0,0-2.277-10.1Zm-4.8,27.417V35.531h-.667a1.57,1.57,0,0,1-1.256-.891,3.409,3.409,0,0,1-.4-1.45,1.393,1.393,0,0,1-.731-1.22V30.85a.842.842,0,0,1-.731-.835,7.869,7.869,0,0,0-1.22-4.239l-1.936-3.349a8.7,8.7,0,0,1,1.777-10.843,19.073,19.073,0,0,0-8.054-.2V36.922a18.884,18.884,0,0,1,13.216,2.316Zm1.052-3.706v3.706A18.9,18.9,0,0,1,37.38,36.93V11.38a19.077,19.077,0,0,0-8.049.211,8.7,8.7,0,0,1,1.776,10.843l-1.931,3.349a8.223,8.223,0,0,0-1.223,4.33.568.568,0,0,1-.025.171.82.82,0,0,1-.711.565v1.105A1.389,1.389,0,0,1,26.5,33.17c-.071,1.052-.627,2.336-1.724,2.344h-.608Zm-.528-1.059H22.5c-.14,0-.278-.143-.4-.357a2.213,2.213,0,0,1-.245-.764h3.576a2.25,2.25,0,0,1-.247.764c-.127.222-.267.357-.4.362H23.64Zm14.8-21.413V10.951a.522.522,0,0,0-.424-.517,20.023,20.023,0,0,0-9.732.369,8.554,8.554,0,0,0-9.274,0,18.573,18.573,0,0,0-4.569-.795,22.173,22.173,0,0,0-5.125.4.523.523,0,0,0-.461.525v2.114H6.784a.524.524,0,0,0-.523.525v26.9a.525.525,0,0,0,.795.458A16.533,16.533,0,0,1,13.974,39.5v0a39.21,39.21,0,0,1,9.536,1.192.524.524,0,0,0,.293,0q10.728-2.524,16.482.239a.525.525,0,0,0,.751-.5V13.589a.526.526,0,0,0-.525-.525ZM27.025,38.975a18.506,18.506,0,0,1,10.756-.914.523.523,0,0,0,.655-.508V14.11h1.535V39.66q-4.959-2.016-12.946-.685ZM8.847,14.118V37.561a.529.529,0,0,0,.624.517,18.45,18.45,0,0,1,10.792.906c-4.4-.736-9.115-.874-12.949.683V14.118Z" transform="translate(88.791 1755.266)" fill="#fff" fill-rule="evenodd"/>
  </g>
</svg>
