<svg xmlns="http://www.w3.org/2000/svg" xmlns:xlink="http://www.w3.org/1999/xlink" width="62" height="62" viewBox="0 0 62 62">
  <defs>
    <linearGradient id="linear-gradient" x1="1" y1="0.14" x2="0" y2="0.895" gradientUnits="objectBoundingBox">
      <stop offset="0" stop-color="#9bc622"/>
      <stop offset="1" stop-color="#01bdd6"/>
    </linearGradient>
  </defs>
  <g id="objective-icon-5" transform="translate(-720 -1873)">
    <circle id="Ellipse_275" data-name="Ellipse 275" cx="31" cy="31" r="31" transform="translate(720 1873)" fill="url(#linear-gradient)"/>
    <g id="Group_15996" data-name="Group 15996" transform="translate(724.484 1881.006)">
      <path id="Path_47512" data-name="Path 47512" d="M42.714,29.448V17.591c-.061-.007-.114-.021-.168-.028a3.107,3.107,0,1,0-2.8-5.132L29.468,6.5a3.163,3.163,0,0,0,.161-.946,3.113,3.113,0,0,0-6.225,0,3.2,3.2,0,0,0,.161.946L13.282,12.433a3.1,3.1,0,1,0-2.964,5.1V29.45a3.109,3.109,0,1,0,2.964,5.1l10.282,5.936a3.163,3.163,0,0,0-.161.946,3.113,3.113,0,0,0,6.225,0,3.2,3.2,0,0,0-.161-.946L39.75,34.555a3.1,3.1,0,0,0,5.419-2.066,3.129,3.129,0,0,0-2.456-3.04ZM42.05,12.7a1.8,1.8,0,1,1-1.8,1.8A1.8,1.8,0,0,1,42.05,12.7ZM26.516,3.761a1.794,1.794,0,1,1-1.8,1.79A1.8,1.8,0,0,1,26.516,3.761ZM9.184,14.5a1.8,1.8,0,1,1,1.8,1.8A1.8,1.8,0,0,1,9.184,14.5Zm1.8,19.786a1.8,1.8,0,1,1,1.8-1.8A1.8,1.8,0,0,1,10.983,34.285Zm15.534,8.94a1.8,1.8,0,1,1,1.8-1.8A1.8,1.8,0,0,1,26.517,43.225Zm2.295-3.877a3.08,3.08,0,0,0-4.589,0L13.933,33.412a3.016,3.016,0,0,0,.154-.918,3.113,3.113,0,0,0-2.456-3.038l0-11.918A3.114,3.114,0,0,0,14.089,14.5a2.972,2.972,0,0,0-.154-.918L24.224,7.644a3.08,3.08,0,0,0,4.589,0L39.1,13.581a3.016,3.016,0,0,0-.154.918A3.113,3.113,0,0,0,41.4,17.537V29.45a3.114,3.114,0,0,0-2.456,3.038,2.972,2.972,0,0,0,.154.918ZM42.05,34.285a1.8,1.8,0,1,1,1.8-1.8A1.8,1.8,0,0,1,42.05,34.285Z" transform="translate(0)" fill="#fff"/>
      <path id="Path_47513" data-name="Path 47513" d="M43.2,25.8a12.9,12.9,0,0,0-1.8-1.5,12.365,12.365,0,0,0-10.9-1.442,12.309,12.309,0,0,0-4.709,20.351c.3.3.624.59.967.872a12.3,12.3,0,0,0,7.72,2.73H34.5a12.329,12.329,0,0,0,10.074-5.245,12.362,12.362,0,0,0,2.032-9.257A12.09,12.09,0,0,0,43.2,25.8Zm2,6.232a1.565,1.565,0,0,1-.361.074,2.65,2.65,0,0,1-1.127-.322,17.752,17.752,0,0,1-1.945-1.032c-.14-.086-.4-.249-.45-.382a1.294,1.294,0,0,1,.021-.47,2.562,2.562,0,0,0,.028-.853A2.275,2.275,0,0,0,39.839,27.4c-.14-.061-.289-.114-.436-.168a2.867,2.867,0,0,1-.892-.443.646.646,0,0,1-.214-.422c0-.028,0-.074.021-.093.086-.086.4-.061.685-.04a4.384,4.384,0,0,0,.731.021,2.516,2.516,0,0,0,1.349-.55A10.718,10.718,0,0,1,45.2,32.029Zm-18.48-5.3a10.788,10.788,0,0,1,3.924-2.509,1.862,1.862,0,0,1,.4.282c.315.356.14,1.1-.067,1.778-.168.524-.664,2.127.389,3.066a.652.652,0,0,0,.524.161.169.169,0,0,1,.021.107,1.891,1.891,0,0,1-.4.624c-.093.114-.188.235-.275.349a3.639,3.639,0,0,0-.457,3.327c.074.208.175.41.268.617a1.843,1.843,0,0,1,.3,1.025.5.5,0,0,1-.994-.054.661.661,0,0,0-.315-.51,1,1,0,0,0-.946-.047,1.542,1.542,0,0,0-.8,1.127l-.028.208a2.563,2.563,0,0,1-.061.342c-.074-.021-.194-.061-.275-.086a1.67,1.67,0,0,0-1.321-.054,1.186,1.186,0,0,0-.657.885,1.708,1.708,0,0,0,.45,1.435,3.635,3.635,0,0,0,.757.557,3.468,3.468,0,0,1,.463.315,1.714,1.714,0,0,1,.242,1.824,4.019,4.019,0,0,1-.745,1.153c-.135-.121-.268-.249-.4-.375a10.987,10.987,0,0,1,.007-15.549ZM42.272,42.278a10.932,10.932,0,0,1-6.855,3.18,3.459,3.459,0,0,1,.275-.436c.529-.617,1.067-1.221,1.6-1.831l1.689-1.918a1.117,1.117,0,0,0,1.361-.154.8.8,0,0,0,.14-.175,4.274,4.274,0,0,0,.583-1.4,5.785,5.785,0,0,1,1.268.578,2.652,2.652,0,0,1,.939.972,8.989,8.989,0,0,1-1,1.186Zm1.8-2.376A4.36,4.36,0,0,0,43.05,39a8.069,8.069,0,0,0-1.81-.8,1.1,1.1,0,0,0-1.416.892,2.865,2.865,0,0,1-.315.918,1.162,1.162,0,0,0-.6-.147,1.112,1.112,0,0,0-.778.368L36.31,42.3c-.543.61-1.079,1.228-1.636,1.871a4.486,4.486,0,0,0-.7,1.288,11.028,11.028,0,0,1-5.836-2.006,5.241,5.241,0,0,0,.939-1.489A3,3,0,0,0,28.5,38.68a4.02,4.02,0,0,0-.678-.476,2.584,2.584,0,0,1-.5-.349.37.37,0,0,1-.086-.182c.074.021.168.054.242.081a1.6,1.6,0,0,0,1.375.014,1.46,1.46,0,0,0,.664-1.093,1.785,1.785,0,0,0,1.214.578A1.859,1.859,0,0,0,32.628,35.8a2.857,2.857,0,0,0-.4-1.852,5.306,5.306,0,0,1-.221-.5,2.317,2.317,0,0,1,.289-2.106c.067-.1.147-.188.221-.289a2.912,2.912,0,0,0,.664-1.153,1.518,1.518,0,0,0-.476-1.456,1.209,1.209,0,0,0-.61-.289,2.486,2.486,0,0,1,.121-1.5,3.307,3.307,0,0,0-.1-2.9,10.842,10.842,0,0,1,2.367-.261,11.01,11.01,0,0,1,5.345,1.382.894.894,0,0,1-.228.047,2.729,2.729,0,0,1-.517-.021,2.03,2.03,0,0,0-1.724.422,1.441,1.441,0,0,0-.41,1.074,1.954,1.954,0,0,0,.664,1.375,4.127,4.127,0,0,0,1.3.685c.128.047.261.093.389.154.422.175.7.415.738.643a1.729,1.729,0,0,1-.028.443,2.214,2.214,0,0,0,.047,1.114,2.186,2.186,0,0,0,.993,1.046,19.918,19.918,0,0,0,2.092,1.114,3.988,3.988,0,0,0,1.643.443h.093a2.589,2.589,0,0,0,.524-.081A11.012,11.012,0,0,1,44.076,39.9Z" transform="translate(-7.981 -11.011)" fill="#fff"/>
      <path id="Path_47514" data-name="Path 47514" d="M53.465,46.188a4.8,4.8,0,0,0-1.02-1.16,1.939,1.939,0,0,0-1.857-.335,1.512,1.512,0,0,0-.846.946.377.377,0,0,0-.028.081.9.9,0,0,0-.375.268,1.975,1.975,0,0,0-.4,1.032l-.4,2.5a1.869,1.869,0,0,0,.14,1.268,1.3,1.3,0,0,0,1.114.631,1.126,1.126,0,0,0,.214-.021.611.611,0,0,0,.107-.028,2.812,2.812,0,0,0,1.677-1.207,2.573,2.573,0,0,0,.168-.436,1.214,1.214,0,0,1,.107-.268,1.277,1.277,0,0,1,.5-.182,2.029,2.029,0,0,0,1.214-.643,1.608,1.608,0,0,0,.228-1.463,3.678,3.678,0,0,0-.541-.979Zm-.737,1.631a1.282,1.282,0,0,1-.489.182,2.057,2.057,0,0,0-1.207.636,2.088,2.088,0,0,0-.335.692,1.525,1.525,0,0,1-.086.235,1.475,1.475,0,0,1-.811.517,2,2,0,0,1,.033-.356l.4-2.5a1.706,1.706,0,0,1,.067-.315.928.928,0,0,0,.415-.235.887.887,0,0,0,.261-.583.986.986,0,0,1,.086-.175l.007-.007a.709.709,0,0,1,.583.161,3.7,3.7,0,0,1,.731.858,2.619,2.619,0,0,1,.349.6.407.407,0,0,1-.007.282Z" transform="translate(-22.643 -23.487)" fill="#fff"/>
    </g>
  </g>
</svg>
