<svg xmlns="http://www.w3.org/2000/svg" xmlns:xlink="http://www.w3.org/1999/xlink" width="62" height="62" viewBox="0 0 62 62">
  <defs>
    <linearGradient id="linear-gradient" x1="1" y1="0.14" x2="0" y2="0.895" gradientUnits="objectBoundingBox">
      <stop offset="0" stop-color="#9bc622"/>
      <stop offset="1" stop-color="#01bdd6"/>
    </linearGradient>
  </defs>
  <g id="objective-icon-4" transform="translate(-720 -1749)">
    <circle id="Ellipse_276" data-name="Ellipse 276" cx="31" cy="31" r="31" transform="translate(720 1749)" fill="url(#linear-gradient)"/>
    <g id="Group_15998" data-name="Group 15998" transform="translate(730.65 1759.651)">
      <path id="Path_47522" data-name="Path 47522" d="M29.244,15A14.244,14.244,0,1,0,43.488,29.244,14.26,14.26,0,0,0,29.244,15ZM31.3,21.52l-.685-1.089,4.057.444-1.2,3.868-.658-.976a.677.677,0,0,0-.938-.186L20.065,31.41a.678.678,0,0,1-.96-.218l-1.316-2.164a.679.679,0,0,0-.955-.213l-.474.315a13.028,13.028,0,0,1,.14-1.719l.768-.506a.679.679,0,0,1,.525-.1.668.668,0,0,1,.436.315l1.316,2.164a.685.685,0,0,0,.432.31.669.669,0,0,0,.523-.1l10.608-7.035a.679.679,0,0,0,.189-.944ZM19.709,37.885l1.4-.925v2.265a12.937,12.937,0,0,1-1.4-1.342Zm7.5,4.071a12.753,12.753,0,0,1-2.035-.493v-7.2l2.035-1.348Zm6.1-.493a12.922,12.922,0,0,1-2.035.493V30.21l2.035-1.348Zm1.356-.545V28.227a1.016,1.016,0,0,0-1.583-.844l-2.706,1.793a1.009,1.009,0,0,0-.461.855V42.1c-.226.011-.448.035-.679.035s-.453-.022-.679-.035V32.276a1.015,1.015,0,0,0-1.582-.844l-2.7,1.793a1.008,1.008,0,0,0-.463.855v6.838a12.522,12.522,0,0,1-1.356-.736V36.325a1.014,1.014,0,0,0-1.582-.844l-2.032,1.347a12.8,12.8,0,0,1-2.4-6.127L17,30.335l.947,1.555a2.032,2.032,0,0,0,1.294.94,2.055,2.055,0,0,0,.45.051,2.03,2.03,0,0,0,1.132-.343l11.249-7.454.277.412a1.364,1.364,0,0,0,1.359.6,1.383,1.383,0,0,0,1.134-.986l1.132-3.847a1.364,1.364,0,0,0-.17-1.153,1.4,1.4,0,0,0-1.029-.62l-4.014-.407a1.369,1.369,0,0,0-1.342.665,1.35,1.35,0,0,0,.045,1.475l.331.491-9.451,6.267-.946-1.556a2.037,2.037,0,0,0-2.5-.843A12.883,12.883,0,1,1,34.67,40.923Z" transform="translate(-8.896 -8.894)" fill="#fff"/>
      <path id="Path_47523" data-name="Path 47523" d="M40.357,18.372a2.22,2.22,0,0,0-1.812-1.536L36.888,16.6A16.8,16.8,0,0,0,34.7,11.3l1-1.337A2.223,2.223,0,0,0,35.893,7.6a6.5,6.5,0,0,0-1.156-1.634A6.54,6.54,0,0,0,33.1,4.805,2.223,2.223,0,0,0,30.731,5L29.393,6A16.767,16.767,0,0,0,24.1,3.81L23.86,2.154A2.222,2.222,0,0,0,22.325.34a5.949,5.949,0,0,0-3.954,0,2.222,2.222,0,0,0-1.536,1.812L16.6,3.808A16.772,16.772,0,0,0,11.3,6L9.966,5A2.217,2.217,0,0,0,7.594,4.8,6.5,6.5,0,0,0,5.96,5.959,6.563,6.563,0,0,0,4.8,7.594,2.223,2.223,0,0,0,5,9.966L6,11.3a16.767,16.767,0,0,0-2.192,5.3l-1.657.235A2.218,2.218,0,0,0,.34,18.371,6.562,6.562,0,0,0,0,20.348a6.562,6.562,0,0,0,.34,1.978,2.222,2.222,0,0,0,1.812,1.536l1.657.235A16.772,16.772,0,0,0,6,29.393L5,30.73A2.223,2.223,0,0,0,4.8,33.1,6.553,6.553,0,0,0,5.96,34.736a6.5,6.5,0,0,0,1.634,1.156A2.222,2.222,0,0,0,9.966,35.7l1.337-1a16.767,16.767,0,0,0,5.3,2.192l.237,1.657a2.22,2.22,0,0,0,1.536,1.814,6.57,6.57,0,0,0,1.978.34,6.57,6.57,0,0,0,1.978-.34,2.22,2.22,0,0,0,1.536-1.812l.237-1.657a16.8,16.8,0,0,0,5.3-2.192l1.337,1a2.22,2.22,0,0,0,2.372.194,5.92,5.92,0,0,0,2.79-2.79,2.222,2.222,0,0,0-.194-2.372l-1-1.339a16.767,16.767,0,0,0,2.192-5.3l1.657-.237a2.222,2.222,0,0,0,1.814-1.536,6.56,6.56,0,0,0,.34-1.976,6.552,6.552,0,0,0-.34-1.976Zm-1.291,3.542a.874.874,0,0,1-.714.606l-2.127.3a.679.679,0,0,0-.569.541,15.425,15.425,0,0,1-2.351,5.679.679.679,0,0,0,.021.785l1.288,1.719a.879.879,0,0,1,.075.936,4.575,4.575,0,0,1-2.207,2.207.877.877,0,0,1-.936-.075l-1.717-1.288a.676.676,0,0,0-.785-.021,15.435,15.435,0,0,1-5.679,2.351.679.679,0,0,0-.541.569l-.3,2.127a.872.872,0,0,1-.606.712,5.277,5.277,0,0,1-1.564.277,5.323,5.323,0,0,1-1.564-.275.879.879,0,0,1-.606-.714l-.3-2.127a.678.678,0,0,0-.541-.569,15.436,15.436,0,0,1-5.679-2.351.678.678,0,0,0-.785.019L9.155,34.613a.883.883,0,0,1-.936.075,5.251,5.251,0,0,1-1.3-.909,5.306,5.306,0,0,1-.909-1.3.88.88,0,0,1,.075-.936l1.288-1.717a.679.679,0,0,0,.021-.785,15.435,15.435,0,0,1-2.351-5.679.679.679,0,0,0-.569-.541l-2.127-.3a.872.872,0,0,1-.712-.606,5.26,5.26,0,0,1-.277-1.564,5.278,5.278,0,0,1,.277-1.564.872.872,0,0,1,.712-.606l2.127-.3a.679.679,0,0,0,.569-.541A15.425,15.425,0,0,1,7.4,11.657a.679.679,0,0,0-.021-.785L6.087,9.153a.877.877,0,0,1-.075-.935,5.245,5.245,0,0,1,.909-1.3,5.306,5.306,0,0,1,1.3-.909.877.877,0,0,1,.935.075l1.717,1.288a.679.679,0,0,0,.785.021,15.435,15.435,0,0,1,5.679-2.351.677.677,0,0,0,.541-.569l.3-2.127a.873.873,0,0,1,.6-.712,5.286,5.286,0,0,1,1.564-.277,5.323,5.323,0,0,1,1.564.275.874.874,0,0,1,.606.714l.3,2.127a.679.679,0,0,0,.541.569A15.425,15.425,0,0,1,29.04,7.4a.679.679,0,0,0,.785-.021l1.719-1.288a.876.876,0,0,1,.936-.075,5.263,5.263,0,0,1,1.3.909,5.305,5.305,0,0,1,.909,1.3.88.88,0,0,1-.075.936l-1.288,1.717a.679.679,0,0,0-.021.785,15.435,15.435,0,0,1,2.351,5.679.679.679,0,0,0,.569.541l2.127.3a.872.872,0,0,1,.712.606,5.277,5.277,0,0,1,.277,1.564,5.323,5.323,0,0,1-.275,1.564Z" transform="translate(0 0)" fill="#fff"/>
    </g>
  </g>
</svg>
