<svg xmlns="http://www.w3.org/2000/svg" width="13.226" height="13.227" viewBox="0 0 13.226 13.227">
  <path id="partners-link_button-icon" data-name="partners-link button-icon" d="M8.287,10.7a.721.721,0,0,0,0-1.02,2.026,2.026,0,0,1,0-2.866L10.716,4.39a2.026,2.026,0,0,1,2.866,2.866l-.751.75a.721.721,0,0,0,1.02,1.02l.751-.75A3.469,3.469,0,1,0,9.7,3.37L7.267,5.8a3.469,3.469,0,0,0,0,4.906A.721.721,0,0,0,8.287,10.7ZM9.7,7.255a.721.721,0,0,0,0,1.02,2.026,2.026,0,0,1,0,2.866l-2.4,2.4a2.026,2.026,0,1,1-2.865-2.866l.7-.7a.721.721,0,0,0-1.02-1.02l-.7.7a3.469,3.469,0,0,0,4.906,4.906l2.4-2.4a3.469,3.469,0,0,0,0-4.906.721.721,0,0,0-1.02,0Z" transform="translate(-2.391 -2.354)" fill="#fff" fill-rule="evenodd"/>
</svg>
