<?xml version="1.0" encoding="utf-8"?>
<!-- Generator: Adobe Illustrator 19.0.0, SVG Export Plug-In . SVG Version: 6.00 Build 0)  -->
<svg version="1.1" id="Layer_1" xmlns="http://www.w3.org/2000/svg" xmlns:xlink="http://www.w3.org/1999/xlink" x="0px" y="0px"
	 viewBox="-221 378.3 167.9 37.7" style="enable-background:new -221 378.3 167.9 37.7;" xml:space="preserve">
<style type="text/css">
	.st0{clip-path:url(#SVGID_2_);fill:#5E7E64;}
	.st1{clip-path:url(#SVGID_4_);fill:#84B84F;}
	.st2{clip-path:url(#SVGID_6_);fill:#5E7E64;}
	.st3{clip-path:url(#SVGID_8_);fill:#FFFFFF;}
	.st4{clip-path:url(#SVGID_10_);fill:#FFFFFF;}
	.st5{clip-path:url(#SVGID_12_);fill:#FFFFFF;}
	.st6{clip-path:url(#SVGID_14_);fill:#FFFFFF;}
	.st7{clip-path:url(#SVGID_16_);fill:#FFFFFF;}
	.st8{clip-path:url(#SVGID_18_);fill:#FFFFFF;}
</style>
<g>
	<g>
		<g>
			<defs>
				<rect id="SVGID_1_" x="-219.6" y="380.1" width="167.7" height="35.9"/>
			</defs>
			<clipPath id="SVGID_2_">
				<use xlink:href="#SVGID_1_"  style="overflow:visible;"/>
			</clipPath>
			<path class="st0" d="M-188.7,406.6c0.6,0.4,1.2,0.3,1.6,0.1c0.4-0.1,1.1-0.8,1.7-1.5c0.2-0.3,2.2-2.5-0.1-5.1l-7.8-7.9
				c0.6,0,1.2-1.7,0.2-2.8l-7.6-7.6c-1.2-1.1-1.8-1.6-2.7-1.6h-1.2c-0.6,0-0.8,0.5-0.8,1v6.2c0,0.6,0,1.2,0.4,1.5h-13.7
				c-0.4,0-0.8,0.1-1,0.6c-0.2,0.5,0,0.7,0.1,1l9.3,13.2h6.8l4.9-3.6l0.4,0.5l-17.9,13.3c-0.4,0.3-0.5,0.8-0.3,1.1
				c0.1,0.3,0.4,0.8,0.8,0.8h9.9c0.9,0,1.8-0.7,1.8-1.7v-2.8c0-1,0-1,1.3-1h2c-0.6,0.3-1.7,0.9-1.7,0.9c-0.1,0-0.1,0.2-0.2,0.4
				c-0.1,0.2-0.4,1.3-0.4,1.3c-0.1,0.1-0.1,0.2-0.1,0.4s0,0.4,0,0.4h17.6v-1.3h-16c0,0,0.2-0.4,0.3-0.5s2.5-1.3,3.2-1.6h0.9
				c1.9,0,3.1-0.5,4.1-2.1c0,0,2-3.6,2.1-3.8c0.2-0.2,0.7-0.8,1.6-0.7c0.7,0.1,1.3,0.6,1.5,1.3c0.1,0.6-0.2,0.8-0.2,0.9
				C-187.7,406.2-188.3,406.5-188.7,406.6"/>
		</g>
	</g>
	<g>
		<g>
			<defs>
				<rect id="SVGID_3_" x="-219.6" y="380.1" width="167.7" height="35.9"/>
			</defs>
			<clipPath id="SVGID_4_">
				<use xlink:href="#SVGID_3_"  style="overflow:visible;"/>
			</clipPath>
			<path class="st1" d="M-218.1,390.3l8.7,12.3h5.6l5.5-4.1l1.9,2.5l-18.4,13.8h8.3c1,0,1.4-0.3,1.4-1.2v-2.7c0-1.4,0.8-1.6,2.2-1.6
				h2.6h3.3c0.9,0,2.2-0.2,2.8-0.8c0.5-0.5,1.8-3.1,2.3-4c0.3-0.5,0.7-1.5,2.7-1.6c1.4,0,2.4,1.3,2.6,2c0.6-0.6,1.6-2.2,0.1-3.8
				l-8.8-8.7c-1.8-1.7-4.5-1.9-5.6-2C-200.8,390.3-218.1,390.3-218.1,390.3 M-203,381.5c0.9,0.3,5.9,5.6,5.8,5.6
				c2.3,2.4,3.7,3.3,2.8,4.2c-1.1-1-3-2.3-5.9-2.3h-2.7c-0.7,0-1.1-0.3-1.1-1.1v-6.4C-204.1,381.5-203.4,381.4-203,381.5"/>
		</g>
	</g>
	<g>
		<g>
			<defs>
				<rect id="SVGID_5_" x="-219.6" y="380.1" width="167.7" height="35.9"/>
			</defs>
			<clipPath id="SVGID_6_">
				<use xlink:href="#SVGID_5_"  style="overflow:visible;"/>
			</clipPath>
			<path class="st2" d="M-186.1,402.7c0,0.2-0.2,0.5-0.5,0.5c-0.2,0-0.5-0.2-0.5-0.5c0-0.3,0.2-0.5,0.5-0.5
				C-186.4,402.3-186.1,402.5-186.1,402.7"/>
		</g>
	</g>
	<g>
		<g>
			<defs>
				<rect id="SVGID_7_" x="-219.6" y="380.1" width="167.7" height="35.9"/>
			</defs>
			<clipPath id="SVGID_8_">
				<use xlink:href="#SVGID_7_"  style="overflow:visible;"/>
			</clipPath>
			<path class="st3" d="M-181.2,394h5.7h5.1c3.4,0,2.6,2.5,2,3.1c-1.6,1.7-2.9,2.2-4.1,2.9v-5.1h-5.6v15.5h5.6v-5.1
				c0.6-0.2,4-2.1,5.4-2.9c0.5-0.3,2.9-1.8,4.3-4.2c1.1-1.9,0.8-4.4,0-5.9c-0.9-1.6-3-3.3-5.9-3.3h-9.5c-1.1,0-1.9,0.5-2.2,1.6
				C-180.4,390.6-181.2,394-181.2,394"/>
		</g>
	</g>
	<g>
		<g>
			<defs>
				<rect id="SVGID_9_" x="-219.6" y="380.1" width="167.7" height="35.9"/>
			</defs>
			<clipPath id="SVGID_10_">
				<use xlink:href="#SVGID_9_"  style="overflow:visible;"/>
			</clipPath>
			<path class="st4" d="M-89.6,395.1c-0.2-2-0.7-3.2-2.1-4.4c-1.1-0.9-3.1-1.7-5.5-1.7h-12.3h-8c-1.9,0-4.4,0.4-5.5,2.3
				s-0.9,4.3,0.7,6.1l5.6,6.4c0.6,0.9,0.2,1.7-0.6,1.7h-8.8V389h-5.6v7.6l-6.2-7.6h-26.9c2.3,0.9,3.5,2.9,3.7,5h0.5h0.7v16.5h13.5
				l1.3-5h-9.1v-3.4h6.4l1.2-4.9h-7.6V394h11v16.5h5.6v-13.1l6,6.9v6.3h15.6c2.1,0,4.8-0.4,5.9-2.3c1.1-1.8,0.6-4-0.8-6l-5.6-6.5
				c-0.6-0.7-0.7-1.7,0.7-1.7c-0.1,0,16.3,0,16.3,0c3.5,0,3.6,1.9,3.7,2.6c0.4,3.1-0.2,5.4-0.5,6.4c-0.7,2.3-2,2.9-2.9,2.9
				c-0.8,0-2.1-0.5-2.8-3c-0.4-1.3-1.1-5.5-0.1-8h-6.8c-0.2,6,0.9,8.8,1.9,10.6c1.9,3.4,4.5,5.4,7.9,5.4c3.9,0,5.9-2,8-5.4
				C-90.3,403.8-89.2,400.2-89.6,395.1"/>
		</g>
	</g>
	<g>
		<g>
			<defs>
				<rect id="SVGID_11_" x="-219.6" y="380.1" width="167.7" height="35.9"/>
			</defs>
			<clipPath id="SVGID_12_">
				<use xlink:href="#SVGID_11_"  style="overflow:visible;"/>
			</clipPath>
			<path class="st5" d="M-92.3,389c2.3,1.1,3.5,2.5,3.9,5h1.7v15.8c0,2.5,0.5,3.6,0.9,4.5c0,0,5.3-3.3,5.4-3.3
				c-0.5-1.2-0.6-2.4-0.6-3.2v-5.4h6.6l1.4-5h-8V394h13.6v16.5h5.6V394h7.3l-0.8-3.5c-0.3-1.1-1.1-1.5-2.3-1.5H-67H-92.3z"/>
		</g>
	</g>
	<g>
		<g>
			<defs>
				<rect id="SVGID_13_" x="-219.6" y="380.1" width="167.7" height="35.9"/>
			</defs>
			<clipPath id="SVGID_14_">
				<use xlink:href="#SVGID_13_"  style="overflow:visible;"/>
			</clipPath>
			<rect x="-81.4" y="412.6" class="st6" width="19.6" height="1.3"/>
		</g>
	</g>
	<g>
		<g>
			<defs>
				<rect id="SVGID_15_" x="-219.6" y="380.1" width="167.7" height="35.9"/>
			</defs>
			<clipPath id="SVGID_16_">
				<use xlink:href="#SVGID_15_"  style="overflow:visible;"/>
			</clipPath>
			<polygon class="st7" points="-185.1,412.6 -87.6,412.6 -87.6,413.9 -185.1,413.9 			"/>
		</g>
	</g>
	<g>
		<g>
			<defs>
				<rect id="SVGID_17_" x="-219.6" y="380.1" width="167.7" height="35.9"/>
			</defs>
			<clipPath id="SVGID_18_">
				<use xlink:href="#SVGID_17_"  style="overflow:visible;"/>
			</clipPath>
			<path class="st8" d="M-57,412.4h0.6v-1.1h0.6c0.4,0,0.4,0.1,0.4,0.5c0,0.3,0,0.4,0.1,0.6h0.6v-0.1c-0.1,0-0.1-0.1-0.1-0.6
				s-0.1-0.6-0.3-0.7c0.3-0.1,0.4-0.4,0.4-0.7c0-0.2-0.1-0.8-0.9-0.8H-57L-57,412.4L-57,412.4z M-56.4,410.8v-0.7h0.7
				c0.3,0,0.4,0.2,0.4,0.4c0,0.3-0.1,0.4-0.5,0.4h-0.6V410.8z M-58.2,411c0,1.3,1.1,2.4,2.4,2.4s2.4-1.1,2.4-2.4
				c0-1.3-1.1-2.4-2.4-2.4C-57.2,408.6-58.2,409.7-58.2,411 M-52.8,411c0,1.7-1.4,3.1-3.1,3.1s-3.1-1.4-3.1-3.1
				c0-1.7,1.4-3.1,3.1-3.1S-52.8,409.3-52.8,411"/>
		</g>
	</g>
</g>
</svg>
