<?xml version="1.0" encoding="utf-8"?>
<!-- Generator: Adobe Illustrator 19.0.0, SVG Export Plug-In . SVG Version: 6.00 Build 0)  -->
<svg version="1.1" id="Layer_1" xmlns="http://www.w3.org/2000/svg" xmlns:xlink="http://www.w3.org/1999/xlink" x="0px" y="0px"
	 viewBox="680 -185.2 1600 610.2" style="enable-background:new 680 -185.2 1600 610.2;" xml:space="preserve">
<g>
	<path d="M1461.9,193.6h-26.1c0.1,0.8,0.2,1.5,0.2,2.3c0,7.6-6.2,13.8-13.8,13.8s-13.8-6.2-13.8-13.8c0-0.8,0.1-1.6,0.2-2.3h-84.9
		c0.8,2.8,1.3,5.7,1.3,8.7c0,16.3-13.2,29.5-29.5,29.5c-16.3,0-29.5-13.2-29.5-29.5c0-3,0.4-5.9,1.3-8.7h-28.7
		c0,0.2,0.1,0.3,0.1,0.5c4.9,21-8.2,42-29.2,46.8c-21,4.9-42-8.2-46.8-29.2c-1.4-6.2-1.3-12.4,0.1-18.1H1125
		c0,16.3-13.2,29.5-29.5,29.5c-16.3,0-29.5-13.2-29.5-29.5H931.6c0.2,1.4,0.4,2.9,0.4,4.3c0,13.9-11.2,25.1-25.1,25.1
		c-13.9,0-25.1-11.3-25.1-25.1c0-1.5,0.1-2.9,0.4-4.3h-43.1c-10.5,0-20,4.3-26.9,11.1c-6.9,6.9-11.1,16.4-11.1,26.9
		c0,15.7,9.5,29.1,23,34.9c-0.7-2.5-1.1-5.2-1.1-8c0-16.3,13.2-29.5,29.5-29.5c16.3,0,29.5,13.2,29.5,29.5c0,3.9-0.8,7.7-2.1,11.1
		h129.3c4.2-11.1,15-19.1,27.6-19.1s23.4,7.9,27.6,19.1h233.2c4.2-11.1,15-19.1,27.6-19.1s23.4,7.9,27.6,19.1h109.5
		c10.5,0,20-4.3,26.9-11.1c6.9-6.9,11.1-16.4,11.1-26.9C1499.9,210.6,1482.9,193.6,1461.9,193.6z M832.5,222c-5.4,0-9.8-4.4-9.8-9.8
		s4.4-9.8,9.8-9.8s9.8,4.4,9.8,9.8C842.3,217.6,837.9,222,832.5,222z M971.5,258.6c-10.8,0-19.5-8.7-19.5-19.5s8.7-19.5,19.5-19.5
		s19.5,8.8,19.5,19.5C991,249.9,982.3,258.6,971.5,258.6z M1036.5,226c-5.4,0-9.8-4.4-9.8-9.8s4.4-9.8,9.8-9.8s9.8,4.4,9.8,9.8
		S1041.9,226,1036.5,226z M1132.7,260.7c-7.7,0-13.8-6.2-13.8-13.8c0-7.6,6.2-13.8,13.8-13.8c7.6,0,13.8,6.2,13.8,13.8
		C1146.5,254.5,1140.3,260.7,1132.7,260.7z M1256.1,254.6c-5.4,0-9.8-4.4-9.8-9.8s4.4-9.8,9.8-9.8s9.8,4.4,9.8,9.8
		C1265.9,250.2,1261.5,254.6,1256.1,254.6z M1365.4,231c-7.9,0-14.3-6.4-14.3-14.3s6.4-14.3,14.3-14.3s14.3,6.4,14.3,14.3
		C1379.7,224.6,1373.3,231,1365.4,231z M1409,258.6c-5.4,0-9.8-4.4-9.8-9.8s4.4-9.8,9.8-9.8c5.4,0,9.8,4.4,9.8,9.8
		S1414.4,258.6,1409,258.6z M1464.2,251.3c-10.8,0-19.5-8.8-19.5-19.5c0-10.8,8.7-19.5,19.5-19.5c10.8,0,19.5,8.7,19.5,19.5
		C1483.7,242.5,1475,251.3,1464.2,251.3z"/>
	<path d="M1461.9,288h-108.7c-3.5,12.4-14.9,21.6-28.4,21.6c-13.6,0-25-9.2-28.4-21.6h-231.5c-3.5,12.4-14.9,21.6-28.4,21.6
		c-13.6,0-25-9.2-28.4-21.6h-39.9c0.3,1.1,0.4,2.3,0.4,3.6c0,9.2-7.4,16.6-16.6,16.6s-16.6-7.4-16.6-16.6c0-1.2,0.1-2.4,0.4-3.6H839
		c-10.5,0-20,4.3-26.9,11.1C805.2,306,801,315.5,801,326c0,21,17,38.1,38.1,38.1h30.8c2-12.9,13.2-22.8,26.7-22.8
		s24.7,9.9,26.7,22.8h83.7v-0.4c0-16.3,13.2-29.5,29.5-29.5c16.3,0,29.5,13.2,29.5,29.5v0.4h127.2c0-0.1,0-0.3,0-0.4
		c0-5.4,4.4-9.8,9.8-9.8c5.4,0,9.8,4.4,9.8,9.8c0,0.1,0,0.3,0,0.4h97.2c-0.4-2-0.6-4-0.6-6.2c0-16.3,13.2-29.5,29.5-29.5
		s29.5,13.2,29.5,29.5c0,2.1-0.2,4.2-0.7,6.2h51.3c0-10.8,8.8-19.5,19.5-19.5c10.8,0,19.6,8.7,19.6,19.5h4c10.5,0,20-4.3,26.9-11.1
		c6.9-6.9,11.1-16.4,11.1-26.9C1499.9,305,1482.9,288,1461.9,288z M840.6,340.4c-9.9,0-17.8-8-17.8-17.8s8-17.8,17.8-17.8
		c9.8,0,17.8,8,17.8,17.8S850.4,340.4,840.6,340.4z M890.2,324.3c-5.4,0-9.8-4.4-9.8-9.8s4.4-9.8,9.8-9.8c5.4,0,9.8,4.4,9.8,9.8
		S895.6,324.3,890.2,324.3z M977.1,352.4c-5.4,0-9.8-4.4-9.8-9.8c0-5.4,4.4-9.8,9.8-9.8c5.4,0,9.8,4.4,9.8,9.8
		C986.9,348,982.5,352.4,977.1,352.4z M1102.2,342.6c-9.2,0-16.6-7.4-16.6-16.6c0-9.2,7.4-16.6,16.6-16.6c9.2,0,16.6,7.4,16.6,16.6
		C1118.9,335.2,1111.4,342.6,1102.2,342.6z M1169.5,337.5c-12.7,0-23-10.3-23-23s10.3-23,23-23s23,10.3,23,23
		C1192.4,327.2,1182.2,337.5,1169.5,337.5z M1260.1,341.4c-7.1,0-12.9-5.8-12.9-12.9c0-7.1,5.8-12.9,12.9-12.9s12.9,5.8,12.9,12.9
		C1273,335.6,1267.2,341.4,1260.1,341.4z M1389.5,324.3c-5.4,0-9.8-4.4-9.8-9.8s4.4-9.8,9.8-9.8c5.4,0,9.8,4.4,9.8,9.8
		S1394.9,324.3,1389.5,324.3z M1467.2,332.9c-7.1,0-12.9-5.8-12.9-12.9s5.8-12.9,12.9-12.9c7.1,0,12.9,5.8,12.9,12.9
		C1480.1,327.1,1474.3,332.9,1467.2,332.9z"/>
	<g>
		<path d="M1077.5,146c-15.6,0-31-3-46-8.9c-15.1-5.9-28.4-14.2-40.2-24.8l23.2-29.3c11.3,10,22.3,17.3,32.8,21.9s21.6,6.8,33.3,6.8
			c8.2,0,15.2-1,21.2-2.9c6-2,10.6-4.8,13.8-8.5c3.3-3.7,4.9-8.1,4.9-13.1c0-6.7-2.4-11.9-7.3-15.6c-4.8-3.7-13.1-6.5-24.8-8.4
			l-38.8-6.7c-16.6-3-29.2-8.9-37.9-17.7s-13.1-20.3-13.1-34.5c0-12.1,3.2-22.5,9.5-31.4c6.3-8.8,15.2-15.6,26.6-20.4
			c11.4-4.7,25.1-7.1,40.9-7.1c14.1,0,28.4,2.4,42.8,7.1c14.4,4.7,27,11.5,37.8,20.2l-21.8,29.9c-20.5-15.6-41-23.4-61.7-23.4
			c-7.3,0-13.6,0.9-19,2.8c-5.4,1.9-9.5,4.4-12.4,7.7c-2.9,3.3-4.3,7-4.3,11.3c0,6.3,2.2,11.1,6.6,14.2c4.4,3.2,11.5,5.7,21.3,7.5
			l36.8,5.9c19.5,3.2,34.2,9.3,43.9,18.5c9.8,9.2,14.6,21.3,14.6,36.4c0,12.7-3.4,23.6-10.2,32.9s-16.4,16.6-28.7,21.8
			C1109.1,143.4,1094.4,146,1077.5,146z"/>
		<path d="M1181.8,206.3V-2.1h37.7v12C1231.2,0.6,1245-4,1260.8-4c13.8-0.2,26.2,3.1,37.4,9.8c11.2,6.7,20,15.7,26.6,26.9
			c6.6,11.3,9.9,23.9,9.9,38.1c0,13.9-3.4,26.5-10,37.8c-6.6,11.3-15.7,20.2-27.1,26.8c-11.3,6.6-24,9.9-37.9,9.9
			c-7.4,0-14.5-1-21.1-3.1c-6.6-2-12.8-4.9-18.5-8.6v72.8c0,10.6-8.6,19.1-19.1,19.1l0,0C1190.4,225.4,1181.8,216.8,1181.8,206.3z
			 M1254.6,112.8c8,0,15.2-1.8,21.6-5.4c6.4-3.6,11.5-8.7,15.2-15.2c3.7-6.5,5.6-13.7,5.6-21.5c0-8-1.9-15.2-5.6-21.5
			s-8.8-11.3-15.2-15.1c-6.4-3.7-13.6-5.6-21.6-5.6c-7.1,0-13.6,1.2-19.5,3.5c-6,2.3-11,5.8-15.1,10.5v56.6c4.1,4.3,9.2,7.6,15.2,10
			C1241.3,111.6,1247.8,112.8,1254.6,112.8z"/>
		<path d="M1428.7,146c-14.5,0-27.6-3.3-39.3-10s-21-15.8-27.9-27.2c-6.9-11.4-10.3-24.1-10.3-38.1c0-14.1,3.4-26.9,10.3-38.4
			c6.9-11.4,16.2-20.5,27.9-27.1s24.8-9.9,39.3-9.9c14.7,0,27.9,3.3,39.6,9.9c11.7,6.6,21,15.6,27.9,27.1
			c6.9,11.4,10.3,24.2,10.3,38.4c0,13.9-3.4,26.6-10.3,38.1c-6.9,11.4-16.2,20.5-27.9,27.2C1456.6,142.7,1443.4,146,1428.7,146z
			 M1428.7,112.8c7.6,0,14.5-1.9,20.6-5.7c6.1-3.8,11-8.9,14.5-15.2c3.5-6.3,5.3-13.5,5.3-21.5c0-7.8-1.8-14.9-5.4-21.2
			c-3.6-6.3-8.5-11.3-14.5-15.1c-6.1-3.7-12.8-5.6-20.2-5.6c-7.6,0-14.5,1.9-20.6,5.6c-6.1,3.7-11,8.7-14.5,15.1
			c-3.5,6.3-5.3,13.4-5.3,21.2c0,8,1.8,15.2,5.3,21.5s8.3,11.4,14.4,15.2C1414.2,110.9,1421.1,112.8,1428.7,112.8z"/>
		<path d="M1521.2,143.2V-2.1h38.2v12c11.2-9.9,24.8-14.8,41-14.8c11.2,0,21.1,2.5,29.7,7.4c8.6,4.9,15.4,11.7,20.2,20.4
			c4.8,8.6,7.3,18.6,7.3,30v90.4h-37.9V58.8c0-9.5-2.7-17-8.2-22.5s-12.9-8.2-22.2-8.2c-6.5,0-12.3,1.3-17.3,3.8s-9.2,6.1-12.6,10.7
			v100.7h-38.2V143.2z"/>
		<path d="M1760.3,202.9c-11.3,0-22.2-1.2-32.6-3.5c-4-0.9-7.9-1.9-11.6-3.1c-9.3-2.9-13.9-13.3-9.9-22.1l0,0
			c3.5-7.6,12.2-11.4,20.1-8.6c3.4,1.2,6.8,2.2,10.1,3.1c7.6,2,15.3,2.9,23.2,2.9c11.2,0,19.7-2.5,25.5-7.4
			c5.9-4.9,8.8-12.2,8.8-21.9v-11.4c-11.9,8.6-25.2,12.8-39.9,12.8c-13.6,0-26-3.3-37.2-9.9c-11.3-6.6-20.1-15.5-26.6-26.8
			s-9.8-23.8-9.8-37.5c0-13.8,3.3-26.2,9.9-37.4c6.6-11.2,15.6-20,26.9-26.5c11.3-6.5,24.1-9.8,38.2-9.8c6.9,0,13.7,1,20.4,2.9
			c6.7,2,12.8,4.8,18.4,8.5v-9.5h37.9v145.1c0,19.2-6.2,33.9-18.6,44.4C1801.1,197.7,1783.4,202.9,1760.3,202.9z M1760,111.7
			c6.9,0,13.2-1.2,19-3.5s10.7-5.6,14.8-9.9V41.7c-4.3-4.3-9.3-7.5-15.1-9.8s-12-3.3-18.7-3.3c-8,0-15.2,1.8-21.5,5.4
			c-6.3,3.6-11.3,8.6-15.1,14.8c-3.7,6.2-5.6,13.2-5.6,20.8c0,8,1.8,15.2,5.4,21.5s8.6,11.3,15.1,15.1
			C1744.8,109.8,1752,111.7,1760,111.7z"/>
		<path d="M1933,146c-14.5,0-27.7-3.4-39.5-10.2c-11.8-6.8-21.2-15.8-28-27.1c-6.9-11.2-10.3-23.9-10.3-38.1
			c0-13.9,3.3-26.6,9.9-38.1c6.6-11.4,15.6-20.5,26.9-27.2s23.9-10,37.7-10c14,0,26.4,3.4,37.2,10.2c10.9,6.8,19.4,16,25.7,27.8
			c6.2,11.7,9.3,25.1,9.3,40.2v10h-107.7c1.7,5.8,4.5,11,8.4,15.6s8.7,8.2,14.2,10.7c5.6,2.5,11.6,3.8,18.1,3.8
			c6.3,0,12.3-1,17.9-2.9c1.9-0.7,3.6-1.4,5.3-2.2c6-3,13.2-2.4,18.2,2.1l0.9,0.8c8.2,7.5,6.3,20.8-3.6,25.7
			c-2.9,1.5-5.9,2.7-8.9,3.8C1955.3,144.3,1944.7,146,1933,146z M1893.7,56.2h70.9c-1.5-5.8-4-10.8-7.4-15.2s-7.6-7.8-12.4-10.2
			s-10-3.6-15.6-3.6c-6,0-11.4,1.2-16.2,3.5c-4.8,2.3-8.9,5.7-12.1,10C1897.5,45.1,1895.1,50.2,1893.7,56.2z"/>
	</g>
	<g>
		<path d="M1519.4,364.1V168.8h91.8c13.2,0,24.7,2.2,34.6,6.7c9.8,4.5,17.6,10.7,23.1,18.8c5.6,8.1,8.4,17.4,8.4,28
			c0,8.7-2.1,16.6-6.4,23.6c-4.3,7-10.3,12.9-18.1,17.7c9.7,4.1,17.3,10,23,17.7c5.7,7.7,8.5,16.4,8.5,26.1
			c0,11.3-2.9,21.2-8.7,29.7s-13.8,15.1-24,19.8s-22.1,7.1-35.7,7.1L1519.4,364.1L1519.4,364.1z M1559.8,248.9h48.8
			c8.7,0,15.6-2.1,20.6-6.4s7.5-9.9,7.5-17s-2.5-12.7-7.5-16.9c-5-4.2-11.9-6.3-20.6-6.3h-48.8V248.9z M1559.8,330.6h52.7
			c9.5,0,17-2.3,22.5-6.8c5.5-4.6,8.2-10.6,8.2-18.3c0-7.6-2.7-13.8-8.2-18.4s-13-7-22.5-7h-52.7V330.6z"/>
		<path d="M1769.5,366.9c-14.5,0-27.6-3.3-39.3-10c-11.7-6.7-21-15.8-27.9-27.2c-6.9-11.4-10.3-24.1-10.3-38.1
			c0-14.1,3.4-26.9,10.3-38.4c6.9-11.4,16.2-20.5,27.9-27.1c11.7-6.6,24.8-9.9,39.3-9.9c14.7,0,27.9,3.3,39.6,9.9s21,15.6,27.9,27.1
			c6.9,11.4,10.3,24.2,10.3,38.4c0,13.9-3.4,26.6-10.3,38.1c-6.9,11.4-16.2,20.5-27.9,27.2C1797.4,363.5,1784.2,366.9,1769.5,366.9z
			 M1769.5,333.7c7.6,0,14.5-1.9,20.6-5.7s11-8.9,14.5-15.2c3.5-6.3,5.3-13.5,5.3-21.5c0-7.8-1.8-14.9-5.4-21.2
			c-3.6-6.3-8.5-11.3-14.5-15.1c-6.1-3.7-12.8-5.6-20.2-5.6c-7.6,0-14.5,1.9-20.6,5.6s-11,8.7-14.5,15.1c-3.5,6.3-5.3,13.4-5.3,21.2
			c0,8,1.8,15.2,5.3,21.5s8.3,11.4,14.4,15.2C1755.1,331.8,1761.9,333.7,1769.5,333.7z"/>
		<path d="M1932.9,366.9c-14.5,0-27.6-3.3-39.3-10c-11.7-6.7-21-15.8-27.9-27.2c-6.9-11.4-10.3-24.1-10.3-38.1
			c0-14.1,3.4-26.9,10.3-38.4c6.9-11.4,16.2-20.5,27.9-27.1c11.7-6.6,24.8-9.9,39.3-9.9c14.7,0,27.9,3.3,39.6,9.9s21,15.6,27.9,27.1
			c6.9,11.4,10.3,24.2,10.3,38.4c0,13.9-3.4,26.6-10.3,38.1c-6.9,11.4-16.2,20.5-27.9,27.2C1960.8,363.5,1947.6,366.9,1932.9,366.9z
			 M1932.9,333.7c7.6,0,14.5-1.9,20.6-5.7s11-8.9,14.5-15.2c3.5-6.3,5.3-13.5,5.3-21.5c0-7.8-1.8-14.9-5.4-21.2
			c-3.6-6.3-8.5-11.3-14.5-15.1c-6.1-3.7-12.8-5.6-20.2-5.6c-7.6,0-14.5,1.9-20.6,5.6s-11,8.7-14.5,15.1c-3.5,6.3-5.3,13.4-5.3,21.2
			c0,8,1.8,15.2,5.3,21.5s8.3,11.4,14.4,15.2C1918.4,331.8,1925.3,333.7,1932.9,333.7z"/>
		<path d="M2078.9,366.9c-13-0.1-25.2-2-36.6-5.5c-4.7-1.4-9-3.1-13.2-5.1c-9.1-4.2-11.9-15.9-5.8-23.9l0,0
			c4.7-6.2,13.3-8.2,20.1-4.4c4.3,2.3,8.4,4.2,12.5,5.7c7.7,2.9,15.3,4.3,23,4.4c8.6,0.1,15.4-1.3,20.5-4.1
			c5.1-2.8,7.7-6.6,7.8-11.2c0-3.7-1.4-6.7-4.2-9c-2.9-2.3-7.5-3.9-13.8-4.9l-27.9-4.4c-14.3-2.4-25.2-7.2-32.7-14.4
			c-7.5-7.2-11.1-16.7-11-28.4c0.1-9.5,2.6-17.6,7.6-24.5c5-6.8,12.1-12.1,21.2-15.7s19.8-5.4,31.8-5.3c10.8,0.1,21.2,1.7,31.3,4.8
			c4,1.2,8,2.7,11.8,4.4c9.1,4.1,12.2,15.5,6.1,23.4l0,0c-4.4,5.9-12.4,7.8-19,4.6c-4.1-2-8.1-3.7-12-4.9
			c-7.3-2.3-14.6-3.5-21.9-3.5c-6.7-0.1-12.2,1.2-16.5,3.8c-4.3,2.6-6.5,6-6.5,10.3c0,3.9,1.4,7,4.4,9.2c3,2.3,8,4,15,5.2l27.9,4.2
			c14.5,2.2,25.5,6.9,33.1,14.3c7.6,7.3,11.3,16.6,11.2,27.7c-0.1,9.3-2.9,17.5-8.6,24.6c-5.6,7.1-13.3,12.7-22.9,16.8
			C2102.1,365,2091.1,367,2078.9,366.9z"/>
		<path d="M2228.5,366.3c-16,0-28.1-3.7-36.4-11c-8.3-7.3-12.4-18.1-12.4-32.2v-72.3h-13.8c-8.9,0-16-7.2-16-16l0,0
			c0-8.9,7.2-16,16-16h13.8v-37.1l37.9-8.6v45.8h25.8c8.9,0,16,7.2,16,16l0,0c0,8.9-7.2,16-16,16h-25.8v64.4
			c0,6.7,1.5,11.5,4.6,14.4c3.1,2.9,8.2,4.3,15.5,4.3c3.9,0,7.4-0.2,10.5-0.7h0.1c5.3-0.8,10.1,3.1,10.1,8.5v13.8
			c0,4.1-2.9,7.6-7,8.5c-2.3,0.5-4.8,0.9-7.6,1.2C2238.1,365.9,2233,366.3,2228.5,366.3z"/>
	</g>
	<path d="M980,67c0.1,4.7-0.4,9.5-1.2,14.1c-1.7,9-5,17.8-9.9,25.6c-7,11.2-17.3,20.5-29.2,26.3c-4.7,2.3-9.7,4-14.8,5.1
		c-13.2,2.8-26.1-1.9-39.2-3c-8.7-0.7-17.8,0.4-26,3.8c-0.1,0-0.1,0-0.2,0.1c-9.7,4-13.7,10.9-18.9,19.5c-0.1,0.1-0.2,0.2-0.3,0.2
		c-0.4,6.3-1.1,12.5-2.2,18.4c0,0-12.4,1.9-12.2,0c1.8-17.6,3.2-45.1-6-60.9c-7.8-13.4-19.4-24.8-32.4-33.1
		c-19.4-12.4-42.2-19.6-57.7-37.5c-21.2-24.4-31.3-58.2-28.7-90.4c1.3-16,5.7-31.7,12.9-46.1c3.6-7.4,8-14.4,13-20.9
		c2.3-3,11.7-11.2,11.8-15.2c-0.7,32.2,33,53.8,33,53.8C914,22,846,95.4,846,95.4C839.7-4.3,745.5-57.1,744.1-57.9
		C766.4-42.8,785.3-23,800-0.3c15.5,24,26.1,50.9,32.2,78.9c4.4,20.3,8.1,43.4,8.3,65.8c4.6-5.9,9.7-11.5,15-16.7
		c-0.5-2.4-0.8-4.8-1-7.3c0-0.7-0.1-1.5-0.1-2.2c0-0.4,0-0.8,0-1.1V117c0.4-8.7,4.6-31.6,36.5-42.4c13.1-4.4,31-6.8,55.2-5.3
		c0,0,22.8,1.9,33.5-13.1C978.4,57.8,979.9,64.8,980,67z"/>
	<path d="M855.2,288c-1,0.1-2,0.1-3,0.1s-2-0.1-3-0.1H855.2z"/>
</g>
</svg>
