<?xml version="1.0" encoding="utf-8"?>
<!-- Generator: Adobe Illustrator 28.1.0, SVG Export Plug-In . SVG Version: 6.00 Build 0)  -->
<svg version="1.1" id="Layer_1" xmlns="http://www.w3.org/2000/svg" xmlns:xlink="http://www.w3.org/1999/xlink" x="0px" y="0px"
	 viewBox="0 0 1600 610.2" style="enable-background:new 0 0 1600 610.2;" xml:space="preserve">
<style type="text/css">
	.st0{fill:#FFFFFF;}
	.st1{fill:#231F20;}
	.st2{fill:#8E4C00;}
	.st3{fill:#00BDD6;}
	.st4{fill:#9BC622;}
</style>
<g>
	<path class="st0" d="M781.9,378.8h-26.1c0.1,0.8,0.2,1.5,0.2,2.3c0,7.6-6.2,13.8-13.8,13.8c-7.6,0-13.8-6.2-13.8-13.8
		c0-0.8,0.1-1.6,0.2-2.3h-84.9c0.8,2.8,1.3,5.7,1.3,8.7c0,16.3-13.2,29.5-29.5,29.5c-16.3,0-29.5-13.2-29.5-29.5
		c0-3,0.4-5.9,1.3-8.7h-28.7c0,0.2,0.1,0.3,0.1,0.5c4.9,21-8.2,42-29.2,46.8c-21,4.9-42-8.2-46.8-29.2c-1.4-6.2-1.3-12.4,0.1-18.1
		h-37.8c0,16.3-13.2,29.5-29.5,29.5c-16.3,0-29.5-13.2-29.5-29.5H251.6c0.2,1.4,0.4,2.9,0.4,4.3c0,13.9-11.2,25.1-25.1,25.1
		c-13.9,0-25.1-11.3-25.1-25.1c0-1.5,0.1-2.9,0.4-4.3h-43.1c-10.5,0-20,4.3-26.9,11.1c-6.9,6.9-11.1,16.4-11.1,26.9
		c0,15.7,9.5,29.1,23,34.9c-0.7-2.5-1.1-5.2-1.1-8c0-16.3,13.2-29.5,29.5-29.5c16.3,0,29.5,13.2,29.5,29.5c0,3.9-0.8,7.7-2.1,11.1
		h129.3c4.2-11.1,15-19.1,27.6-19.1c12.6,0,23.4,7.9,27.6,19.1h233.2c4.2-11.1,15-19.1,27.6-19.1c12.6,0,23.4,7.9,27.6,19.1h109.5
		c10.5,0,20-4.3,26.9-11.1c6.9-6.9,11.1-16.4,11.1-26.9C819.9,395.8,802.9,378.8,781.9,378.8z M152.5,407.2c-5.4,0-9.8-4.4-9.8-9.8
		c0-5.4,4.4-9.8,9.8-9.8c5.4,0,9.8,4.4,9.8,9.8C162.3,402.8,157.9,407.2,152.5,407.2z M291.5,443.8c-10.8,0-19.5-8.7-19.5-19.5
		c0-10.8,8.7-19.5,19.5-19.5c10.8,0,19.5,8.8,19.5,19.5C311,435.1,302.3,443.8,291.5,443.8z M356.5,411.2c-5.4,0-9.8-4.4-9.8-9.8
		s4.4-9.8,9.8-9.8c5.4,0,9.8,4.4,9.8,9.8S361.9,411.2,356.5,411.2z M452.7,445.9c-7.7,0-13.8-6.2-13.8-13.8
		c0-7.6,6.2-13.8,13.8-13.8c7.6,0,13.8,6.2,13.8,13.8C466.5,439.7,460.3,445.9,452.7,445.9z M576.1,439.8c-5.4,0-9.8-4.4-9.8-9.8
		c0-5.4,4.4-9.8,9.8-9.8c5.4,0,9.8,4.4,9.8,9.8C585.9,435.4,581.5,439.8,576.1,439.8z M685.4,416.2c-7.9,0-14.3-6.4-14.3-14.3
		c0-7.9,6.4-14.3,14.3-14.3c7.9,0,14.3,6.4,14.3,14.3C699.7,409.8,693.3,416.2,685.4,416.2z M729,443.8c-5.4,0-9.8-4.4-9.8-9.8
		c0-5.4,4.4-9.8,9.8-9.8c5.4,0,9.8,4.4,9.8,9.8C738.8,439.4,734.4,443.8,729,443.8z M784.2,436.5c-10.8,0-19.5-8.8-19.5-19.5
		c0-10.8,8.7-19.5,19.5-19.5c10.8,0,19.5,8.7,19.5,19.5C803.7,427.7,795,436.5,784.2,436.5z"/>
	<path class="st0" d="M781.9,473.2H673.2c-3.5,12.4-14.9,21.6-28.4,21.6c-13.6,0-25-9.2-28.4-21.6H384.9
		c-3.5,12.4-14.9,21.6-28.4,21.6c-13.6,0-25-9.2-28.4-21.6h-39.9c0.3,1.1,0.4,2.3,0.4,3.6c0,9.2-7.4,16.6-16.6,16.6
		c-9.2,0-16.6-7.4-16.6-16.6c0-1.2,0.1-2.4,0.4-3.6h-96.8c-10.5,0-20,4.3-26.9,11.1c-6.9,6.9-11.1,16.4-11.1,26.9
		c0,21,17,38.1,38.1,38.1h30.8c2-12.9,13.2-22.8,26.7-22.8c13.5,0,24.7,9.9,26.7,22.8H327v-0.4c0-16.3,13.2-29.5,29.5-29.5
		c16.3,0,29.5,13.2,29.5,29.5v0.4h127.2c0-0.1,0-0.3,0-0.4c0-5.4,4.4-9.8,9.8-9.8c5.4,0,9.8,4.4,9.8,9.8c0,0.1,0,0.3,0,0.4h97.2
		c-0.4-2-0.6-4-0.6-6.2c0-16.3,13.2-29.5,29.5-29.5c16.3,0,29.5,13.2,29.5,29.5c0,2.1-0.2,4.2-0.7,6.2h51.3
		c0-10.8,8.8-19.5,19.5-19.5c10.8,0,19.6,8.7,19.6,19.5h4c10.5,0,20-4.3,26.9-11.1c6.9-6.9,11.1-16.4,11.1-26.9
		C819.9,490.2,802.9,473.2,781.9,473.2z M160.6,525.6c-9.9,0-17.8-8-17.8-17.8c0-9.8,8-17.8,17.8-17.8c9.8,0,17.8,8,17.8,17.8
		C178.4,517.6,170.4,525.6,160.6,525.6z M210.2,509.5c-5.4,0-9.8-4.4-9.8-9.8s4.4-9.8,9.8-9.8c5.4,0,9.8,4.4,9.8,9.8
		S215.6,509.5,210.2,509.5z M297.1,537.6c-5.4,0-9.8-4.4-9.8-9.8c0-5.4,4.4-9.8,9.8-9.8c5.4,0,9.8,4.4,9.8,9.8
		C306.9,533.2,302.5,537.6,297.1,537.6z M422.2,527.8c-9.2,0-16.6-7.4-16.6-16.6c0-9.2,7.4-16.6,16.6-16.6c9.2,0,16.6,7.4,16.6,16.6
		C438.9,520.4,431.4,527.8,422.2,527.8z M489.5,522.7c-12.7,0-23-10.3-23-23c0-12.7,10.3-23,23-23c12.7,0,23,10.3,23,23
		C512.4,512.4,502.2,522.7,489.5,522.7z M580.1,526.6c-7.1,0-12.9-5.8-12.9-12.9c0-7.1,5.8-12.9,12.9-12.9c7.1,0,12.9,5.8,12.9,12.9
		C593,520.8,587.2,526.6,580.1,526.6z M709.5,509.5c-5.4,0-9.8-4.4-9.8-9.8s4.4-9.8,9.8-9.8c5.4,0,9.8,4.4,9.8,9.8
		S714.9,509.5,709.5,509.5z M787.2,518.1c-7.1,0-12.9-5.8-12.9-12.9c0-7.1,5.8-12.9,12.9-12.9c7.1,0,12.9,5.8,12.9,12.9
		C800.1,512.3,794.3,518.1,787.2,518.1z"/>
	<g>
		<path class="st0" d="M397.5,331.2c-15.6,0-31-3-46-8.9c-15.1-5.9-28.4-14.2-40.2-24.8l23.2-29.3c11.3,10,22.3,17.3,32.8,21.9
			c10.5,4.6,21.6,6.8,33.3,6.8c8.2,0,15.2-1,21.2-2.9c6-2,10.6-4.8,13.8-8.5c3.3-3.7,4.9-8.1,4.9-13.1c0-6.7-2.4-11.9-7.3-15.6
			c-4.8-3.7-13.1-6.5-24.8-8.4l-38.8-6.7c-16.6-3-29.2-8.9-37.9-17.7s-13.1-20.3-13.1-34.5c0-12.1,3.2-22.5,9.5-31.4
			c6.3-8.8,15.2-15.6,26.6-20.4c11.4-4.7,25.1-7.1,40.9-7.1c14.1,0,28.4,2.4,42.8,7.1c14.4,4.7,27,11.5,37.8,20.2l-21.8,29.9
			c-20.5-15.6-41-23.4-61.7-23.4c-7.3,0-13.6,0.9-19,2.8c-5.4,1.9-9.5,4.4-12.4,7.7c-2.9,3.3-4.3,7-4.3,11.3
			c0,6.3,2.2,11.1,6.6,14.2c4.4,3.2,11.5,5.7,21.3,7.5l36.8,5.9c19.5,3.2,34.2,9.3,43.9,18.5c9.8,9.2,14.6,21.3,14.6,36.4
			c0,12.7-3.4,23.6-10.2,32.9c-6.8,9.3-16.4,16.6-28.7,21.8C429.1,328.6,414.4,331.2,397.5,331.2z"/>
		<path class="st0" d="M501.8,391.5V183.1h37.7v12c11.7-9.3,25.5-13.9,41.3-13.9c13.8-0.2,26.2,3.1,37.4,9.8
			c11.2,6.7,20,15.7,26.6,26.9c6.6,11.3,9.9,23.9,9.9,38.1c0,13.9-3.4,26.5-10,37.8s-15.7,20.2-27.1,26.8c-11.3,6.6-24,9.9-37.9,9.9
			c-7.4,0-14.5-1-21.1-3.1c-6.6-2-12.8-4.9-18.5-8.6v72.8c0,10.6-8.6,19.1-19.1,19.1h0C510.4,410.6,501.8,402,501.8,391.5z
			 M574.6,298c8,0,15.2-1.8,21.6-5.4c6.4-3.6,11.5-8.7,15.2-15.2c3.7-6.5,5.6-13.7,5.6-21.5c0-8-1.9-15.2-5.6-21.5
			c-3.7-6.3-8.8-11.3-15.2-15.1c-6.4-3.7-13.6-5.6-21.6-5.6c-7.1,0-13.6,1.2-19.5,3.5c-6,2.3-11,5.8-15.1,10.5v56.6
			c4.1,4.3,9.2,7.6,15.2,10C561.3,296.8,567.8,298,574.6,298z"/>
		<path class="st0" d="M748.7,331.2c-14.5,0-27.6-3.3-39.3-10c-11.7-6.7-21-15.8-27.9-27.2c-6.9-11.4-10.3-24.1-10.3-38.1
			c0-14.1,3.4-26.9,10.3-38.4c6.9-11.4,16.2-20.5,27.9-27.1c11.7-6.6,24.8-9.9,39.3-9.9c14.7,0,27.9,3.3,39.6,9.9
			c11.7,6.6,21,15.6,27.9,27.1c6.9,11.4,10.3,24.2,10.3,38.4c0,13.9-3.4,26.6-10.3,38.1c-6.9,11.4-16.2,20.5-27.9,27.2
			C776.6,327.9,763.4,331.2,748.7,331.2z M748.7,298c7.6,0,14.5-1.9,20.6-5.7c6.1-3.8,11-8.9,14.5-15.2c3.5-6.3,5.3-13.5,5.3-21.5
			c0-7.8-1.8-14.9-5.4-21.2c-3.6-6.3-8.5-11.3-14.5-15.1c-6.1-3.7-12.8-5.6-20.2-5.6c-7.6,0-14.5,1.9-20.6,5.6
			c-6.1,3.7-11,8.7-14.5,15.1c-3.5,6.3-5.3,13.4-5.3,21.2c0,8,1.8,15.2,5.3,21.5c3.5,6.3,8.3,11.4,14.4,15.2
			C734.2,296.1,741.1,298,748.7,298z"/>
		<path class="st0" d="M841.2,328.4V183.1h38.2v12c11.2-9.9,24.8-14.8,41-14.8c11.2,0,21.1,2.5,29.7,7.4
			c8.6,4.9,15.4,11.7,20.2,20.4c4.8,8.6,7.3,18.6,7.3,30v90.4h-37.9v-84.5c0-9.5-2.7-17-8.2-22.5c-5.5-5.5-12.9-8.2-22.2-8.2
			c-6.5,0-12.3,1.3-17.3,3.8s-9.2,6.1-12.6,10.7v100.7H841.2z"/>
		<path class="st0" d="M1080.3,388.1c-11.3,0-22.2-1.2-32.6-3.5c-4-0.9-7.9-1.9-11.6-3.1c-9.3-2.9-13.9-13.3-9.9-22.1v0
			c3.5-7.6,12.2-11.4,20.1-8.6c3.4,1.2,6.8,2.2,10.1,3.1c7.6,2,15.3,2.9,23.2,2.9c11.2,0,19.7-2.5,25.5-7.4
			c5.9-4.9,8.8-12.2,8.8-21.9v-11.4c-11.9,8.6-25.2,12.8-39.9,12.8c-13.6,0-26-3.3-37.2-9.9c-11.3-6.6-20.1-15.5-26.6-26.8
			c-6.5-11.3-9.8-23.8-9.8-37.5c0-13.8,3.3-26.2,9.9-37.4c6.6-11.2,15.6-20,26.9-26.5c11.3-6.5,24.1-9.8,38.2-9.8
			c6.9,0,13.7,1,20.4,2.9c6.7,2,12.8,4.8,18.4,8.5v-9.5h37.9v145.1c0,19.2-6.2,33.9-18.6,44.4
			C1121.1,382.9,1103.4,388.1,1080.3,388.1z M1080,296.9c6.9,0,13.2-1.2,19-3.5c5.8-2.3,10.7-5.6,14.8-9.9v-56.6
			c-4.3-4.3-9.3-7.5-15.1-9.8s-12-3.3-18.7-3.3c-8,0-15.2,1.8-21.5,5.4c-6.3,3.6-11.3,8.6-15.1,14.8c-3.7,6.2-5.6,13.2-5.6,20.8
			c0,8,1.8,15.2,5.4,21.5c3.6,6.3,8.6,11.3,15.1,15.1C1064.8,295,1072,296.9,1080,296.9z"/>
		<path class="st0" d="M1253,331.2c-14.5,0-27.7-3.4-39.5-10.2c-11.8-6.8-21.2-15.8-28-27.1c-6.9-11.2-10.3-23.9-10.3-38.1
			c0-13.9,3.3-26.6,9.9-38.1c6.6-11.4,15.6-20.5,26.9-27.2c11.3-6.7,23.9-10,37.7-10c14,0,26.4,3.4,37.2,10.2
			c10.9,6.8,19.4,16,25.7,27.8c6.2,11.7,9.3,25.1,9.3,40.2v10h-107.7c1.7,5.8,4.5,11,8.4,15.6s8.7,8.2,14.2,10.7
			c5.6,2.5,11.6,3.8,18.1,3.8c6.3,0,12.3-1,17.9-2.9c1.9-0.7,3.6-1.4,5.3-2.2c6-3,13.2-2.4,18.2,2.1l0.9,0.8
			c8.2,7.5,6.3,20.8-3.6,25.7c-2.9,1.5-5.9,2.7-8.9,3.8C1275.3,329.5,1264.7,331.2,1253,331.2z M1213.7,241.4h70.9
			c-1.5-5.8-4-10.8-7.4-15.2c-3.4-4.4-7.6-7.8-12.4-10.2c-4.8-2.4-10-3.6-15.6-3.6c-6,0-11.4,1.2-16.2,3.5c-4.8,2.3-8.9,5.7-12.1,10
			C1217.5,230.3,1215.1,235.4,1213.7,241.4z"/>
	</g>
	<g>
		<path class="st0" d="M839.4,549.3V354h91.8c13.2,0,24.7,2.2,34.6,6.7c9.8,4.5,17.6,10.7,23.1,18.8c5.6,8.1,8.4,17.4,8.4,28
			c0,8.7-2.1,16.6-6.4,23.6c-4.3,7-10.3,12.9-18.1,17.7c9.7,4.1,17.3,10,23,17.7c5.7,7.7,8.5,16.4,8.5,26.1
			c0,11.3-2.9,21.2-8.7,29.7c-5.8,8.5-13.8,15.1-24,19.8c-10.2,4.7-22.1,7.1-35.7,7.1H839.4z M879.8,434.1h48.8
			c8.7,0,15.6-2.1,20.6-6.4c5-4.3,7.5-9.9,7.5-17c0-7.1-2.5-12.7-7.5-16.9c-5-4.2-11.9-6.3-20.6-6.3h-48.8V434.1z M879.8,515.8h52.7
			c9.5,0,17-2.3,22.5-6.8c5.5-4.6,8.2-10.6,8.2-18.3c0-7.6-2.7-13.8-8.2-18.4c-5.5-4.6-13-7-22.5-7h-52.7V515.8z"/>
		<path class="st0" d="M1089.5,552.1c-14.5,0-27.6-3.3-39.3-10c-11.7-6.7-21-15.8-27.9-27.2c-6.9-11.4-10.3-24.1-10.3-38.1
			c0-14.1,3.4-26.9,10.3-38.4c6.9-11.4,16.2-20.5,27.9-27.1c11.7-6.6,24.8-9.9,39.3-9.9c14.7,0,27.9,3.3,39.6,9.9
			c11.7,6.6,21,15.6,27.9,27.1c6.9,11.4,10.3,24.2,10.3,38.4c0,13.9-3.4,26.6-10.3,38.1c-6.9,11.4-16.2,20.5-27.9,27.2
			C1117.4,548.7,1104.2,552.1,1089.5,552.1z M1089.5,518.9c7.6,0,14.5-1.9,20.6-5.7c6.1-3.8,11-8.9,14.5-15.2
			c3.5-6.3,5.3-13.5,5.3-21.5c0-7.8-1.8-14.9-5.4-21.2c-3.6-6.3-8.5-11.3-14.5-15.1c-6.1-3.7-12.8-5.6-20.2-5.6
			c-7.6,0-14.5,1.9-20.6,5.6c-6.1,3.7-11,8.7-14.5,15.1c-3.5,6.3-5.3,13.4-5.3,21.2c0,8,1.8,15.2,5.3,21.5
			c3.5,6.3,8.3,11.4,14.4,15.2C1075.1,517,1081.9,518.9,1089.5,518.9z"/>
		<path class="st0" d="M1252.9,552.1c-14.5,0-27.6-3.3-39.3-10c-11.7-6.7-21-15.8-27.9-27.2c-6.9-11.4-10.3-24.1-10.3-38.1
			c0-14.1,3.4-26.9,10.3-38.4c6.9-11.4,16.2-20.5,27.9-27.1c11.7-6.6,24.8-9.9,39.3-9.9c14.7,0,27.9,3.3,39.6,9.9
			c11.7,6.6,21,15.6,27.9,27.1c6.9,11.4,10.3,24.2,10.3,38.4c0,13.9-3.4,26.6-10.3,38.1c-6.9,11.4-16.2,20.5-27.9,27.2
			C1280.8,548.7,1267.6,552.1,1252.9,552.1z M1252.9,518.9c7.6,0,14.5-1.9,20.6-5.7c6.1-3.8,11-8.9,14.5-15.2
			c3.5-6.3,5.3-13.5,5.3-21.5c0-7.8-1.8-14.9-5.4-21.2c-3.6-6.3-8.5-11.3-14.5-15.1c-6.1-3.7-12.8-5.6-20.2-5.6
			c-7.6,0-14.5,1.9-20.6,5.6c-6.1,3.7-11,8.7-14.5,15.1c-3.5,6.3-5.3,13.4-5.3,21.2c0,8,1.8,15.2,5.3,21.5
			c3.5,6.3,8.3,11.4,14.4,15.2C1238.4,517,1245.3,518.9,1252.9,518.9z"/>
		<path class="st0" d="M1398.9,552.1c-13-0.1-25.2-2-36.6-5.5c-4.7-1.4-9-3.1-13.2-5.1c-9.1-4.2-11.9-15.9-5.8-23.9v0
			c4.7-6.2,13.3-8.2,20.1-4.4c4.3,2.3,8.4,4.2,12.5,5.7c7.7,2.9,15.3,4.3,23,4.4c8.6,0.1,15.4-1.3,20.5-4.1
			c5.1-2.8,7.7-6.6,7.8-11.2c0-3.7-1.4-6.7-4.2-9c-2.9-2.3-7.5-3.9-13.8-4.9l-27.9-4.4c-14.3-2.4-25.2-7.2-32.7-14.4
			c-7.5-7.2-11.1-16.7-11-28.4c0.1-9.5,2.6-17.6,7.6-24.5c5-6.8,12.1-12.1,21.2-15.7c9.1-3.6,19.8-5.4,31.8-5.3
			c10.8,0.1,21.2,1.7,31.3,4.8c4,1.2,8,2.7,11.8,4.4c9.1,4.1,12.2,15.5,6.1,23.4l0,0c-4.4,5.9-12.4,7.8-19,4.6
			c-4.1-2-8.1-3.7-12-4.9c-7.3-2.3-14.6-3.5-21.9-3.5c-6.7-0.1-12.2,1.2-16.5,3.8c-4.3,2.6-6.5,6-6.5,10.3c0,3.9,1.4,7,4.4,9.2
			c3,2.3,8,4,15,5.2l27.9,4.2c14.5,2.2,25.5,6.9,33.1,14.3c7.6,7.3,11.3,16.6,11.2,27.7c-0.1,9.3-2.9,17.5-8.6,24.6
			c-5.6,7.1-13.3,12.7-22.9,16.8C1422.1,550.2,1411.1,552.2,1398.9,552.1z"/>
		<path class="st0" d="M1548.5,551.5c-16,0-28.1-3.7-36.4-11c-8.3-7.3-12.4-18.1-12.4-32.2V436h-13.8c-8.9,0-16-7.2-16-16v0
			c0-8.9,7.2-16,16-16h13.8v-37.1l37.9-8.6v45.8h25.8c8.9,0,16,7.2,16,16v0c0,8.9-7.2,16-16,16h-25.8v64.4c0,6.7,1.5,11.5,4.6,14.4
			c3.1,2.9,8.2,4.3,15.5,4.3c3.9,0,7.4-0.2,10.5-0.7c0,0,0.1,0,0.1,0c5.3-0.8,10.1,3.1,10.1,8.5v13.8c0,4.1-2.9,7.6-7,8.5
			c-2.3,0.5-4.8,0.9-7.6,1.2C1558.1,551.1,1553,551.5,1548.5,551.5z"/>
	</g>
	<path class="st0" d="M300,252.2c0.1,4.7-0.4,9.5-1.2,14.1c-1.7,9-5,17.8-9.9,25.6c-7,11.2-17.3,20.5-29.2,26.3
		c-4.7,2.3-9.7,4-14.8,5.1c-13.2,2.8-26.1-1.9-39.2-3c-8.7-0.7-17.8,0.4-26,3.8c-0.1,0-0.1,0-0.2,0.1c-9.7,4-13.7,10.9-18.9,19.5
		c-0.1,0.1-0.2,0.2-0.3,0.2c-0.4,6.3-1.1,12.5-2.2,18.4c0,0-12.4,1.9-12.2,0c1.8-17.6,3.2-45.1-6-60.9
		c-7.8-13.4-19.4-24.8-32.4-33.1c-19.4-12.4-42.2-19.6-57.7-37.5c-21.2-24.4-31.3-58.2-28.7-90.4c1.3-16,5.7-31.7,12.9-46.1
		c3.6-7.4,8-14.4,13-20.9c2.3-3,11.7-11.2,11.8-15.2c-0.7,32.2,33,53.8,33,53.8C234,207.2,166,280.6,166,280.6
		c-6.3-99.7-100.5-152.5-101.9-153.3c22.3,15.1,41.2,34.9,55.9,57.6c15.5,24,26.1,50.9,32.2,78.9c4.4,20.3,8.1,43.4,8.3,65.8
		c4.6-5.9,9.7-11.5,15-16.7c-0.5-2.4-0.8-4.8-1-7.3c0-0.7-0.1-1.5-0.1-2.2c0-0.4,0-0.8,0-1.1c0,0,0-0.1,0-0.1
		c0.4-8.7,4.6-31.6,36.5-42.4c13.1-4.4,31-6.8,55.2-5.3c0,0,22.8,1.9,33.5-13.1C298.4,243,299.9,250,300,252.2z"/>
	<path class="st0" d="M175.2,473.2c-1,0.1-2,0.1-3,0.1c-1,0-2-0.1-3-0.1H175.2z"/>
</g>
</svg>
