<svg id="youtube-svgrepo-com" xmlns="http://www.w3.org/2000/svg" width="19.977" height="14.083" viewBox="0 0 19.977 14.083">
  <path id="youtube-svgrepo-com-2" data-name="youtube-svgrepo-com" d="M8.949,15.439V9.5l5.221,2.97ZM20.562,7.63a2.522,2.522,0,0,0-1.748-1.774l-.018,0a57.433,57.433,0,0,0-7.083-.425q-.381,0-.759,0h.039c-.214,0-.467,0-.721,0A60,60,0,0,0,2.9,5.881l.289-.029a2.521,2.521,0,0,0-1.761,1.76l0,.017A25.554,25.554,0,0,0,1,12.3c0,.059,0,.117,0,.175v-.009c0,.049,0,.108,0,.167a26.46,26.46,0,0,0,.444,4.835l-.025-.163a2.522,2.522,0,0,0,1.748,1.774l.018,0a57.433,57.433,0,0,0,7.083.425q.38,0,.759,0h-.039c.214,0,.468,0,.721,0a59.99,59.99,0,0,0,7.373-.454l-.289.029a2.522,2.522,0,0,0,1.762-1.76l0-.017a25.613,25.613,0,0,0,.418-4.672c0-.059,0-.117,0-.175v.009c0-.049,0-.108,0-.167a26.46,26.46,0,0,0-.444-4.835l.025.163Z" transform="translate(-1.004 -5.427)" fill="#fff"/>
</svg>
