<svg id="Group_15904" data-name="Group 15904" xmlns="http://www.w3.org/2000/svg" xmlns:xlink="http://www.w3.org/1999/xlink" width="85.681" height="28.074" viewBox="0 0 85.681 28.074">
  <defs>
    <clipPath id="clip-path">
      <rect id="Rectangle_3504" data-name="Rectangle 3504" width="85.681" height="28.074" fill="none"/>
    </clipPath>
  </defs>
  <g id="Group_15903" data-name="Group 15903" clip-path="url(#clip-path)">
    <path id="Path_48850" data-name="Path 48850" d="M85.062,11.05A8,8,0,0,0,83.4,8.6a7.682,7.682,0,0,0-5.439-2.239,7.535,7.535,0,0,0-3.008.6,8.123,8.123,0,0,0-1.3.705,8.022,8.022,0,0,0-1.152.937,7.379,7.379,0,0,0-.615.685,9.53,9.53,0,0,0-.581.842,9.6,9.6,0,0,0-.734,1.656,6.457,6.457,0,0,1,.734-3.2V1.62A1.526,1.526,0,0,0,70.807.47a1.61,1.61,0,0,0-2.751,1.15V7.808a8.461,8.461,0,0,0-2.11-1.068,7.329,7.329,0,0,0-2.368-.383,7.585,7.585,0,0,0-2.986.6A7.714,7.714,0,0,0,58.135,8.6a7.952,7.952,0,0,0-1.66,2.453c-.031.07-.059.142-.088.213-.028-.071-.055-.143-.085-.213A8,8,0,0,0,54.636,8.6a7.686,7.686,0,0,0-2.452-1.642,7.823,7.823,0,0,0-6,0A7.958,7.958,0,0,0,43.735,8.6a7.519,7.519,0,0,0-1.664,2.453c-.029.067-.054.135-.08.2-.028-.067-.054-.134-.083-.2A7.952,7.952,0,0,0,40.246,8.6a7.692,7.692,0,0,0-2.455-1.642,7.823,7.823,0,0,0-6,0A7.966,7.966,0,0,0,29.346,8.6a7.493,7.493,0,0,0-1.667,2.453c-.025.062-.048.125-.073.187-.025-.062-.049-.125-.077-.187A8.006,8.006,0,0,0,25.861,8.6a7.671,7.671,0,0,0-5.437-2.239,7.521,7.521,0,0,0-3.007.6,7.929,7.929,0,0,0-2.289,1.494V8.19a1.652,1.652,0,0,0-1.651-1.652H1.9a1.651,1.651,0,0,0,0,3.3H11L.326,24.21A1.651,1.651,0,0,0,0,25.2v1.078a1.652,1.652,0,0,0,1.652,1.652H13.973a1.651,1.651,0,0,0,1.646-1.53,7.772,7.772,0,0,0,1.82,1.082,7.523,7.523,0,0,0,2.987.6,7.375,7.375,0,0,0,4.266-1.28,7.65,7.65,0,0,0,2.391-2.569v2.228a1.607,1.607,0,0,0,1.623,1.622,1.582,1.582,0,0,0,1.13-.47,1.524,1.524,0,0,0,.491-1.152V20.669H30.32l.006-.008H26.28a1.573,1.573,0,0,0-.917.276,1.489,1.489,0,0,0-.575.746l-.265.544a4.442,4.442,0,0,1-4.1,2.6,4.527,4.527,0,0,1-1.73-.339,4.191,4.191,0,0,1-1.428-.96,4.934,4.934,0,0,1-.961-1.43,4.158,4.158,0,0,1-.361-1.707V18.945h14.38V14.036a4.328,4.328,0,0,1,.341-1.7A4.437,4.437,0,0,1,34.805,9.6a4.515,4.515,0,0,1,1.73.34,4.189,4.189,0,0,1,1.428.961,4.969,4.969,0,0,1,.961,1.431,4.141,4.141,0,0,1,.364,1.7V26.451a1.6,1.6,0,0,0,1.622,1.622,1.59,1.59,0,0,0,1.132-.47,1.539,1.539,0,0,0,.488-1.152V24.225a7.839,7.839,0,0,0,1.229,1.609,7.654,7.654,0,0,0,2.453,1.642,7.761,7.761,0,0,0,5.974,0,7.942,7.942,0,0,0,2.475-1.642,7.541,7.541,0,0,0,1.664-2.452c.022-.056.043-.111.064-.167.023.056.043.112.066.167a7.462,7.462,0,0,0,1.664,2.452,7.962,7.962,0,0,0,2.452,1.642,7.82,7.82,0,0,0,6,0,7.665,7.665,0,0,0,2.449-1.642,8.006,8.006,0,0,0,1.667-2.452c.03-.07.057-.14.085-.211.029.071.055.14.085.211a7.959,7.959,0,0,0,1.664,2.452,7.654,7.654,0,0,0,2.453,1.642,7.761,7.761,0,0,0,5.974,0,7.928,7.928,0,0,0,2.475-1.642,7.585,7.585,0,0,0,2.261-5.44V14.037a7.424,7.424,0,0,0-.619-2.987M4.135,24.623l8.64-11.635a7.951,7.951,0,0,0-.071,1.048v6.358a7.31,7.31,0,0,0,.62,2.988A8.179,8.179,0,0,0,14,24.623H4.135ZM24.9,15.7H15.947V14.036a4.327,4.327,0,0,1,.34-1.7A4.433,4.433,0,0,1,20.427,9.6a4.509,4.509,0,0,1,1.726.34,4.172,4.172,0,0,1,1.429.961,4.969,4.969,0,0,1,.961,1.431,4.12,4.12,0,0,1,.361,1.7V15.7m28.771,4.7a4.307,4.307,0,0,1-.341,1.707A4.428,4.428,0,0,1,49.2,24.83a4.527,4.527,0,0,1-1.73-.339,4.169,4.169,0,0,1-1.428-.96,4.911,4.911,0,0,1-.961-1.43,4.137,4.137,0,0,1-.361-1.707V14.037a4.328,4.328,0,0,1,.341-1.7,4.425,4.425,0,0,1,.959-1.431,4.539,4.539,0,0,1,4.9-.961,4.176,4.176,0,0,1,1.43.961,5.016,5.016,0,0,1,.961,1.431,4.138,4.138,0,0,1,.361,1.7v6.358m14.38,0a4.121,4.121,0,0,1-.361,1.707,4.927,4.927,0,0,1-.961,1.43,4.14,4.14,0,0,1-1.43.96,4.624,4.624,0,0,1-3.476,0,4.48,4.48,0,0,1-2.39-2.39,4.326,4.326,0,0,1-.342-1.707V14.037a4.179,4.179,0,0,1,.362-1.7A5,5,0,0,1,60.42,10.9a4.221,4.221,0,0,1,1.428-.961,4.533,4.533,0,0,1,1.73-.34,4.45,4.45,0,0,1,4.139,2.732,4.346,4.346,0,0,1,.34,1.7Zm14.38,0A4.368,4.368,0,0,1,82.1,22.1a4.521,4.521,0,0,1-5.869,2.39,4.172,4.172,0,0,1-1.427-.96,4.926,4.926,0,0,1-.962-1.43,4.129,4.129,0,0,1-.362-1.707V14.037a4.33,4.33,0,0,1,.342-1.7,4.425,4.425,0,0,1,.959-1.431,4.541,4.541,0,0,1,4.906-.961,4.171,4.171,0,0,1,1.429.961,5,5,0,0,1,.962,1.431,4.138,4.138,0,0,1,.361,1.7v6.358Z" transform="translate(0 0)" fill="#fff"/>
  </g>
</svg>
